<mxfile host="Electron" modified="2023-07-07T19:49:07.324Z" agent="Mozilla/5.0 (Windows NT 10.0; Win64; x64) AppleWebKit/537.36 (KHTML, like Gecko) draw.io/21.2.8 Chrome/112.0.5615.165 Electron/24.2.0 Safari/537.36" etag="UbBI4IaK9Ce9aqM6TTzC" version="21.2.8" type="device">
  <diagram name="Page-1" id="6MI4aRSG3kCILfc0-ACm">
    <mxGraphModel dx="2127" dy="2210" grid="0" gridSize="10" guides="1" tooltips="1" connect="1" arrows="1" fold="1" page="0" pageScale="1" pageWidth="850" pageHeight="1100" math="0" shadow="0">
      <root>
        <mxCell id="0" />
        <mxCell id="1" parent="0" />
        <mxCell id="TEra2ui4IZ6zSK96XgUc-33" value="" style="rounded=0;whiteSpace=wrap;html=1;" parent="1" vertex="1">
          <mxGeometry x="-326" y="-820" width="1616" height="1412" as="geometry" />
        </mxCell>
        <mxCell id="Ir4o4bUdJE17BIB9KvHG-9" value="&lt;b style=&quot;border-color: var(--border-color); background-color: initial;&quot;&gt;&lt;font style=&quot;font-size: 16px;&quot;&gt;Passing testing data to the trained model&lt;/font&gt;&lt;/b&gt;" style="rounded=0;whiteSpace=wrap;html=1;fontSize=14;strokeColor=none;" parent="1" vertex="1">
          <mxGeometry x="385" y="-20" width="133" height="51.5" as="geometry" />
        </mxCell>
        <mxCell id="Mpb16fFOWcYmd3spKum3-273" value="&lt;b style=&quot;border-color: var(--border-color); background-color: initial; font-size: 14px;&quot;&gt;Actual Labels&lt;/b&gt;" style="rounded=0;whiteSpace=wrap;html=1;fontSize=14;fillColor=#FFFFFF;strokeColor=none;" parent="1" vertex="1">
          <mxGeometry x="740" y="-124" width="145" height="60" as="geometry" />
        </mxCell>
        <mxCell id="Mpb16fFOWcYmd3spKum3-259" style="edgeStyle=none;rounded=0;orthogonalLoop=1;jettySize=auto;html=1;exitX=0;exitY=0.5;exitDx=0;exitDy=0;entryX=1;entryY=0.5;entryDx=0;entryDy=0;strokeWidth=3;" parent="1" source="Mpb16fFOWcYmd3spKum3-258" target="Mpb16fFOWcYmd3spKum3-247" edge="1">
          <mxGeometry relative="1" as="geometry" />
        </mxCell>
        <mxCell id="Mpb16fFOWcYmd3spKum3-258" value="" style="rounded=0;whiteSpace=wrap;html=1;dashed=1;strokeWidth=3;" parent="1" vertex="1">
          <mxGeometry x="844" y="-803" width="407" height="626" as="geometry" />
        </mxCell>
        <mxCell id="Mpb16fFOWcYmd3spKum3-250" value="" style="rounded=0;whiteSpace=wrap;html=1;dashed=1;strokeWidth=3;" parent="1" vertex="1">
          <mxGeometry x="-310" y="69" width="1388" height="504" as="geometry" />
        </mxCell>
        <mxCell id="Mpb16fFOWcYmd3spKum3-249" value="" style="rounded=0;whiteSpace=wrap;html=1;dashed=1;strokeWidth=3;" parent="1" vertex="1">
          <mxGeometry x="-310" y="-803" width="631" height="857" as="geometry" />
        </mxCell>
        <mxCell id="Mpb16fFOWcYmd3spKum3-247" value="" style="rounded=0;whiteSpace=wrap;html=1;dashed=1;strokeWidth=3;" parent="1" vertex="1">
          <mxGeometry x="349" y="-803" width="441" height="626" as="geometry" />
        </mxCell>
        <mxCell id="Mpb16fFOWcYmd3spKum3-210" value="&lt;b style=&quot;border-color: var(--border-color); background-color: initial; font-size: 14px;&quot;&gt;No&lt;/b&gt;" style="rounded=0;whiteSpace=wrap;html=1;fontSize=14;strokeColor=none;" parent="1" vertex="1">
          <mxGeometry x="71" y="-690" width="52" height="25" as="geometry" />
        </mxCell>
        <mxCell id="Mpb16fFOWcYmd3spKum3-207" value="&lt;b style=&quot;border-color: var(--border-color); background-color: initial; font-size: 14px;&quot;&gt;Yes&lt;/b&gt;" style="rounded=0;whiteSpace=wrap;html=1;fontSize=14;strokeColor=none;" parent="1" vertex="1">
          <mxGeometry x="-27.5" y="-502" width="52" height="25" as="geometry" />
        </mxCell>
        <mxCell id="Mpb16fFOWcYmd3spKum3-208" value="&lt;b style=&quot;border-color: var(--border-color); background-color: initial; font-size: 14px;&quot;&gt;&lt;font style=&quot;&quot; color=&quot;#000000&quot;&gt;No&lt;/font&gt;&lt;/b&gt;" style="rounded=0;whiteSpace=wrap;html=1;fontSize=14;strokeColor=none;" parent="1" vertex="1">
          <mxGeometry x="-137.5" y="-446" width="52" height="25" as="geometry" />
        </mxCell>
        <mxCell id="Mpb16fFOWcYmd3spKum3-84" value="" style="rounded=0;whiteSpace=wrap;html=1;gradientColor=none;fillColor=none;strokeWidth=3;" parent="1" vertex="1">
          <mxGeometry x="977" y="268.25" width="52" height="115" as="geometry" />
        </mxCell>
        <mxCell id="Mpb16fFOWcYmd3spKum3-85" value="" style="rounded=0;whiteSpace=wrap;html=1;fillColor=#97D077;strokeColor=#82b366;labelBackgroundColor=none;strokeWidth=3;" parent="1" vertex="1">
          <mxGeometry x="253" y="156.5" width="669" height="339" as="geometry" />
        </mxCell>
        <mxCell id="TEra2ui4IZ6zSK96XgUc-20" style="edgeStyle=none;rounded=0;orthogonalLoop=1;jettySize=auto;html=1;exitX=1;exitY=0.5;exitDx=0;exitDy=0;entryX=0;entryY=0.5;entryDx=0;entryDy=0;strokeWidth=3;" parent="1" source="Mpb16fFOWcYmd3spKum3-83" target="TEra2ui4IZ6zSK96XgUc-1" edge="1">
          <mxGeometry relative="1" as="geometry" />
        </mxCell>
        <mxCell id="Mpb16fFOWcYmd3spKum3-83" value="" style="rounded=0;whiteSpace=wrap;html=1;gradientColor=none;fillColor=none;strokeWidth=3;" parent="1" vertex="1">
          <mxGeometry x="61.00000000000001" y="184.75" width="57.5" height="282" as="geometry" />
        </mxCell>
        <mxCell id="Mpb16fFOWcYmd3spKum3-82" value="" style="rounded=0;whiteSpace=wrap;html=1;gradientColor=none;fillColor=none;strokeWidth=3;" parent="1" vertex="1">
          <mxGeometry x="-33.74999999999999" y="156" width="57.5" height="339.5" as="geometry" />
        </mxCell>
        <mxCell id="Mpb16fFOWcYmd3spKum3-81" value="" style="rounded=0;whiteSpace=wrap;html=1;gradientColor=none;fillColor=none;strokeWidth=3;" parent="1" vertex="1">
          <mxGeometry x="-131" y="221.5" width="58.5" height="209" as="geometry" />
        </mxCell>
        <mxCell id="Mpb16fFOWcYmd3spKum3-136" style="edgeStyle=none;rounded=0;orthogonalLoop=1;jettySize=auto;html=1;exitX=1;exitY=0.5;exitDx=0;exitDy=0;entryX=0;entryY=0.5;entryDx=0;entryDy=0;strokeWidth=3;" parent="1" source="Mpb16fFOWcYmd3spKum3-85" target="Mpb16fFOWcYmd3spKum3-84" edge="1">
          <mxGeometry relative="1" as="geometry" />
        </mxCell>
        <mxCell id="Mpb16fFOWcYmd3spKum3-139" style="edgeStyle=none;rounded=0;orthogonalLoop=1;jettySize=auto;html=1;exitX=1;exitY=0.5;exitDx=0;exitDy=0;entryX=0;entryY=0.5;entryDx=0;entryDy=0;" parent="1" source="Mpb16fFOWcYmd3spKum3-2" target="Mpb16fFOWcYmd3spKum3-17" edge="1">
          <mxGeometry relative="1" as="geometry" />
        </mxCell>
        <mxCell id="Mpb16fFOWcYmd3spKum3-145" style="edgeStyle=none;rounded=0;orthogonalLoop=1;jettySize=auto;html=1;exitX=1;exitY=0.5;exitDx=0;exitDy=0;entryX=0;entryY=0.5;entryDx=0;entryDy=0;" parent="1" source="Mpb16fFOWcYmd3spKum3-2" target="Mpb16fFOWcYmd3spKum3-18" edge="1">
          <mxGeometry relative="1" as="geometry" />
        </mxCell>
        <mxCell id="Mpb16fFOWcYmd3spKum3-150" style="edgeStyle=none;rounded=0;orthogonalLoop=1;jettySize=auto;html=1;exitX=1;exitY=0.5;exitDx=0;exitDy=0;entryX=0;entryY=0.5;entryDx=0;entryDy=0;" parent="1" source="Mpb16fFOWcYmd3spKum3-2" target="Mpb16fFOWcYmd3spKum3-20" edge="1">
          <mxGeometry relative="1" as="geometry" />
        </mxCell>
        <mxCell id="Mpb16fFOWcYmd3spKum3-154" style="edgeStyle=none;rounded=0;orthogonalLoop=1;jettySize=auto;html=1;exitX=1;exitY=0.5;exitDx=0;exitDy=0;entryX=0;entryY=0.5;entryDx=0;entryDy=0;" parent="1" source="Mpb16fFOWcYmd3spKum3-2" target="Mpb16fFOWcYmd3spKum3-19" edge="1">
          <mxGeometry relative="1" as="geometry" />
        </mxCell>
        <mxCell id="Mpb16fFOWcYmd3spKum3-158" style="edgeStyle=none;rounded=0;orthogonalLoop=1;jettySize=auto;html=1;exitX=1;exitY=0.5;exitDx=0;exitDy=0;entryX=0;entryY=0.5;entryDx=0;entryDy=0;" parent="1" source="Mpb16fFOWcYmd3spKum3-2" target="Mpb16fFOWcYmd3spKum3-24" edge="1">
          <mxGeometry relative="1" as="geometry" />
        </mxCell>
        <mxCell id="Mpb16fFOWcYmd3spKum3-2" value="" style="ellipse;whiteSpace=wrap;html=1;aspect=fixed;fillColor=#FF6666;strokeColor=#b85450;" parent="1" vertex="1">
          <mxGeometry x="-117" y="231.5" width="30" height="30" as="geometry" />
        </mxCell>
        <mxCell id="Mpb16fFOWcYmd3spKum3-140" style="edgeStyle=none;rounded=0;orthogonalLoop=1;jettySize=auto;html=1;exitX=1;exitY=0.5;exitDx=0;exitDy=0;" parent="1" source="Mpb16fFOWcYmd3spKum3-4" edge="1">
          <mxGeometry relative="1" as="geometry">
            <mxPoint x="-20.57149396623867" y="186.64289202008945" as="targetPoint" />
          </mxGeometry>
        </mxCell>
        <mxCell id="Mpb16fFOWcYmd3spKum3-146" style="edgeStyle=none;rounded=0;orthogonalLoop=1;jettySize=auto;html=1;exitX=1;exitY=0.5;exitDx=0;exitDy=0;" parent="1" source="Mpb16fFOWcYmd3spKum3-4" edge="1">
          <mxGeometry relative="1" as="geometry">
            <mxPoint x="-86.28571428571422" y="296.07142857142867" as="targetPoint" />
          </mxGeometry>
        </mxCell>
        <mxCell id="Mpb16fFOWcYmd3spKum3-147" style="edgeStyle=none;rounded=0;orthogonalLoop=1;jettySize=auto;html=1;exitX=1;exitY=0.5;exitDx=0;exitDy=0;entryX=0;entryY=0.5;entryDx=0;entryDy=0;" parent="1" source="Mpb16fFOWcYmd3spKum3-4" target="Mpb16fFOWcYmd3spKum3-18" edge="1">
          <mxGeometry relative="1" as="geometry" />
        </mxCell>
        <mxCell id="Mpb16fFOWcYmd3spKum3-151" style="edgeStyle=none;rounded=0;orthogonalLoop=1;jettySize=auto;html=1;exitX=1;exitY=0.5;exitDx=0;exitDy=0;entryX=0;entryY=0.5;entryDx=0;entryDy=0;" parent="1" source="Mpb16fFOWcYmd3spKum3-4" target="Mpb16fFOWcYmd3spKum3-20" edge="1">
          <mxGeometry relative="1" as="geometry" />
        </mxCell>
        <mxCell id="Mpb16fFOWcYmd3spKum3-155" style="edgeStyle=none;rounded=0;orthogonalLoop=1;jettySize=auto;html=1;exitX=1;exitY=0.5;exitDx=0;exitDy=0;entryX=0;entryY=0.5;entryDx=0;entryDy=0;" parent="1" source="Mpb16fFOWcYmd3spKum3-4" target="Mpb16fFOWcYmd3spKum3-19" edge="1">
          <mxGeometry relative="1" as="geometry" />
        </mxCell>
        <mxCell id="Mpb16fFOWcYmd3spKum3-159" style="edgeStyle=none;rounded=0;orthogonalLoop=1;jettySize=auto;html=1;exitX=1;exitY=0.5;exitDx=0;exitDy=0;entryX=0;entryY=0.5;entryDx=0;entryDy=0;" parent="1" source="Mpb16fFOWcYmd3spKum3-4" target="Mpb16fFOWcYmd3spKum3-24" edge="1">
          <mxGeometry relative="1" as="geometry" />
        </mxCell>
        <mxCell id="Mpb16fFOWcYmd3spKum3-4" value="" style="ellipse;whiteSpace=wrap;html=1;aspect=fixed;fillColor=#FF6666;strokeColor=#b85450;" parent="1" vertex="1">
          <mxGeometry x="-117" y="281.5" width="30" height="30" as="geometry" />
        </mxCell>
        <mxCell id="Mpb16fFOWcYmd3spKum3-142" style="edgeStyle=none;rounded=0;orthogonalLoop=1;jettySize=auto;html=1;exitX=1;exitY=0.5;exitDx=0;exitDy=0;entryX=0;entryY=0.5;entryDx=0;entryDy=0;" parent="1" source="Mpb16fFOWcYmd3spKum3-5" target="Mpb16fFOWcYmd3spKum3-17" edge="1">
          <mxGeometry relative="1" as="geometry" />
        </mxCell>
        <mxCell id="Mpb16fFOWcYmd3spKum3-149" style="edgeStyle=none;rounded=0;orthogonalLoop=1;jettySize=auto;html=1;exitX=1;exitY=0.5;exitDx=0;exitDy=0;entryX=0;entryY=0.5;entryDx=0;entryDy=0;" parent="1" source="Mpb16fFOWcYmd3spKum3-5" target="Mpb16fFOWcYmd3spKum3-18" edge="1">
          <mxGeometry relative="1" as="geometry" />
        </mxCell>
        <mxCell id="Mpb16fFOWcYmd3spKum3-153" style="edgeStyle=none;rounded=0;orthogonalLoop=1;jettySize=auto;html=1;exitX=1;exitY=0.5;exitDx=0;exitDy=0;entryX=0;entryY=0.5;entryDx=0;entryDy=0;" parent="1" source="Mpb16fFOWcYmd3spKum3-5" target="Mpb16fFOWcYmd3spKum3-20" edge="1">
          <mxGeometry relative="1" as="geometry" />
        </mxCell>
        <mxCell id="Mpb16fFOWcYmd3spKum3-157" style="edgeStyle=none;rounded=0;orthogonalLoop=1;jettySize=auto;html=1;exitX=1;exitY=0.5;exitDx=0;exitDy=0;entryX=0;entryY=0.5;entryDx=0;entryDy=0;" parent="1" source="Mpb16fFOWcYmd3spKum3-5" target="Mpb16fFOWcYmd3spKum3-19" edge="1">
          <mxGeometry relative="1" as="geometry" />
        </mxCell>
        <mxCell id="Mpb16fFOWcYmd3spKum3-161" style="edgeStyle=none;rounded=0;orthogonalLoop=1;jettySize=auto;html=1;exitX=1;exitY=0.5;exitDx=0;exitDy=0;entryX=0;entryY=0.5;entryDx=0;entryDy=0;" parent="1" source="Mpb16fFOWcYmd3spKum3-5" target="Mpb16fFOWcYmd3spKum3-24" edge="1">
          <mxGeometry relative="1" as="geometry" />
        </mxCell>
        <mxCell id="Mpb16fFOWcYmd3spKum3-5" value="" style="ellipse;whiteSpace=wrap;html=1;aspect=fixed;fillColor=#FF6666;strokeColor=#b85450;" parent="1" vertex="1">
          <mxGeometry x="-117" y="382.5" width="30" height="30" as="geometry" />
        </mxCell>
        <mxCell id="Mpb16fFOWcYmd3spKum3-144" style="edgeStyle=none;rounded=0;orthogonalLoop=1;jettySize=auto;html=1;exitX=1;exitY=0.5;exitDx=0;exitDy=0;entryX=0;entryY=0.5;entryDx=0;entryDy=0;" parent="1" source="Mpb16fFOWcYmd3spKum3-6" target="Mpb16fFOWcYmd3spKum3-17" edge="1">
          <mxGeometry relative="1" as="geometry" />
        </mxCell>
        <mxCell id="Mpb16fFOWcYmd3spKum3-148" style="edgeStyle=none;rounded=0;orthogonalLoop=1;jettySize=auto;html=1;exitX=1;exitY=0.5;exitDx=0;exitDy=0;entryX=0;entryY=0.5;entryDx=0;entryDy=0;" parent="1" source="Mpb16fFOWcYmd3spKum3-6" target="Mpb16fFOWcYmd3spKum3-18" edge="1">
          <mxGeometry relative="1" as="geometry" />
        </mxCell>
        <mxCell id="Mpb16fFOWcYmd3spKum3-152" style="edgeStyle=none;rounded=0;orthogonalLoop=1;jettySize=auto;html=1;exitX=1;exitY=0.5;exitDx=0;exitDy=0;entryX=0;entryY=0.5;entryDx=0;entryDy=0;" parent="1" source="Mpb16fFOWcYmd3spKum3-6" target="Mpb16fFOWcYmd3spKum3-20" edge="1">
          <mxGeometry relative="1" as="geometry" />
        </mxCell>
        <mxCell id="Mpb16fFOWcYmd3spKum3-156" style="edgeStyle=none;rounded=0;orthogonalLoop=1;jettySize=auto;html=1;exitX=1;exitY=0.5;exitDx=0;exitDy=0;entryX=0;entryY=0.5;entryDx=0;entryDy=0;" parent="1" source="Mpb16fFOWcYmd3spKum3-6" target="Mpb16fFOWcYmd3spKum3-19" edge="1">
          <mxGeometry relative="1" as="geometry" />
        </mxCell>
        <mxCell id="Mpb16fFOWcYmd3spKum3-160" style="edgeStyle=none;rounded=0;orthogonalLoop=1;jettySize=auto;html=1;exitX=1;exitY=0.5;exitDx=0;exitDy=0;entryX=0;entryY=0.5;entryDx=0;entryDy=0;" parent="1" source="Mpb16fFOWcYmd3spKum3-6" target="Mpb16fFOWcYmd3spKum3-24" edge="1">
          <mxGeometry relative="1" as="geometry" />
        </mxCell>
        <mxCell id="Mpb16fFOWcYmd3spKum3-6" value="" style="ellipse;whiteSpace=wrap;html=1;aspect=fixed;fillColor=#FF6666;strokeColor=#b85450;" parent="1" vertex="1">
          <mxGeometry x="-117" y="333.5" width="30" height="30" as="geometry" />
        </mxCell>
        <mxCell id="Mpb16fFOWcYmd3spKum3-162" style="edgeStyle=none;rounded=0;orthogonalLoop=1;jettySize=auto;html=1;exitX=1;exitY=0.5;exitDx=0;exitDy=0;entryX=0;entryY=0.5;entryDx=0;entryDy=0;" parent="1" source="Mpb16fFOWcYmd3spKum3-17" target="Mpb16fFOWcYmd3spKum3-26" edge="1">
          <mxGeometry relative="1" as="geometry" />
        </mxCell>
        <mxCell id="Mpb16fFOWcYmd3spKum3-167" style="edgeStyle=none;rounded=0;orthogonalLoop=1;jettySize=auto;html=1;exitX=1;exitY=0.5;exitDx=0;exitDy=0;entryX=0;entryY=0.5;entryDx=0;entryDy=0;" parent="1" source="Mpb16fFOWcYmd3spKum3-17" target="Mpb16fFOWcYmd3spKum3-27" edge="1">
          <mxGeometry relative="1" as="geometry" />
        </mxCell>
        <mxCell id="Mpb16fFOWcYmd3spKum3-172" style="edgeStyle=none;rounded=0;orthogonalLoop=1;jettySize=auto;html=1;exitX=1;exitY=0.5;exitDx=0;exitDy=0;entryX=0;entryY=0.5;entryDx=0;entryDy=0;" parent="1" source="Mpb16fFOWcYmd3spKum3-17" target="Mpb16fFOWcYmd3spKum3-28" edge="1">
          <mxGeometry relative="1" as="geometry" />
        </mxCell>
        <mxCell id="Mpb16fFOWcYmd3spKum3-177" style="edgeStyle=none;rounded=0;orthogonalLoop=1;jettySize=auto;html=1;exitX=1;exitY=0.5;exitDx=0;exitDy=0;entryX=0;entryY=0.5;entryDx=0;entryDy=0;" parent="1" source="Mpb16fFOWcYmd3spKum3-17" target="Mpb16fFOWcYmd3spKum3-30" edge="1">
          <mxGeometry relative="1" as="geometry" />
        </mxCell>
        <mxCell id="Mpb16fFOWcYmd3spKum3-17" value="" style="ellipse;whiteSpace=wrap;html=1;aspect=fixed;fillColor=#97D077;strokeColor=#82b366;" parent="1" vertex="1">
          <mxGeometry x="-19.999999999999993" y="172.5" width="30" height="30" as="geometry" />
        </mxCell>
        <mxCell id="Mpb16fFOWcYmd3spKum3-163" style="edgeStyle=none;rounded=0;orthogonalLoop=1;jettySize=auto;html=1;exitX=1;exitY=0.5;exitDx=0;exitDy=0;entryX=0;entryY=0.5;entryDx=0;entryDy=0;" parent="1" source="Mpb16fFOWcYmd3spKum3-18" target="Mpb16fFOWcYmd3spKum3-26" edge="1">
          <mxGeometry relative="1" as="geometry" />
        </mxCell>
        <mxCell id="Mpb16fFOWcYmd3spKum3-168" style="edgeStyle=none;rounded=0;orthogonalLoop=1;jettySize=auto;html=1;exitX=1;exitY=0.5;exitDx=0;exitDy=0;entryX=0;entryY=0.5;entryDx=0;entryDy=0;" parent="1" source="Mpb16fFOWcYmd3spKum3-18" target="Mpb16fFOWcYmd3spKum3-27" edge="1">
          <mxGeometry relative="1" as="geometry" />
        </mxCell>
        <mxCell id="Mpb16fFOWcYmd3spKum3-173" style="edgeStyle=none;rounded=0;orthogonalLoop=1;jettySize=auto;html=1;exitX=1;exitY=0.5;exitDx=0;exitDy=0;entryX=0;entryY=0.5;entryDx=0;entryDy=0;" parent="1" source="Mpb16fFOWcYmd3spKum3-18" target="Mpb16fFOWcYmd3spKum3-28" edge="1">
          <mxGeometry relative="1" as="geometry" />
        </mxCell>
        <mxCell id="Mpb16fFOWcYmd3spKum3-178" style="edgeStyle=none;rounded=0;orthogonalLoop=1;jettySize=auto;html=1;exitX=1;exitY=0.5;exitDx=0;exitDy=0;entryX=0;entryY=0.5;entryDx=0;entryDy=0;" parent="1" source="Mpb16fFOWcYmd3spKum3-18" target="Mpb16fFOWcYmd3spKum3-30" edge="1">
          <mxGeometry relative="1" as="geometry" />
        </mxCell>
        <mxCell id="Mpb16fFOWcYmd3spKum3-18" value="" style="ellipse;whiteSpace=wrap;html=1;aspect=fixed;fillColor=#97D077;strokeColor=#82b366;" parent="1" vertex="1">
          <mxGeometry x="-19.999999999999993" y="222.5" width="30" height="30" as="geometry" />
        </mxCell>
        <mxCell id="Mpb16fFOWcYmd3spKum3-165" style="edgeStyle=none;rounded=0;orthogonalLoop=1;jettySize=auto;html=1;exitX=1;exitY=0.5;exitDx=0;exitDy=0;entryX=0;entryY=0.5;entryDx=0;entryDy=0;" parent="1" source="Mpb16fFOWcYmd3spKum3-19" target="Mpb16fFOWcYmd3spKum3-26" edge="1">
          <mxGeometry relative="1" as="geometry" />
        </mxCell>
        <mxCell id="Mpb16fFOWcYmd3spKum3-170" style="edgeStyle=none;rounded=0;orthogonalLoop=1;jettySize=auto;html=1;exitX=1;exitY=0.5;exitDx=0;exitDy=0;entryX=0;entryY=0.5;entryDx=0;entryDy=0;" parent="1" source="Mpb16fFOWcYmd3spKum3-19" target="Mpb16fFOWcYmd3spKum3-27" edge="1">
          <mxGeometry relative="1" as="geometry" />
        </mxCell>
        <mxCell id="Mpb16fFOWcYmd3spKum3-175" style="edgeStyle=none;rounded=0;orthogonalLoop=1;jettySize=auto;html=1;exitX=1;exitY=0.5;exitDx=0;exitDy=0;entryX=0;entryY=0.5;entryDx=0;entryDy=0;" parent="1" source="Mpb16fFOWcYmd3spKum3-19" target="Mpb16fFOWcYmd3spKum3-28" edge="1">
          <mxGeometry relative="1" as="geometry" />
        </mxCell>
        <mxCell id="Mpb16fFOWcYmd3spKum3-180" style="edgeStyle=none;rounded=0;orthogonalLoop=1;jettySize=auto;html=1;exitX=1;exitY=0.5;exitDx=0;exitDy=0;entryX=0;entryY=0.5;entryDx=0;entryDy=0;" parent="1" source="Mpb16fFOWcYmd3spKum3-19" target="Mpb16fFOWcYmd3spKum3-30" edge="1">
          <mxGeometry relative="1" as="geometry" />
        </mxCell>
        <mxCell id="Mpb16fFOWcYmd3spKum3-19" value="" style="ellipse;whiteSpace=wrap;html=1;aspect=fixed;fillColor=#97D077;strokeColor=#82b366;" parent="1" vertex="1">
          <mxGeometry x="-19.999999999999993" y="323.5" width="30" height="30" as="geometry" />
        </mxCell>
        <mxCell id="Mpb16fFOWcYmd3spKum3-164" style="edgeStyle=none;rounded=0;orthogonalLoop=1;jettySize=auto;html=1;exitX=1;exitY=0.5;exitDx=0;exitDy=0;entryX=0;entryY=0.5;entryDx=0;entryDy=0;" parent="1" source="Mpb16fFOWcYmd3spKum3-20" target="Mpb16fFOWcYmd3spKum3-26" edge="1">
          <mxGeometry relative="1" as="geometry" />
        </mxCell>
        <mxCell id="Mpb16fFOWcYmd3spKum3-169" style="edgeStyle=none;rounded=0;orthogonalLoop=1;jettySize=auto;html=1;exitX=1;exitY=0.5;exitDx=0;exitDy=0;entryX=0;entryY=0.5;entryDx=0;entryDy=0;" parent="1" source="Mpb16fFOWcYmd3spKum3-20" target="Mpb16fFOWcYmd3spKum3-27" edge="1">
          <mxGeometry relative="1" as="geometry" />
        </mxCell>
        <mxCell id="Mpb16fFOWcYmd3spKum3-174" style="edgeStyle=none;rounded=0;orthogonalLoop=1;jettySize=auto;html=1;exitX=1;exitY=0.5;exitDx=0;exitDy=0;entryX=0;entryY=0.5;entryDx=0;entryDy=0;" parent="1" source="Mpb16fFOWcYmd3spKum3-20" target="Mpb16fFOWcYmd3spKum3-28" edge="1">
          <mxGeometry relative="1" as="geometry" />
        </mxCell>
        <mxCell id="Mpb16fFOWcYmd3spKum3-179" style="edgeStyle=none;rounded=0;orthogonalLoop=1;jettySize=auto;html=1;exitX=1;exitY=0.5;exitDx=0;exitDy=0;entryX=0;entryY=0.5;entryDx=0;entryDy=0;" parent="1" source="Mpb16fFOWcYmd3spKum3-20" target="Mpb16fFOWcYmd3spKum3-30" edge="1">
          <mxGeometry relative="1" as="geometry" />
        </mxCell>
        <mxCell id="Mpb16fFOWcYmd3spKum3-20" value="" style="ellipse;whiteSpace=wrap;html=1;aspect=fixed;fillColor=#97D077;strokeColor=#82b366;" parent="1" vertex="1">
          <mxGeometry x="-19.999999999999993" y="274.5" width="30" height="30" as="geometry" />
        </mxCell>
        <mxCell id="Mpb16fFOWcYmd3spKum3-166" style="edgeStyle=none;rounded=0;orthogonalLoop=1;jettySize=auto;html=1;exitX=1;exitY=0.5;exitDx=0;exitDy=0;entryX=0;entryY=0.5;entryDx=0;entryDy=0;" parent="1" source="Mpb16fFOWcYmd3spKum3-24" target="Mpb16fFOWcYmd3spKum3-26" edge="1">
          <mxGeometry relative="1" as="geometry" />
        </mxCell>
        <mxCell id="Mpb16fFOWcYmd3spKum3-171" style="edgeStyle=none;rounded=0;orthogonalLoop=1;jettySize=auto;html=1;exitX=1;exitY=0.5;exitDx=0;exitDy=0;entryX=0;entryY=0.5;entryDx=0;entryDy=0;" parent="1" source="Mpb16fFOWcYmd3spKum3-24" target="Mpb16fFOWcYmd3spKum3-27" edge="1">
          <mxGeometry relative="1" as="geometry" />
        </mxCell>
        <mxCell id="Mpb16fFOWcYmd3spKum3-176" style="edgeStyle=none;rounded=0;orthogonalLoop=1;jettySize=auto;html=1;exitX=1;exitY=0.5;exitDx=0;exitDy=0;entryX=0;entryY=0.5;entryDx=0;entryDy=0;" parent="1" source="Mpb16fFOWcYmd3spKum3-24" target="Mpb16fFOWcYmd3spKum3-28" edge="1">
          <mxGeometry relative="1" as="geometry" />
        </mxCell>
        <mxCell id="Mpb16fFOWcYmd3spKum3-181" style="edgeStyle=none;rounded=0;orthogonalLoop=1;jettySize=auto;html=1;exitX=1;exitY=0.5;exitDx=0;exitDy=0;entryX=0;entryY=0.5;entryDx=0;entryDy=0;" parent="1" source="Mpb16fFOWcYmd3spKum3-24" target="Mpb16fFOWcYmd3spKum3-30" edge="1">
          <mxGeometry relative="1" as="geometry" />
        </mxCell>
        <mxCell id="Mpb16fFOWcYmd3spKum3-24" value="" style="ellipse;whiteSpace=wrap;html=1;aspect=fixed;fillColor=#97D077;strokeColor=#82b366;" parent="1" vertex="1">
          <mxGeometry x="-19.999999999999993" y="451.5" width="30" height="30" as="geometry" />
        </mxCell>
        <mxCell id="Mpb16fFOWcYmd3spKum3-25" value="" style="endArrow=none;dashed=1;html=1;strokeWidth=5;rounded=0;dashPattern=1 4;fillColor=#d5e8d4;strokeColor=#82b366;" parent="1" edge="1">
          <mxGeometry width="50" height="50" relative="1" as="geometry">
            <mxPoint x="-5.499999999999995" y="440.5" as="sourcePoint" />
            <mxPoint x="-5.499999999999995" y="359.5" as="targetPoint" />
          </mxGeometry>
        </mxCell>
        <mxCell id="TEra2ui4IZ6zSK96XgUc-9" style="rounded=0;orthogonalLoop=1;jettySize=auto;html=1;exitX=1;exitY=0.5;exitDx=0;exitDy=0;entryX=0;entryY=0.5;entryDx=0;entryDy=0;" parent="1" source="Mpb16fFOWcYmd3spKum3-26" target="TEra2ui4IZ6zSK96XgUc-2" edge="1">
          <mxGeometry relative="1" as="geometry">
            <mxPoint x="125" y="237" as="targetPoint" />
          </mxGeometry>
        </mxCell>
        <mxCell id="TEra2ui4IZ6zSK96XgUc-15" style="edgeStyle=none;rounded=0;orthogonalLoop=1;jettySize=auto;html=1;exitX=1;exitY=0.5;exitDx=0;exitDy=0;entryX=0;entryY=0.5;entryDx=0;entryDy=0;" parent="1" source="Mpb16fFOWcYmd3spKum3-26" target="TEra2ui4IZ6zSK96XgUc-3" edge="1">
          <mxGeometry relative="1" as="geometry" />
        </mxCell>
        <mxCell id="TEra2ui4IZ6zSK96XgUc-24" style="edgeStyle=none;rounded=0;orthogonalLoop=1;jettySize=auto;html=1;exitX=1;exitY=0.5;exitDx=0;exitDy=0;entryX=0;entryY=0.5;entryDx=0;entryDy=0;" parent="1" source="Mpb16fFOWcYmd3spKum3-26" target="TEra2ui4IZ6zSK96XgUc-5" edge="1">
          <mxGeometry relative="1" as="geometry" />
        </mxCell>
        <mxCell id="TEra2ui4IZ6zSK96XgUc-27" style="edgeStyle=none;rounded=0;orthogonalLoop=1;jettySize=auto;html=1;exitX=1;exitY=0.5;exitDx=0;exitDy=0;entryX=0;entryY=0.5;entryDx=0;entryDy=0;" parent="1" source="Mpb16fFOWcYmd3spKum3-26" target="TEra2ui4IZ6zSK96XgUc-4" edge="1">
          <mxGeometry relative="1" as="geometry" />
        </mxCell>
        <mxCell id="Mpb16fFOWcYmd3spKum3-26" value="" style="ellipse;whiteSpace=wrap;html=1;aspect=fixed;fillColor=#B5739D;strokeColor=#9673a6;" parent="1" vertex="1">
          <mxGeometry x="74.75" y="197.75" width="30" height="30" as="geometry" />
        </mxCell>
        <mxCell id="TEra2ui4IZ6zSK96XgUc-10" style="rounded=0;orthogonalLoop=1;jettySize=auto;html=1;exitX=1;exitY=0.5;exitDx=0;exitDy=0;entryX=0;entryY=0.5;entryDx=0;entryDy=0;" parent="1" source="Mpb16fFOWcYmd3spKum3-27" target="TEra2ui4IZ6zSK96XgUc-2" edge="1">
          <mxGeometry relative="1" as="geometry" />
        </mxCell>
        <mxCell id="TEra2ui4IZ6zSK96XgUc-16" style="edgeStyle=none;rounded=0;orthogonalLoop=1;jettySize=auto;html=1;exitX=1;exitY=0.5;exitDx=0;exitDy=0;entryX=0;entryY=0.5;entryDx=0;entryDy=0;" parent="1" source="Mpb16fFOWcYmd3spKum3-27" target="TEra2ui4IZ6zSK96XgUc-3" edge="1">
          <mxGeometry relative="1" as="geometry" />
        </mxCell>
        <mxCell id="TEra2ui4IZ6zSK96XgUc-25" style="edgeStyle=none;rounded=0;orthogonalLoop=1;jettySize=auto;html=1;exitX=1;exitY=0.5;exitDx=0;exitDy=0;entryX=0;entryY=0.5;entryDx=0;entryDy=0;" parent="1" source="Mpb16fFOWcYmd3spKum3-27" target="TEra2ui4IZ6zSK96XgUc-5" edge="1">
          <mxGeometry relative="1" as="geometry" />
        </mxCell>
        <mxCell id="TEra2ui4IZ6zSK96XgUc-31" style="edgeStyle=none;rounded=0;orthogonalLoop=1;jettySize=auto;html=1;exitX=1;exitY=0.5;exitDx=0;exitDy=0;entryX=0;entryY=0.5;entryDx=0;entryDy=0;" parent="1" source="Mpb16fFOWcYmd3spKum3-27" target="TEra2ui4IZ6zSK96XgUc-4" edge="1">
          <mxGeometry relative="1" as="geometry" />
        </mxCell>
        <mxCell id="Mpb16fFOWcYmd3spKum3-27" value="" style="ellipse;whiteSpace=wrap;html=1;aspect=fixed;fillColor=#B5739D;strokeColor=#9673a6;" parent="1" vertex="1">
          <mxGeometry x="74.75" y="247.75" width="30" height="30" as="geometry" />
        </mxCell>
        <mxCell id="TEra2ui4IZ6zSK96XgUc-12" style="edgeStyle=none;rounded=0;orthogonalLoop=1;jettySize=auto;html=1;exitX=1;exitY=0.5;exitDx=0;exitDy=0;entryX=0;entryY=0.5;entryDx=0;entryDy=0;" parent="1" source="Mpb16fFOWcYmd3spKum3-28" target="TEra2ui4IZ6zSK96XgUc-2" edge="1">
          <mxGeometry relative="1" as="geometry" />
        </mxCell>
        <mxCell id="TEra2ui4IZ6zSK96XgUc-17" style="edgeStyle=none;rounded=0;orthogonalLoop=1;jettySize=auto;html=1;exitX=1;exitY=0.5;exitDx=0;exitDy=0;entryX=0;entryY=0.5;entryDx=0;entryDy=0;" parent="1" source="Mpb16fFOWcYmd3spKum3-28" target="TEra2ui4IZ6zSK96XgUc-3" edge="1">
          <mxGeometry relative="1" as="geometry" />
        </mxCell>
        <mxCell id="TEra2ui4IZ6zSK96XgUc-26" style="edgeStyle=none;rounded=0;orthogonalLoop=1;jettySize=auto;html=1;exitX=1;exitY=0.5;exitDx=0;exitDy=0;entryX=0;entryY=0.5;entryDx=0;entryDy=0;" parent="1" source="Mpb16fFOWcYmd3spKum3-28" target="TEra2ui4IZ6zSK96XgUc-5" edge="1">
          <mxGeometry relative="1" as="geometry" />
        </mxCell>
        <mxCell id="TEra2ui4IZ6zSK96XgUc-30" style="edgeStyle=none;rounded=0;orthogonalLoop=1;jettySize=auto;html=1;exitX=1;exitY=0.5;exitDx=0;exitDy=0;entryX=0;entryY=0.5;entryDx=0;entryDy=0;" parent="1" source="Mpb16fFOWcYmd3spKum3-28" target="TEra2ui4IZ6zSK96XgUc-4" edge="1">
          <mxGeometry relative="1" as="geometry" />
        </mxCell>
        <mxCell id="Mpb16fFOWcYmd3spKum3-28" value="" style="ellipse;whiteSpace=wrap;html=1;aspect=fixed;fillColor=#B5739D;strokeColor=#9673a6;" parent="1" vertex="1">
          <mxGeometry x="74.75" y="295.75" width="30" height="30" as="geometry" />
        </mxCell>
        <mxCell id="TEra2ui4IZ6zSK96XgUc-14" style="edgeStyle=none;rounded=0;orthogonalLoop=1;jettySize=auto;html=1;exitX=1;exitY=0.5;exitDx=0;exitDy=0;entryX=0;entryY=0.5;entryDx=0;entryDy=0;" parent="1" source="Mpb16fFOWcYmd3spKum3-30" target="TEra2ui4IZ6zSK96XgUc-2" edge="1">
          <mxGeometry relative="1" as="geometry" />
        </mxCell>
        <mxCell id="TEra2ui4IZ6zSK96XgUc-18" style="edgeStyle=none;rounded=0;orthogonalLoop=1;jettySize=auto;html=1;exitX=1;exitY=0.5;exitDx=0;exitDy=0;entryX=0;entryY=0.5;entryDx=0;entryDy=0;" parent="1" source="Mpb16fFOWcYmd3spKum3-30" target="TEra2ui4IZ6zSK96XgUc-3" edge="1">
          <mxGeometry relative="1" as="geometry" />
        </mxCell>
        <mxCell id="TEra2ui4IZ6zSK96XgUc-22" style="edgeStyle=none;rounded=0;orthogonalLoop=1;jettySize=auto;html=1;exitX=1;exitY=0.5;exitDx=0;exitDy=0;entryX=0;entryY=0.5;entryDx=0;entryDy=0;" parent="1" source="Mpb16fFOWcYmd3spKum3-30" target="TEra2ui4IZ6zSK96XgUc-5" edge="1">
          <mxGeometry relative="1" as="geometry" />
        </mxCell>
        <mxCell id="TEra2ui4IZ6zSK96XgUc-29" style="edgeStyle=none;rounded=0;orthogonalLoop=1;jettySize=auto;html=1;exitX=1;exitY=0.5;exitDx=0;exitDy=0;entryX=0;entryY=0.5;entryDx=0;entryDy=0;" parent="1" source="Mpb16fFOWcYmd3spKum3-30" target="TEra2ui4IZ6zSK96XgUc-4" edge="1">
          <mxGeometry relative="1" as="geometry" />
        </mxCell>
        <mxCell id="Mpb16fFOWcYmd3spKum3-30" value="" style="ellipse;whiteSpace=wrap;html=1;aspect=fixed;fillColor=#B5739D;strokeColor=#9673a6;" parent="1" vertex="1">
          <mxGeometry x="74.75" y="423.75" width="30" height="30" as="geometry" />
        </mxCell>
        <mxCell id="Mpb16fFOWcYmd3spKum3-31" value="" style="endArrow=none;dashed=1;html=1;strokeWidth=5;rounded=0;dashPattern=1 4;fillColor=#e1d5e7;strokeColor=#9673a6;" parent="1" edge="1">
          <mxGeometry width="50" height="50" relative="1" as="geometry">
            <mxPoint x="89.25" y="412.75" as="sourcePoint" />
            <mxPoint x="89.25" y="331.75" as="targetPoint" />
          </mxGeometry>
        </mxCell>
        <mxCell id="Mpb16fFOWcYmd3spKum3-33" value="" style="rounded=0;whiteSpace=wrap;html=1;fillColor=#FFD966;strokeColor=#d6b656;" parent="1" vertex="1">
          <mxGeometry x="342" y="367.5" width="61" height="38" as="geometry" />
        </mxCell>
        <mxCell id="Mpb16fFOWcYmd3spKum3-34" value="" style="endArrow=none;html=1;rounded=0;entryX=0;entryY=0.5;entryDx=0;entryDy=0;strokeWidth=3;" parent="1" target="Mpb16fFOWcYmd3spKum3-33" edge="1">
          <mxGeometry width="50" height="50" relative="1" as="geometry">
            <mxPoint x="305" y="386.5" as="sourcePoint" />
            <mxPoint x="342" y="386" as="targetPoint" />
          </mxGeometry>
        </mxCell>
        <mxCell id="Mpb16fFOWcYmd3spKum3-35" value="" style="endArrow=none;html=1;rounded=0;exitX=1;exitY=0.5;exitDx=0;exitDy=0;entryX=0;entryY=0.5;entryDx=0;entryDy=0;strokeWidth=3;" parent="1" source="Mpb16fFOWcYmd3spKum3-33" target="Mpb16fFOWcYmd3spKum3-36" edge="1">
          <mxGeometry width="50" height="50" relative="1" as="geometry">
            <mxPoint x="408" y="386" as="sourcePoint" />
            <mxPoint x="437" y="386.5" as="targetPoint" />
          </mxGeometry>
        </mxCell>
        <mxCell id="Mpb16fFOWcYmd3spKum3-36" value="" style="rounded=0;whiteSpace=wrap;html=1;fillColor=#FFD966;strokeColor=#d6b656;" parent="1" vertex="1">
          <mxGeometry x="462" y="367.5" width="61" height="38" as="geometry" />
        </mxCell>
        <mxCell id="Mpb16fFOWcYmd3spKum3-38" value="" style="endArrow=none;html=1;rounded=0;exitX=1;exitY=0.5;exitDx=0;exitDy=0;strokeWidth=3;" parent="1" source="Mpb16fFOWcYmd3spKum3-36" edge="1">
          <mxGeometry width="50" height="50" relative="1" as="geometry">
            <mxPoint x="761" y="425" as="sourcePoint" />
            <mxPoint x="676" y="386.5" as="targetPoint" />
          </mxGeometry>
        </mxCell>
        <mxCell id="Mpb16fFOWcYmd3spKum3-40" value="" style="rounded=0;whiteSpace=wrap;html=1;fillColor=#FFD966;strokeColor=#d6b656;" parent="1" vertex="1">
          <mxGeometry x="342" y="247.5" width="61" height="38" as="geometry" />
        </mxCell>
        <mxCell id="Mpb16fFOWcYmd3spKum3-41" value="" style="endArrow=none;html=1;rounded=0;entryX=0;entryY=0.5;entryDx=0;entryDy=0;strokeWidth=3;" parent="1" target="Mpb16fFOWcYmd3spKum3-40" edge="1">
          <mxGeometry width="50" height="50" relative="1" as="geometry">
            <mxPoint x="304" y="266.5" as="sourcePoint" />
            <mxPoint x="337" y="266" as="targetPoint" />
          </mxGeometry>
        </mxCell>
        <mxCell id="Mpb16fFOWcYmd3spKum3-42" value="" style="endArrow=none;html=1;rounded=0;exitX=1;exitY=0.5;exitDx=0;exitDy=0;entryX=0;entryY=0.5;entryDx=0;entryDy=0;strokeWidth=3;" parent="1" source="Mpb16fFOWcYmd3spKum3-40" target="Mpb16fFOWcYmd3spKum3-43" edge="1">
          <mxGeometry width="50" height="50" relative="1" as="geometry">
            <mxPoint x="403" y="266" as="sourcePoint" />
            <mxPoint x="432" y="266.5" as="targetPoint" />
          </mxGeometry>
        </mxCell>
        <mxCell id="Mpb16fFOWcYmd3spKum3-43" value="" style="rounded=0;whiteSpace=wrap;html=1;fillColor=#FFD966;strokeColor=#d6b656;" parent="1" vertex="1">
          <mxGeometry x="457" y="247.5" width="61" height="38" as="geometry" />
        </mxCell>
        <mxCell id="Mpb16fFOWcYmd3spKum3-44" value="" style="endArrow=none;html=1;rounded=0;exitX=1;exitY=0.5;exitDx=0;exitDy=0;strokeWidth=3;" parent="1" source="Mpb16fFOWcYmd3spKum3-48" edge="1">
          <mxGeometry width="50" height="50" relative="1" as="geometry">
            <mxPoint x="756" y="305" as="sourcePoint" />
            <mxPoint x="678" y="266.5" as="targetPoint" />
          </mxGeometry>
        </mxCell>
        <mxCell id="Mpb16fFOWcYmd3spKum3-47" value="" style="endArrow=none;html=1;rounded=0;" parent="1" source="Mpb16fFOWcYmd3spKum3-48" edge="1">
          <mxGeometry width="50" height="50" relative="1" as="geometry">
            <mxPoint x="559" y="386.5" as="sourcePoint" />
            <mxPoint x="559" y="265.5" as="targetPoint" />
          </mxGeometry>
        </mxCell>
        <mxCell id="Mpb16fFOWcYmd3spKum3-49" value="" style="endArrow=none;html=1;rounded=0;exitX=1;exitY=0.5;exitDx=0;exitDy=0;strokeWidth=3;" parent="1" source="Mpb16fFOWcYmd3spKum3-43" target="Mpb16fFOWcYmd3spKum3-48" edge="1">
          <mxGeometry width="50" height="50" relative="1" as="geometry">
            <mxPoint x="518" y="266.5" as="sourcePoint" />
            <mxPoint x="739" y="266.5" as="targetPoint" />
          </mxGeometry>
        </mxCell>
        <mxCell id="Mpb16fFOWcYmd3spKum3-51" value="" style="endArrow=none;html=1;rounded=0;strokeWidth=3;" parent="1" source="Mpb16fFOWcYmd3spKum3-52" target="Mpb16fFOWcYmd3spKum3-48" edge="1">
          <mxGeometry width="50" height="50" relative="1" as="geometry">
            <mxPoint x="559" y="386.5" as="sourcePoint" />
            <mxPoint x="559" y="265.5" as="targetPoint" />
          </mxGeometry>
        </mxCell>
        <mxCell id="Mpb16fFOWcYmd3spKum3-48" value="" style="ellipse;whiteSpace=wrap;html=1;aspect=fixed;fillStyle=solid;fillColor=#000000;" parent="1" vertex="1">
          <mxGeometry x="555" y="261.5" width="10" height="10" as="geometry" />
        </mxCell>
        <mxCell id="Mpb16fFOWcYmd3spKum3-53" value="" style="endArrow=none;html=1;rounded=0;" parent="1" target="Mpb16fFOWcYmd3spKum3-52" edge="1">
          <mxGeometry width="50" height="50" relative="1" as="geometry">
            <mxPoint x="559" y="386.5" as="sourcePoint" />
            <mxPoint x="560" y="271.5" as="targetPoint" />
          </mxGeometry>
        </mxCell>
        <mxCell id="Mpb16fFOWcYmd3spKum3-52" value="" style="ellipse;whiteSpace=wrap;html=1;aspect=fixed;" parent="1" vertex="1">
          <mxGeometry x="555" y="381.5" width="10" height="10" as="geometry" />
        </mxCell>
        <mxCell id="Mpb16fFOWcYmd3spKum3-54" value="" style="ellipse;whiteSpace=wrap;html=1;aspect=fixed;strokeWidth=1;" parent="1" vertex="1">
          <mxGeometry x="618" y="261.5" width="10" height="10" as="geometry" />
        </mxCell>
        <mxCell id="Mpb16fFOWcYmd3spKum3-55" value="" style="ellipse;whiteSpace=wrap;html=1;aspect=fixed;fillColor=#000000;" parent="1" vertex="1">
          <mxGeometry x="618" y="381.5" width="10" height="10" as="geometry" />
        </mxCell>
        <mxCell id="Mpb16fFOWcYmd3spKum3-56" value="" style="endArrow=none;html=1;rounded=0;strokeWidth=3;" parent="1" edge="1">
          <mxGeometry width="50" height="50" relative="1" as="geometry">
            <mxPoint x="622.5" y="381.5" as="sourcePoint" />
            <mxPoint x="622.5" y="271.5" as="targetPoint" />
          </mxGeometry>
        </mxCell>
        <mxCell id="Mpb16fFOWcYmd3spKum3-62" value="" style="endArrow=none;dashed=1;html=1;dashPattern=1 3;strokeWidth=5;rounded=1;" parent="1" edge="1">
          <mxGeometry width="50" height="50" relative="1" as="geometry">
            <mxPoint x="701" y="326.5" as="sourcePoint" />
            <mxPoint x="774" y="326.5" as="targetPoint" />
          </mxGeometry>
        </mxCell>
        <mxCell id="Mpb16fFOWcYmd3spKum3-64" value="" style="shape=or;whiteSpace=wrap;html=1;fillColor=#FFD966;strokeColor=#d6b656;" parent="1" vertex="1">
          <mxGeometry x="832" y="237.5" width="58" height="56" as="geometry" />
        </mxCell>
        <mxCell id="Mpb16fFOWcYmd3spKum3-65" value="" style="endArrow=none;html=1;rounded=0;entryX=0;entryY=0.5;entryDx=0;entryDy=0;entryPerimeter=0;strokeWidth=3;" parent="1" target="Mpb16fFOWcYmd3spKum3-64" edge="1">
          <mxGeometry width="50" height="50" relative="1" as="geometry">
            <mxPoint x="795" y="265.5" as="sourcePoint" />
            <mxPoint x="780" y="256.5" as="targetPoint" />
          </mxGeometry>
        </mxCell>
        <mxCell id="Mpb16fFOWcYmd3spKum3-66" value="" style="shape=or;whiteSpace=wrap;html=1;fillColor=#FFD966;strokeColor=#d6b656;" parent="1" vertex="1">
          <mxGeometry x="835" y="357.5" width="56" height="56" as="geometry" />
        </mxCell>
        <mxCell id="Mpb16fFOWcYmd3spKum3-67" value="" style="endArrow=none;html=1;rounded=0;entryX=0;entryY=0.5;entryDx=0;entryDy=0;entryPerimeter=0;strokeWidth=3;" parent="1" target="Mpb16fFOWcYmd3spKum3-66" edge="1">
          <mxGeometry width="50" height="50" relative="1" as="geometry">
            <mxPoint x="797" y="385.5" as="sourcePoint" />
            <mxPoint x="783" y="376.5" as="targetPoint" />
          </mxGeometry>
        </mxCell>
        <mxCell id="Mpb16fFOWcYmd3spKum3-70" value="" style="ellipse;whiteSpace=wrap;html=1;aspect=fixed;fillColor=#FF6666;strokeColor=#b85450;" parent="1" vertex="1">
          <mxGeometry x="988" y="281" width="30" height="30" as="geometry" />
        </mxCell>
        <mxCell id="Mpb16fFOWcYmd3spKum3-71" value="" style="ellipse;whiteSpace=wrap;html=1;aspect=fixed;fillColor=#FF6666;strokeColor=#b85450;" parent="1" vertex="1">
          <mxGeometry x="988" y="331" width="30" height="30" as="geometry" />
        </mxCell>
        <mxCell id="Mpb16fFOWcYmd3spKum3-79" value="&lt;h1&gt;&lt;font size=&quot;1&quot; face=&quot;Times New Roman&quot;&gt;&lt;b style=&quot;font-size: 25px;&quot;&gt;|0&amp;gt;&lt;/b&gt;&lt;/font&gt;&lt;/h1&gt;" style="rounded=0;whiteSpace=wrap;html=1;fillColor=#FFFFFF;strokeColor=#FFFFFF;" parent="1" vertex="1">
          <mxGeometry x="264" y="255.5" width="32" height="24" as="geometry" />
        </mxCell>
        <mxCell id="Mpb16fFOWcYmd3spKum3-80" value="&lt;h1&gt;&lt;font size=&quot;1&quot; face=&quot;Times New Roman&quot;&gt;&lt;b style=&quot;font-size: 25px;&quot;&gt;|0&amp;gt;&lt;/b&gt;&lt;/font&gt;&lt;/h1&gt;" style="rounded=0;whiteSpace=wrap;html=1;fillColor=#FFFFFF;strokeColor=#FFFFFF;" parent="1" vertex="1">
          <mxGeometry x="264" y="373.5" width="32" height="24" as="geometry" />
        </mxCell>
        <mxCell id="Mpb16fFOWcYmd3spKum3-132" style="edgeStyle=none;rounded=0;orthogonalLoop=1;jettySize=auto;html=1;exitX=1;exitY=0.5;exitDx=0;exitDy=0;entryX=0;entryY=0.5;entryDx=0;entryDy=0;strokeWidth=3;" parent="1" source="Mpb16fFOWcYmd3spKum3-81" target="Mpb16fFOWcYmd3spKum3-82" edge="1">
          <mxGeometry relative="1" as="geometry" />
        </mxCell>
        <mxCell id="Mpb16fFOWcYmd3spKum3-131" value="" style="edgeStyle=none;rounded=0;orthogonalLoop=1;jettySize=auto;html=1;strokeWidth=3;" parent="1" source="Mpb16fFOWcYmd3spKum3-82" target="Mpb16fFOWcYmd3spKum3-83" edge="1">
          <mxGeometry relative="1" as="geometry" />
        </mxCell>
        <mxCell id="Mpb16fFOWcYmd3spKum3-86" value="" style="rounded=0;whiteSpace=wrap;html=1;fillColor=none;dashed=1;strokeWidth=2;" parent="1" vertex="1">
          <mxGeometry x="324" y="218" width="95" height="217" as="geometry" />
        </mxCell>
        <mxCell id="Mpb16fFOWcYmd3spKum3-87" value="" style="rounded=0;whiteSpace=wrap;html=1;fillColor=none;dashed=1;strokeWidth=2;" parent="1" vertex="1">
          <mxGeometry x="443" y="219" width="224" height="216" as="geometry" />
        </mxCell>
        <mxCell id="Mpb16fFOWcYmd3spKum3-88" value="" style="rounded=0;whiteSpace=wrap;html=1;fillColor=none;dashed=1;strokeWidth=2;" parent="1" vertex="1">
          <mxGeometry x="809" y="217.5" width="100" height="218" as="geometry" />
        </mxCell>
        <mxCell id="Mpb16fFOWcYmd3spKum3-89" value="&lt;b style=&quot;&quot;&gt;&lt;font style=&quot;font-size: 16px;&quot;&gt;Embedding&lt;/font&gt;&lt;/b&gt;" style="rounded=0;whiteSpace=wrap;html=1;fillColor=none;strokeColor=none;" parent="1" vertex="1">
          <mxGeometry x="312.5" y="174.5" width="120" height="34" as="geometry" />
        </mxCell>
        <mxCell id="Mpb16fFOWcYmd3spKum3-90" value="&lt;b style=&quot;&quot;&gt;&lt;font style=&quot;font-size: 16px;&quot;&gt;Circuit Layer&lt;/font&gt;&lt;/b&gt;" style="rounded=0;whiteSpace=wrap;html=1;fillColor=none;strokeColor=none;" parent="1" vertex="1">
          <mxGeometry x="465" y="174.5" width="189" height="34" as="geometry" />
        </mxCell>
        <mxCell id="Mpb16fFOWcYmd3spKum3-91" value="&lt;font size=&quot;1&quot; style=&quot;&quot;&gt;&lt;b style=&quot;font-size: 16px;&quot;&gt;Measurement&lt;/b&gt;&lt;/font&gt;" style="rounded=0;whiteSpace=wrap;html=1;fillColor=none;strokeColor=none;" parent="1" vertex="1">
          <mxGeometry x="802" y="174.5" width="110" height="34" as="geometry" />
        </mxCell>
        <mxCell id="Mpb16fFOWcYmd3spKum3-137" style="edgeStyle=none;rounded=0;orthogonalLoop=1;jettySize=auto;html=1;exitX=1;exitY=0.5;exitDx=0;exitDy=0;entryX=0;entryY=0.5;entryDx=0;entryDy=0;strokeWidth=3;" parent="1" source="Mpb16fFOWcYmd3spKum3-84" target="Mpb16fFOWcYmd3spKum3-101" edge="1">
          <mxGeometry relative="1" as="geometry" />
        </mxCell>
        <mxCell id="Mpb16fFOWcYmd3spKum3-95" value="&lt;b style=&quot;&quot;&gt;&lt;font style=&quot;font-size: 15px;&quot;&gt;2-Neurons Classical Output Layer&lt;/font&gt;&lt;/b&gt;" style="rounded=0;whiteSpace=wrap;html=1;fillColor=none;strokeColor=none;" parent="1" vertex="1">
          <mxGeometry x="949.5" y="206" width="107" height="49" as="geometry" />
        </mxCell>
        <mxCell id="Mpb16fFOWcYmd3spKum3-96" value="&lt;b style=&quot;&quot;&gt;&lt;font style=&quot;font-size: 15px;&quot;&gt;4-Neurons Classical Input Layer&lt;/font&gt;&lt;/b&gt;" style="rounded=0;whiteSpace=wrap;html=1;fillColor=none;strokeColor=none;" parent="1" vertex="1">
          <mxGeometry x="-146.69" y="162" width="89.87" height="44" as="geometry" />
        </mxCell>
        <mxCell id="Mpb16fFOWcYmd3spKum3-97" value="&lt;b style=&quot;&quot;&gt;&lt;font style=&quot;font-size: 15px;&quot;&gt;512-Neurons Classical Hidden Layer1&lt;/font&gt;&lt;/b&gt;" style="rounded=0;whiteSpace=wrap;html=1;fillColor=none;strokeColor=none;" parent="1" vertex="1">
          <mxGeometry x="-55" y="84.5" width="103" height="60.5" as="geometry" />
        </mxCell>
        <mxCell id="Mpb16fFOWcYmd3spKum3-133" style="edgeStyle=none;rounded=0;orthogonalLoop=1;jettySize=auto;html=1;exitX=1;exitY=0.5;exitDx=0;exitDy=0;entryX=0;entryY=0.5;entryDx=0;entryDy=0;strokeWidth=3;" parent="1" source="Mpb16fFOWcYmd3spKum3-100" target="Mpb16fFOWcYmd3spKum3-81" edge="1">
          <mxGeometry relative="1" as="geometry" />
        </mxCell>
        <mxCell id="Mpb16fFOWcYmd3spKum3-100" value="&lt;b style=&quot;&quot;&gt;&lt;font style=&quot;font-size: 16px;&quot;&gt;Principal Components&lt;/font&gt;&lt;/b&gt;" style="rounded=0;whiteSpace=wrap;html=1;fillColor=none;strokeColor=none;" parent="1" vertex="1">
          <mxGeometry x="-255" y="303.75" width="98" height="44" as="geometry" />
        </mxCell>
        <mxCell id="Mpb16fFOWcYmd3spKum3-269" style="edgeStyle=none;rounded=0;orthogonalLoop=1;jettySize=auto;html=1;exitX=0.5;exitY=0;exitDx=0;exitDy=0;strokeWidth=3;" parent="1" source="Mpb16fFOWcYmd3spKum3-101" target="Mpb16fFOWcYmd3spKum3-232" edge="1">
          <mxGeometry relative="1" as="geometry" />
        </mxCell>
        <mxCell id="Mpb16fFOWcYmd3spKum3-101" value="&lt;b style=&quot;font-size: 14px;&quot;&gt;&lt;font style=&quot;font-size: 14px;&quot;&gt;Predicted&amp;nbsp;probabilities for each class&lt;/font&gt;&lt;/b&gt;" style="rounded=0;whiteSpace=wrap;html=1;fillColor=#FFD966;strokeColor=#b85450;strokeWidth=3;resizeHeight=0;resizeWidth=0;" parent="1" vertex="1">
          <mxGeometry x="1107" y="280.75" width="165" height="90" as="geometry" />
        </mxCell>
        <mxCell id="Mpb16fFOWcYmd3spKum3-102" value="&lt;b style=&quot;&quot;&gt;&lt;font style=&quot;font-size: 15px;&quot;&gt;256-Neurons Classical Hidden Layer2&lt;/font&gt;&lt;/b&gt;" style="rounded=0;whiteSpace=wrap;html=1;fillColor=none;strokeColor=none;" parent="1" vertex="1">
          <mxGeometry x="37.940000000000005" y="112" width="103.62" height="62.5" as="geometry" />
        </mxCell>
        <mxCell id="Mpb16fFOWcYmd3spKum3-104" value="&lt;b style=&quot;&quot;&gt;&lt;font style=&quot;font-size: 16px;&quot;&gt;2-bit Quantum Keras Layer&lt;/font&gt;&lt;/b&gt;" style="rounded=0;whiteSpace=wrap;html=1;fillColor=none;strokeColor=none;" parent="1" vertex="1">
          <mxGeometry x="479.25" y="109.75" width="208.5" height="44" as="geometry" />
        </mxCell>
        <mxCell id="Mpb16fFOWcYmd3spKum3-116" value="&lt;b style=&quot;border-color: var(--border-color); color: rgb(0, 0, 0); font-family: Helvetica; font-style: normal; font-variant-ligatures: normal; font-variant-caps: normal; letter-spacing: normal; orphans: 2; text-align: center; text-indent: 0px; text-transform: none; widows: 2; word-spacing: 0px; -webkit-text-stroke-width: 0px; background-color: rgb(255, 255, 255); text-decoration-thickness: initial; text-decoration-style: initial; text-decoration-color: initial;&quot;&gt;&lt;font style=&quot;font-size: 13px;&quot;&gt;Activation = &#39;relu&#39;&lt;/font&gt;&lt;/b&gt;" style="text;whiteSpace=wrap;html=1;" parent="1" vertex="1">
          <mxGeometry x="-62.24" y="499" width="123.24" height="39" as="geometry" />
        </mxCell>
        <mxCell id="Mpb16fFOWcYmd3spKum3-118" value="&lt;b style=&quot;border-color: var(--border-color); color: rgb(0, 0, 0); font-family: Helvetica; font-style: normal; font-variant-ligatures: normal; font-variant-caps: normal; letter-spacing: normal; orphans: 2; text-align: center; text-indent: 0px; text-transform: none; widows: 2; word-spacing: 0px; -webkit-text-stroke-width: 0px; background-color: rgb(255, 255, 255); text-decoration-thickness: initial; text-decoration-style: initial; text-decoration-color: initial;&quot;&gt;&lt;font style=&quot;font-size: 13px;&quot;&gt;Activation = &#39;relu&#39;&lt;/font&gt;&lt;/b&gt;" style="text;whiteSpace=wrap;html=1;" parent="1" vertex="1">
          <mxGeometry x="35.38" y="466.75" width="123.24" height="39" as="geometry" />
        </mxCell>
        <mxCell id="Mpb16fFOWcYmd3spKum3-119" style="edgeStyle=none;rounded=0;orthogonalLoop=1;jettySize=auto;html=1;entryX=1;entryY=0.5;entryDx=0;entryDy=0;" parent="1" source="Mpb16fFOWcYmd3spKum3-100" target="Mpb16fFOWcYmd3spKum3-100" edge="1">
          <mxGeometry relative="1" as="geometry" />
        </mxCell>
        <mxCell id="Mpb16fFOWcYmd3spKum3-138" value="&lt;b style=&quot;border-color: var(--border-color); color: rgb(0, 0, 0); font-family: Helvetica; font-style: normal; font-variant-ligatures: normal; font-variant-caps: normal; letter-spacing: normal; orphans: 2; text-align: center; text-indent: 0px; text-transform: none; widows: 2; word-spacing: 0px; -webkit-text-stroke-width: 0px; background-color: rgb(255, 255, 255); text-decoration-thickness: initial; text-decoration-style: initial; text-decoration-color: initial;&quot;&gt;&lt;font style=&quot;font-size: 13px;&quot;&gt;Activation = &#39;softmax&#39;&lt;/font&gt;&lt;/b&gt;" style="text;whiteSpace=wrap;html=1;" parent="1" vertex="1">
          <mxGeometry x="931" y="383.25" width="144" height="39" as="geometry" />
        </mxCell>
        <mxCell id="Mpb16fFOWcYmd3spKum3-190" style="edgeStyle=none;rounded=0;orthogonalLoop=1;jettySize=auto;html=1;exitX=0.5;exitY=1;exitDx=0;exitDy=0;entryX=0.5;entryY=0;entryDx=0;entryDy=0;strokeWidth=3;" parent="1" source="Mpb16fFOWcYmd3spKum3-182" target="Mpb16fFOWcYmd3spKum3-183" edge="1">
          <mxGeometry relative="1" as="geometry" />
        </mxCell>
        <mxCell id="Mpb16fFOWcYmd3spKum3-182" value="&lt;b style=&quot;background-color: initial; font-size: 14px;&quot;&gt;Replace irrelevant characters with NaN values&lt;/b&gt;" style="rounded=0;whiteSpace=wrap;html=1;fontSize=14;fillColor=#ffe6cc;strokeColor=#d79b00;" parent="1" vertex="1">
          <mxGeometry x="-278.75" y="-774" width="279" height="37" as="geometry" />
        </mxCell>
        <mxCell id="Mpb16fFOWcYmd3spKum3-191" style="edgeStyle=none;rounded=0;orthogonalLoop=1;jettySize=auto;html=1;exitX=0.5;exitY=1;exitDx=0;exitDy=0;entryX=0.5;entryY=0;entryDx=0;entryDy=0;strokeWidth=3;" parent="1" source="Mpb16fFOWcYmd3spKum3-183" target="Mpb16fFOWcYmd3spKum3-184" edge="1">
          <mxGeometry relative="1" as="geometry" />
        </mxCell>
        <mxCell id="Mpb16fFOWcYmd3spKum3-183" value="&lt;b style=&quot;background-color: initial; font-size: 14px;&quot;&gt;Remove NaN values&lt;/b&gt;" style="rounded=0;whiteSpace=wrap;html=1;fontSize=14;fillColor=#ffe6cc;strokeColor=#d79b00;" parent="1" vertex="1">
          <mxGeometry x="-277.75" y="-715" width="278" height="45" as="geometry" />
        </mxCell>
        <mxCell id="Mpb16fFOWcYmd3spKum3-192" style="edgeStyle=none;rounded=0;orthogonalLoop=1;jettySize=auto;html=1;exitX=0.5;exitY=1;exitDx=0;exitDy=0;entryX=0.5;entryY=0;entryDx=0;entryDy=0;strokeWidth=3;" parent="1" source="Mpb16fFOWcYmd3spKum3-184" target="Mpb16fFOWcYmd3spKum3-185" edge="1">
          <mxGeometry relative="1" as="geometry" />
        </mxCell>
        <mxCell id="Mpb16fFOWcYmd3spKum3-184" value="&lt;b style=&quot;background-color: initial; font-size: 14px;&quot;&gt;Convert categorical features to numerical features&lt;/b&gt;" style="rounded=0;whiteSpace=wrap;html=1;fontSize=14;fillColor=#ffe6cc;strokeColor=#d79b00;" parent="1" vertex="1">
          <mxGeometry x="-277.75" y="-648" width="279" height="45" as="geometry" />
        </mxCell>
        <mxCell id="Mpb16fFOWcYmd3spKum3-202" style="edgeStyle=none;rounded=0;orthogonalLoop=1;jettySize=auto;html=1;exitX=0.5;exitY=1;exitDx=0;exitDy=0;entryX=0.5;entryY=0;entryDx=0;entryDy=0;strokeWidth=3;" parent="1" source="Mpb16fFOWcYmd3spKum3-185" target="Mpb16fFOWcYmd3spKum3-200" edge="1">
          <mxGeometry relative="1" as="geometry" />
        </mxCell>
        <mxCell id="Mpb16fFOWcYmd3spKum3-185" value="&lt;b style=&quot;background-color: initial; font-size: 14px;&quot;&gt;Apply log transformation to only numerical features&lt;/b&gt;" style="rounded=0;whiteSpace=wrap;html=1;fontSize=14;fillColor=#ffe6cc;strokeColor=#d79b00;" parent="1" vertex="1">
          <mxGeometry x="-278.25" y="-579" width="279.5" height="45" as="geometry" />
        </mxCell>
        <mxCell id="Mpb16fFOWcYmd3spKum3-196" style="edgeStyle=none;rounded=0;orthogonalLoop=1;jettySize=auto;html=1;exitX=0.5;exitY=1;exitDx=0;exitDy=0;entryX=0.5;entryY=0;entryDx=0;entryDy=0;strokeWidth=3;" parent="1" source="Mpb16fFOWcYmd3spKum3-188" target="Mpb16fFOWcYmd3spKum3-189" edge="1">
          <mxGeometry relative="1" as="geometry" />
        </mxCell>
        <mxCell id="Mpb16fFOWcYmd3spKum3-188" value="&lt;b style=&quot;background-color: initial; font-size: 14px;&quot;&gt;Apply standard scaler to only numerical features&lt;/b&gt;" style="rounded=0;whiteSpace=wrap;html=1;fontSize=14;fillColor=#ffe6cc;strokeColor=#d79b00;" parent="1" vertex="1">
          <mxGeometry x="-277.25" y="-418" width="279.5" height="45" as="geometry" />
        </mxCell>
        <mxCell id="Mpb16fFOWcYmd3spKum3-240" style="edgeStyle=none;rounded=0;orthogonalLoop=1;jettySize=auto;html=1;exitX=0.5;exitY=1;exitDx=0;exitDy=0;entryX=0.5;entryY=0;entryDx=0;entryDy=0;strokeWidth=3;" parent="1" source="Mpb16fFOWcYmd3spKum3-189" target="Mpb16fFOWcYmd3spKum3-221" edge="1">
          <mxGeometry relative="1" as="geometry" />
        </mxCell>
        <mxCell id="Mpb16fFOWcYmd3spKum3-189" value="&lt;b style=&quot;background-color: initial; font-size: 14px;&quot;&gt;Apply VIF treatment to only numerical features&lt;/b&gt;" style="rounded=0;whiteSpace=wrap;html=1;fontSize=14;fillColor=#ffe6cc;strokeColor=#d79b00;" parent="1" vertex="1">
          <mxGeometry x="-277.25" y="-346" width="278.5" height="45" as="geometry" />
        </mxCell>
        <mxCell id="Mpb16fFOWcYmd3spKum3-197" value="&lt;b style=&quot;border-color: var(--border-color); background-color: initial; font-size: 14px;&quot;&gt;Replace &#39;infinity&#39; with NaN values&lt;/b&gt;" style="rounded=0;whiteSpace=wrap;html=1;fontSize=14;fillColor=#ffe6cc;strokeColor=#d79b00;" parent="1" vertex="1">
          <mxGeometry x="29.5" y="-500" width="276" height="45" as="geometry" />
        </mxCell>
        <mxCell id="Mpb16fFOWcYmd3spKum3-198" style="edgeStyle=none;rounded=0;orthogonalLoop=1;jettySize=auto;html=1;exitX=0.5;exitY=1;exitDx=0;exitDy=0;entryX=0.5;entryY=0;entryDx=0;entryDy=0;strokeWidth=3;" parent="1" target="Mpb16fFOWcYmd3spKum3-199" edge="1">
          <mxGeometry relative="1" as="geometry">
            <mxPoint x="166.5" y="-454" as="sourcePoint" />
          </mxGeometry>
        </mxCell>
        <mxCell id="Mpb16fFOWcYmd3spKum3-205" style="edgeStyle=none;rounded=0;orthogonalLoop=1;jettySize=auto;html=1;exitX=0;exitY=0.5;exitDx=0;exitDy=0;entryX=1;entryY=0.5;entryDx=0;entryDy=0;strokeWidth=3;" parent="1" source="Mpb16fFOWcYmd3spKum3-199" target="Mpb16fFOWcYmd3spKum3-188" edge="1">
          <mxGeometry relative="1" as="geometry" />
        </mxCell>
        <mxCell id="Mpb16fFOWcYmd3spKum3-199" value="&lt;b style=&quot;background-color: initial; font-size: 14px;&quot;&gt;Remove NaN values&lt;/b&gt;" style="rounded=0;whiteSpace=wrap;html=1;fontSize=14;fillColor=#ffe6cc;strokeColor=#d79b00;" parent="1" vertex="1">
          <mxGeometry x="29.5" y="-418" width="275" height="45" as="geometry" />
        </mxCell>
        <mxCell id="Mpb16fFOWcYmd3spKum3-203" style="edgeStyle=none;rounded=0;orthogonalLoop=1;jettySize=auto;html=1;exitX=1;exitY=0.5;exitDx=0;exitDy=0;entryX=0;entryY=0.5;entryDx=0;entryDy=0;strokeWidth=3;" parent="1" source="Mpb16fFOWcYmd3spKum3-200" target="Mpb16fFOWcYmd3spKum3-197" edge="1">
          <mxGeometry relative="1" as="geometry" />
        </mxCell>
        <mxCell id="Mpb16fFOWcYmd3spKum3-204" style="edgeStyle=none;rounded=0;orthogonalLoop=1;jettySize=auto;html=1;exitX=0.5;exitY=1;exitDx=0;exitDy=0;entryX=0.5;entryY=0;entryDx=0;entryDy=0;strokeWidth=3;" parent="1" source="Mpb16fFOWcYmd3spKum3-200" target="Mpb16fFOWcYmd3spKum3-188" edge="1">
          <mxGeometry relative="1" as="geometry" />
        </mxCell>
        <mxCell id="Mpb16fFOWcYmd3spKum3-200" value="&lt;font size=&quot;1&quot;&gt;&lt;b style=&quot;font-size: 14px;&quot;&gt;Infinity values?&lt;/b&gt;&lt;/font&gt;" style="rhombus;whiteSpace=wrap;html=1;fillColor=#dae8fc;strokeColor=#6c8ebf;" parent="1" vertex="1">
          <mxGeometry x="-245.12" y="-508" width="214.25" height="61" as="geometry" />
        </mxCell>
        <mxCell id="Mpb16fFOWcYmd3spKum3-209" value="&lt;b style=&quot;border-color: var(--border-color); background-color: initial; font-size: 14px;&quot;&gt;Yes&lt;/b&gt;" style="rounded=0;whiteSpace=wrap;html=1;fontSize=14;strokeColor=none;" parent="1" vertex="1">
          <mxGeometry x="19" y="-782" width="52" height="25" as="geometry" />
        </mxCell>
        <mxCell id="Mpb16fFOWcYmd3spKum3-213" style="edgeStyle=orthogonalEdgeStyle;rounded=0;orthogonalLoop=1;jettySize=auto;html=1;exitX=0.5;exitY=1;exitDx=0;exitDy=0;entryX=1;entryY=0.5;entryDx=0;entryDy=0;strokeWidth=3;" parent="1" source="Mpb16fFOWcYmd3spKum3-211" target="Mpb16fFOWcYmd3spKum3-183" edge="1">
          <mxGeometry relative="1" as="geometry">
            <mxPoint x="95" y="-662" as="targetPoint" />
          </mxGeometry>
        </mxCell>
        <mxCell id="Mpb16fFOWcYmd3spKum3-243" style="edgeStyle=none;rounded=0;orthogonalLoop=1;jettySize=auto;html=1;exitX=0;exitY=0.5;exitDx=0;exitDy=0;strokeWidth=3;" parent="1" source="Mpb16fFOWcYmd3spKum3-211" target="Mpb16fFOWcYmd3spKum3-182" edge="1">
          <mxGeometry relative="1" as="geometry" />
        </mxCell>
        <mxCell id="Mpb16fFOWcYmd3spKum3-211" value="&lt;font size=&quot;1&quot;&gt;&lt;b style=&quot;font-size: 14px;&quot;&gt;Irrelevant characters?&lt;/b&gt;&lt;/font&gt;" style="rhombus;whiteSpace=wrap;html=1;fillColor=#dae8fc;strokeColor=#6c8ebf;" parent="1" vertex="1">
          <mxGeometry x="82.75" y="-786" width="214.25" height="61" as="geometry" />
        </mxCell>
        <mxCell id="Mpb16fFOWcYmd3spKum3-220" style="edgeStyle=none;rounded=0;orthogonalLoop=1;jettySize=auto;html=1;exitX=0.5;exitY=1;exitDx=0;exitDy=0;entryX=0.5;entryY=0;entryDx=0;entryDy=0;strokeWidth=3;" parent="1" source="Mpb16fFOWcYmd3spKum3-221" target="Mpb16fFOWcYmd3spKum3-223" edge="1">
          <mxGeometry relative="1" as="geometry" />
        </mxCell>
        <mxCell id="Mpb16fFOWcYmd3spKum3-221" value="&lt;b style=&quot;background-color: initial; font-size: 14px;&quot;&gt;Remove features having multicollinearities&lt;/b&gt;" style="rounded=0;whiteSpace=wrap;html=1;fontSize=14;fillColor=#ffe6cc;strokeColor=#d79b00;" parent="1" vertex="1">
          <mxGeometry x="-275.5" y="-273" width="275" height="45" as="geometry" />
        </mxCell>
        <mxCell id="Mpb16fFOWcYmd3spKum3-222" style="edgeStyle=none;rounded=0;orthogonalLoop=1;jettySize=auto;html=1;exitX=0.5;exitY=1;exitDx=0;exitDy=0;entryX=0.5;entryY=0;entryDx=0;entryDy=0;strokeWidth=3;" parent="1" source="Mpb16fFOWcYmd3spKum3-223" target="Mpb16fFOWcYmd3spKum3-224" edge="1">
          <mxGeometry relative="1" as="geometry" />
        </mxCell>
        <mxCell id="Mpb16fFOWcYmd3spKum3-223" value="&lt;b style=&quot;background-color: initial; font-size: 14px;&quot;&gt;Apply NearMiss undersampling technique to balance training dataset&lt;/b&gt;" style="rounded=0;whiteSpace=wrap;html=1;fontSize=14;fillColor=#ffe6cc;strokeColor=#d79b00;" parent="1" vertex="1">
          <mxGeometry x="-275.5" y="-205" width="275" height="45" as="geometry" />
        </mxCell>
        <mxCell id="Ir4o4bUdJE17BIB9KvHG-4" style="edgeStyle=orthogonalEdgeStyle;rounded=0;orthogonalLoop=1;jettySize=auto;html=1;exitX=0.5;exitY=1;exitDx=0;exitDy=0;entryX=0.5;entryY=0;entryDx=0;entryDy=0;strokeWidth=3;" parent="1" source="Mpb16fFOWcYmd3spKum3-224" target="Ir4o4bUdJE17BIB9KvHG-1" edge="1">
          <mxGeometry relative="1" as="geometry" />
        </mxCell>
        <mxCell id="Ir4o4bUdJE17BIB9KvHG-7" style="edgeStyle=orthogonalEdgeStyle;rounded=0;orthogonalLoop=1;jettySize=auto;html=1;exitX=1;exitY=0.5;exitDx=0;exitDy=0;strokeWidth=3;" parent="1" source="Mpb16fFOWcYmd3spKum3-224" target="Ir4o4bUdJE17BIB9KvHG-2" edge="1">
          <mxGeometry relative="1" as="geometry" />
        </mxCell>
        <mxCell id="Mpb16fFOWcYmd3spKum3-224" value="&lt;b style=&quot;background-color: initial; font-size: 14px;&quot;&gt;Apply PCA to get 4 features&lt;/b&gt;" style="rounded=0;whiteSpace=wrap;html=1;fontSize=14;fillColor=#ffe6cc;strokeColor=#d79b00;" parent="1" vertex="1">
          <mxGeometry x="-275.5" y="-138" width="275" height="45" as="geometry" />
        </mxCell>
        <mxCell id="Mpb16fFOWcYmd3spKum3-252" style="edgeStyle=none;rounded=0;orthogonalLoop=1;jettySize=auto;html=1;entryX=0.5;entryY=0;entryDx=0;entryDy=0;exitX=0;exitY=0.5;exitDx=0;exitDy=0;strokeWidth=3;" parent="1" source="Mpb16fFOWcYmd3spKum3-228" target="Mpb16fFOWcYmd3spKum3-246" edge="1">
          <mxGeometry relative="1" as="geometry" />
        </mxCell>
        <mxCell id="Mpb16fFOWcYmd3spKum3-253" style="edgeStyle=none;rounded=0;orthogonalLoop=1;jettySize=auto;html=1;exitX=0;exitY=0.5;exitDx=0;exitDy=0;entryX=0.5;entryY=1;entryDx=0;entryDy=0;strokeWidth=3;" parent="1" source="Mpb16fFOWcYmd3spKum3-228" target="Mpb16fFOWcYmd3spKum3-245" edge="1">
          <mxGeometry relative="1" as="geometry" />
        </mxCell>
        <mxCell id="Mpb16fFOWcYmd3spKum3-228" value="&lt;b style=&quot;background-color: initial;&quot;&gt;&lt;font style=&quot;font-size: 20px;&quot;&gt;Inventory Management Data Warehouse&lt;/font&gt;&lt;/b&gt;" style="rounded=0;whiteSpace=wrap;html=1;fontSize=14;strokeColor=#9673a6;fillColor=#e1d5e7;" parent="1" vertex="1">
          <mxGeometry x="497" y="-440" width="254" height="71" as="geometry" />
        </mxCell>
        <mxCell id="Mpb16fFOWcYmd3spKum3-231" value="&lt;b style=&quot;background-color: initial;&quot;&gt;&lt;font style=&quot;font-size: 17px;&quot;&gt;Supplier Performance&lt;/font&gt;&lt;/b&gt;" style="rounded=0;whiteSpace=wrap;html=1;fontSize=14;strokeColor=#82b366;fillColor=#d5e8d4;" parent="1" vertex="1">
          <mxGeometry x="898" y="-662" width="310" height="53" as="geometry" />
        </mxCell>
        <mxCell id="Mpb16fFOWcYmd3spKum3-270" style="edgeStyle=none;rounded=0;orthogonalLoop=1;jettySize=auto;html=1;exitX=0.5;exitY=0;exitDx=0;exitDy=0;entryX=0.5;entryY=1;entryDx=0;entryDy=0;strokeWidth=3;" parent="1" source="Mpb16fFOWcYmd3spKum3-232" target="Mpb16fFOWcYmd3spKum3-266" edge="1">
          <mxGeometry relative="1" as="geometry" />
        </mxCell>
        <mxCell id="Mpb16fFOWcYmd3spKum3-232" value="&lt;b style=&quot;font-size: 14px;&quot;&gt;&lt;font style=&quot;font-size: 14px;&quot;&gt;Predicted&amp;nbsp;labels for each class&lt;/font&gt;&lt;/b&gt;" style="rounded=0;whiteSpace=wrap;html=1;fillColor=#FFD966;strokeColor=#b85450;strokeWidth=3;resizeHeight=0;resizeWidth=0;" parent="1" vertex="1">
          <mxGeometry x="1107" y="167.75" width="165" height="90" as="geometry" />
        </mxCell>
        <mxCell id="Mpb16fFOWcYmd3spKum3-235" value="&lt;b style=&quot;background-color: initial;&quot;&gt;&lt;font style=&quot;font-size: 17px;&quot;&gt;Lead Times&lt;/font&gt;&lt;/b&gt;" style="rounded=0;whiteSpace=wrap;html=1;fontSize=14;strokeColor=#82b366;fillColor=#d5e8d4;" parent="1" vertex="1">
          <mxGeometry x="899.5" y="-565" width="310" height="50" as="geometry" />
        </mxCell>
        <mxCell id="Mpb16fFOWcYmd3spKum3-236" value="&lt;b style=&quot;background-color: initial;&quot;&gt;&lt;font style=&quot;font-size: 17px;&quot;&gt;Inventory Tracking&lt;/font&gt;&lt;/b&gt;" style="rounded=0;whiteSpace=wrap;html=1;fontSize=14;strokeColor=#82b366;fillColor=#d5e8d4;" parent="1" vertex="1">
          <mxGeometry x="898" y="-477" width="310" height="53" as="geometry" />
        </mxCell>
        <mxCell id="Mpb16fFOWcYmd3spKum3-237" value="&lt;b style=&quot;background-color: initial;&quot;&gt;&lt;font style=&quot;font-size: 17px;&quot;&gt;Product Sales&lt;/font&gt;&lt;/b&gt;" style="rounded=0;whiteSpace=wrap;html=1;fontSize=14;strokeColor=#82b366;fillColor=#d5e8d4;" parent="1" vertex="1">
          <mxGeometry x="898" y="-382" width="310" height="50" as="geometry" />
        </mxCell>
        <mxCell id="Mpb16fFOWcYmd3spKum3-244" value="" style="shape=image;imageAspect=0;aspect=fixed;verticalLabelPosition=bottom;verticalAlign=top;image=data:image/png,iVBORw0KGgoAAAANSUhEUgAAAgAAAAIACAYAAAD0eNT6AAAACXBIWXMAAA7DAAAOwwHHb6hkAAAAGXRFWHRTb2Z0d2FyZQB3d3cuaW5rc2NhcGUub3Jnm+48GgAAIABJREFUeJzt3Xe4HVW5+PFvElIIKfQWIBQhdBEQRUBEwQpYEKxg4QIqKupPRe/1XuWq13YtqKBg7woqCCpIVTpI770noZOEdFJ+f7x73xxDcs7s2bOm7P39PM96DpzsPbNm7zmz3lmz1rtAkiRJkiRJkiRJkiRJkiRJkiRJkiRJkiRJkiRJkiRJkiQlNKzqCkjKbXVgQ2BS6+dawARgYuvnhNZrJgLjgVHLvX8sMLr13/OBecACYC6wEJjT+jkDeLJVnmj9fHTA/08HliY4Pi0zCjgQ2K31/9cCpxHfl5SLAYBUX+OBrVplCrAFsAmwPrAR0YDXwQLgAeD+5X7eB9wOPFVVxXrE9sAfgS2X+/39wMHA1WVXSL3BAECq3ljg+cAuwA4sa/A3qLJSBZoO3ALc3Pp5E3Ar8EyVlWqI9YHrgfVW8u9PATsBD5VWI0lSLqsBewHHAD8jGsVFRBd6v5W7gF8AHwR2BUZ28bn2qm8y9Od4cmW1U6PZAyClNYFo8F/aKrsCq1Rao/qaRzzbvgK4DPg7Pj64C3jeEK+ZRowDkTpiACAVazXg5cA+RIO/EzCi0ho112IiIDivVS4jBiv2k1nEWJDBLCUGCS5KXx31EgMAqXubAa8D9gf2BsZUW52eNQ+4GDgX+BNxd9zrngTWzPC6iUSwIElKaDjRrf8VYlBb1c/S+7XcBHwe2Hnwr6vRHiTbZ9ErA0YlqZZ2IwZlPUz1jZ/lX8t9wDeIwGz4yr7ABrqNbMe/RVUVlKRetR3wOeAOqm/kLNnKQ8CXiemUTXcN2Y55h6oqqOZyDID0XGsChwGHE0lY6moh8AjRIzENmArMJJ4Fz2yVGQN+t3DAexfxr/PwRxP5CEYC44iBixNav18LWLv1c50B/70usCn1HvNwOTHV8LfA0xXXJY+LiF6NoexOzJ6QMnM6krTMS4EjgDdTn0ZtOtH7cBdwZ6s8SDT8j1RYr4HWByYTwcDkVnke0XtS9fS03Vvlm8CZwPeBC4i75iaYk/F1dckKKUmNsRbwUSIzXZXd1s8Qd3vfInofdiXuwJtudWBP4Cjg28D5xMj2Kj/rW4EPMPT0ujr4PdmOaf+qKihJTTMFOImYWlZ2A7QAuAT4OvAOYGt6a+DaUIYRn/9hwAnEc+5nKf97mEkEJVPSHm5Xfka2YzmkqgpKUlPsRcwhX0x5Dc08IqvdcUSSILtrn2ss8d38J/APIkgq6/tZAvyN+G7q5kSyHcN7qqqgJNXZCGLVtCspr1G5DvgCMa6gveSuslsNeA3RS3ID0UiX8b1dRnSn12WA9P+Srd5HV1VBSaqjEUQ3892kbzjmAGcQz7o3KuPg+sx6xADNvxDpgFN/n9cDb6H6RzPHka2+n6iqgpJUJ8OBtxJr0adsJGYSz2hfB6xaypEJYnDkW4ipfbNI+x3fAbyL6tZz+GSGOi4FPltR/SSpFoYBbyJSxKZqEOYSI7MPoj5TBfvZaOAA4BTSDui8ubWfsh2dsX5fraBuklQLryZ71rROy2LgHOBQemNqXq9anXgEcwnpxgxcDLykrAMiBvdlqdd3S6yTJNXC1sRz4RQX++nA/wCbl3Y0KsrziOfnD5Hm3DgN2KaE4zgkY31+XEJdJKkW1iCS5iwkzd3+m4m0uGq2VYjHNe3sf0WWZ4lpemskrP/rMtbldwnrIEm1sAqRxe0Jir2YPwMcj6uq9bLtiAb7GYo9dx4D3kuaqYMvy1iHMxPsW5JqYy9iMFaRF+9pwKdJexeneplIpH8u+vHAZcALCq7rbhn3fX7B+5WkWphI3J0Xmb3vTuAYnL7Xz0YReSKKnC66GPg5scZEEbbLuN/LC9qfJNXGG4hlbou6QF8PHEh9Mr2peiOAtwE3Utx59ggx9qBbm2bc340F7EuSamED4A8Ud0G+hUgHbMOvlRlGBIc3UNx59xtg7S7qtE7G/dzdxT4kqTbeCzxNMRfgO4kV96pO6armGE7kfLiP4noD3pizLqtl3Me0nNuXpFpYG/gjxVx0pwGHE7MGpDxGAx8BHqeYc/JXdD42YBjZkhrNyHeIklS9VxKNdrcX2XlE8p7x5VZfPWwCsbLjHLo/P6cDr+1w/7MzbPfZvAcnSVUZA3yZYkb4n4lZ+5TOJGKEf7fn6RJiVsuojPt9LON2TVwlqTG2A66j+wvqrcCrSq67+tfLiXOu2/P2n2RLPHVfxu2tXsTBSVJqh9J9l+pc4FiqW6pV/WskkUei26yCM4mljQeTNfnVhkUdnCSlMBr4Pt3fPZ0NbFZy3aXlTSYePXV7Pn+XlS8vfWXGbWxZ9MFJUlE2JvvFbGXlcaL3QKqTw4Cn6P6RwEYr2HbWhYyen+TIJKlLLyf7YKaVlV8SiVGkOtoQ+DPdnePTgd2X227WHobl3ydJlfsksIj8F8UnieV5pSZ4F90lspoPvHvA9n6X8X37Jj0qSerAKOAndHdHdB4r7haV6mwS8De6O/e/QQxw/XHG1x9YypFJ0hDGA2eR/+K3EPgcpvBVcw0jZgosIP/fwd+IDIJZXvvWcg5LklZuU2LxnbwXvZtxQJN6x0uA++muNyBLObyk45GkFXohsfhJ3ovYL4GxpddaSmsi8FvSBgAfKu1oJGk5byB/cp8FwNHlV1kqzTCikZ5PmgDg2PIORZKWeSexIEmeC9dUoptU6ge7E9P9ig4AjivzICQJ4H3kX8znImCD8qssVWoS3SfFWr58rdQjkNT3jiX/Bet4YJXyqyzVwqpkH+GfpZxYbvUl9bO8jf8iHLAktR1Dd4my2uUnZVdczebdl/IYBnwd+GiO984G3kakTJV61UhgXKuMJmYBrEos+LN663erARNa/30dsGuX+1yty/erzxgAKI9vAR/O8b7pwP7AtcVWR8ptVWIMykSicV6NSGI1mmicx7b+e43Wz7Esa7THt14/mmjUx7S2N5FqElgZAEhK6vXk6568EdikgvpKK7IrkWY67+DVOpYLC/2EJGk559H5henvxF2TVAevJt1c/CrLlUV+SJK0vCfp7KJ0FtEtKtXBBOAJqm+sU5SbC/yc1AdcaEWdWtzBa08jHhnMS1QXqVMHA2tVXYlExlRdATWLAYA6lbWb8VfAIcSqflJd7FB1BRK6ruoKSOpt+wBLGLwr8mQMLlVPX6X6rvoU5VlglwI/J0laoU+w8iDgK0SeAKmODqT6xrrospBIxy1JpXgp8Yx/GjG//0xg30prJA1tBHAN1TfaRTT69wO/A3Yu8gNS//BOTVK/mQycA2yVcB9LgRnEdMN5wExiyevZrbKg9bt5rdfMaP1uDvBM63fPtP5/wQq2tSRh3dUnDAAk9aNxwPuB1xEr883juQ3t8o3yAmAWMLf130+3fs5t/X4ByxptB79KkiRJkiRJkiRJkiRJkiRJkiRJkiRJkiRJkiRJkiRJkiRJkiRJkiRJkiRJkiQ137CqK6CubARMAdasuiIZPAHcAUyruiKSJDXRMOBg4J/AEmBpg8oS4Arg9YV/KpIk9bDxwJlU35AXUU4FViv245EkqfeMBi6h+oa7yHI+MLLID0mSpF7zDapvsFOULxT5IUmS1EsmAwuovrFOUeYCGxT3UUmSshhedQWUyduAUVVXIpFViUGNkqQSGQA0w95VVyCxfaqugCT1GwOAZphUdQUS26jqCkhSvzEAaIZeny7X68cnSbWzStUVUKHOBp6puhIDTAReWXUlJElqqnvINqJ+q6oquBI7kK3et1ZVQUnqVz4CkCSpDxkASJLUhwwAJEnqQw4ClCTlMQx4GZGobBtgFvB34OfAo5XVSpk1NQAYAWwGbAKsSUwjG11pjdKaUHUFElsdOLLqSiQ0n0h5/BRwP/AAsLjKCkldGA8cChwNbLvcv72WWN/j98AJwGXlVk29agfgOOBi4oJadQ77OpamzgLotzIP+AfwWZ57AZXqamvgO8BMsp/r1wKHEym/pY6sQkSa11L9RbsJxQCgmeUqoht1RL6PWUpmBPAG4FxgCfnP8SeBrwGbl1t9NdUBwN1Uf3FuUjEAaHa5HRMnqR7WAT5NPK4q8hxfDPwZeA0OQtcKrEE8P6r6YtzEYgDQG+WXxHNWqWy7AT+jnMesdwEfI675Es8H7qP6C3BTiwFA75Q7cXyAyjEGeBfxKKqKc30O8ANgp9QHqvp6KTCD6i+8TS4GAL1VngBe3PGnLmUzGfgS8DjVn+vtcjHwVmBUwuNWzexGLGJT9cnX9GIA0HtlJrBzpx+8NIg9gVOAZ6n+/F5ZeQT4MjHVWz1sc+JOp+oTrheKAUBvlkeAjTr87KWBJgAfIgaaVn0+d1IWEsHK3sV/JKraKKp77tSLxQCgd8vFNDdxl6qzHXAi6XtYLyUC1ZT7uBE4ChhX6CfUx4ZVvP/jgP/K+d7FRDQ7lTjx5hdVqRp6K9myAU4hBo/VxQ7EH+1QZhBRfq8aA2xA3MVPIf/0p2OBrxZVKfWsVYDXE5n69km4n9nEjJUTgJuJG7qDW/vdPeF+ZwI/JQKbOl3v1IHnERnROo0CbwDeS8xT7Rf3kO2zaWoPwK1VVbAC6xNpj2+h83N/NrBx+VVWQ6wHfAZ4iLR34rcDHwYmDlKXnYEfESmwU9VjCfA34EBMotU4P6ezL/tpYqpKPyaPMADoPSOAI4gFVDr5O/h+FZVVre0O/ApYQLrGdhFwOrAfnfUcrwl8guzXsLzlPqKHbO0O6qaKbEpnI1DvJPJQ9ysDgN61A3Av2f8W5hOPE9TfViV6Qq8hbcP6ODEaf9Mu6zsc2B84i3h8m6q+84CfALt2WV8ldBzZv9Dp2O1pANDbJhPLp2b9mzi2mmqqBiYBnyP93P1riEdVYxMcwxZEUJF69tfVrWNwIaKaydqgPQu8qKI61okBQO/bm+x3RjdVVEdVYzjwauBM0t49zycezZZ1zV2NaKBvSHhMS4HHgP/BnAK1sBXZvzifdwYDgP7wC7L/bZgXoPdNIP+A0U7KNKJXYd1SjmrFdiGCj4WkO87FxKqGB1D9DLi+dSTZvqyFwIYV1bFuDAD6w6bEYKssn9mh1VRRJdgROImY9ZGqMVwCnAe8kXqNoN8A+CwRlKQMem4DPki26dUq0HfJ9gWdU1UFa8gAoH9cQrbPzHwAvWUEcWd6LtE4p2r4ZhHBxQ7lHFZufh496hyyfTEfrqqCNWQA0D+OJdtn9qeqKqhClXXHeyuRoKeJy0yX1SNyAXAQZtxM6nqyfSGvrKqCNWQA0D/eQLbP7PKqKqhC+My7c2WOifgyjrNJ4m6yfQl2ySxjANA/Xki2z+zmqiqo3MYAhwHXkbYBe5RowCaXc1ilGwbsS/oVDRe09rFvOYfVHx4k24e/WVUVrCEDgP6xNdk+s7uqqqA65rz3dMrKi3At6fIi9BUDgM4ZAPQPA4DeMJxld6lZZ3bkKfNb+9ijnMOqrdHEQkSXkjYQmAEcTyxjrxwMADpnANA/DACabSJxp3graRuiqcSdbz8tipbVLsSgwZQLEbXHVxxMvaZRdqTXRzvuC7yTWHlwTMV16cakqiuQ2GZE92VTzSfWq/g58Pdqq6KKvIAYZf920nXBLyUanROAvxCNkJ7rGuAo4D+JBbeOovh08u0enn2JYPx7xBoEMwreT88powdgOLEUZcoIvI6lqT0AvVROoLsR1/YANMcoosEvq9t5SjmH1XNWAd4EnE/anAKzgZOB55dzWM1URgDw7xn30WvFAKAe5aNdfGYGAPU3Cfg88Ahpz6ObgPcB48o5rL6wLRGkd7oMd6flIuAtwMhyDqs5UgcAY4CZGffRa8UAoB7lCfL/4RsA1NfLgFNJO/Xs2dY+XlbKEfWvCcQjm9RjNdrrLJjWviV1ALB7xu33YjEAqE/ZOednZgBQL+OA9xN34ynPl+nAf9P7433qZhjwCuCPpJ2tsRD4HfDScg6rvlIHAK/LuP1eLAYA9Sl5k4cYANTDFOK5+wzSnieXAm8jxhOoWpsQywY/Strv/AZipshq5RxWvaQOAPbPuP1eLAYA9Sn75fzMDACqtQ+xXknKwWJzgR8SMwdUP6OJ1TavIO014mngG/TZVE4DgHTFAKA+xQCgWYYBJ5L2nLgH+DiwZknHpO7tSkzvm0e68+IpKhrzMbyKnUpSzfw/4ll/0ZYAZxM3JlsC/0tc8NUMVwPvIfIIHAvcn2AfawCnU8H4DwMASf1uDPCpgrc5g+jenQK8hkjcs6Tgfag8TwBfJdZ1eD3LlrUvykS6mz6cS69nAhzM+URE1wR/ordHB99HpNRsgm8Ce1VdCRVqa2CtgrZ1AzHP/FfEs371liXAGa2yFfAB4N1EA96tPQvYRkf6OQB4mkgZ2QQLqq5AYvNpzndhqs/es0FB25kJ/AL4PTb+/aCd/nsD4JACtlfUeZiZjwAk9btuUjcPNJF4xj+daBh2Kmi7qpdRRI/lucSNSxGNPxR3HmZmACBJxWpPI7uOGER2JM1ejExhA+Kx8T3EEsx5c33URj8/AuhFRxCDVepi/aorIFWsvTTtccRCMScR6WHVDMOIKXpHE4P/eqrN7KmDER+vugKSVmh94L+A/wDOIrIMnk+xI8lVnPFEhsYPEvlMepKPAJqh1wcB9vrxSW0jiJwA5xIzBo6iT1PC1tTWwHeAh4nemp5t/MEAoCkeqboCiU2vugJSBXYAvg9MJaaX1i2TZ78YAbyBCMpuJe76J1Rao5IYADTDFVVXILHLq66AlMFTpOmtmgh8BLidyBp4AF6by7AO8GngXuA0YlBfipH4tR3z4UnWDKfQu88KlxDrn0t193ciJeyngQcSbH8Y8CoiyczdwCcoLkGRltmNmKb5ELH63yYJ9rGEyP74GmqcOMwAoBmuB/5QdSUS+SVx5yM1wePAl4mUsG8EziNNcL4ZkXr2YeDHxGwC5TcGeBdwFXAlMU1zdIL9PEXkgtiSGOtxNjW+eTMAaI73EfNPe8mdRNen1DSLiQVc9iPy/X+FNIv8jCEWo7maZTkFVk2wn161IfA5YhXanwIvTLSf64gBnZsQPTf3JtpPoQwAmuNJ4NXAbVVXpCA3AK8kUjJLTXYXsZjQZCI3/C2J9tPOKXAf8AVgo0T7abphRGB2OtHwf5Z43l+0hcCvgT2AnYk8D3MS7CcZA4BmuRt4EfBFYHbFdclrFvEH+RLSPEeVqjIb+B6wPfBy4rHdogT7WY/IJ3Afse7APgn20UQTgQ8TN0nnEIl7RiTYz1TgP4m7/XcAlyXYRylMBNQ8zwCfIYKAlxPzVlNEt0V7lHjWfwHO+1fvu7BVNiK6ho8gGu4irQIc1Cq3EKsQ/pK4RvST7YlMfe8ExiXcz9+Jz/h00gR2feFBYlDEUGWznNvfP+P2HXmuPM4g2/m1X87tb51x+3flPgIt77Vk+8y7GYg7cAGZLPvKW2YRjwm276KuTTCcmC55LjHiPtXnOY+YMbBjF3XdLOO+HuxiH7n4CECS0ltI3HTsR9rnxeOJgYI3AZcQQUcv9fSuRyzIcx8RjKeau383Ma5jEnAYcGOCfVTOAECSytUeMT6p9TPVwN49iBwiDxAj4ZvwqHBl2gMg7yemYaaau38ecCCRlTHVzI7aMACQpGrMJHoCtid6Bk4lphcWbUNi4O1DRECwR4J9pDCa6MG4nLTLKs8Avg08j/gezqTGc/eLZAAgSdVq33kewrKcAk8m2E+7Qb2EZQ3q2AT76dbmxF3+VCJgeXGi/VzLsp6YY4jHCn3FAECS6uMe4tnzRkTmuusT7afdpT6VWJp400T7yWo48Tz/FCJB2LGkSYM8cCzGLkQPzNwE+2kEAwBJqp/5xOjzFwC7Eg3V/AT7WZ2YO38PMaL+ANIMqluZiURPxM2t/R9Mmrn704melc2JnpbzEuyjcQwAJKneriG6qjclegdSTBdr34GfAdxB3IGvkWA/bVsTPQ9TiZ6IbRLt51Kiwd+E+OymJtpPIxkASFIzPMqyu9gDSbcQ0ZbEM/gHiMZ5h4K2OzAXwm1Ez8NqBW17oGeIHpMdgT2JLn8T96yAAYAkNctiYqT6fsSd87dJkxq8nVPgRrrLKbA+0aNwN/GMf9+iKricgWsyHEXkQtAgDAAkqbnuIEawt3MKpFqIqJ1T4EGid2BShvfsQoxjaL9n4wT1Gjh3vz2DwgXGMjIAkKTmm0V0e+/AspwCKbq9NyDu5u9lxXfzY4jMedcTUw0PBUYmqMdjRGO/BX02d79IvZQiUpL63VLijvg8Igf9+4DDKX5KXft5/sHEIMWTgW2BdxMj+1O5kliQ5xRcVKxr9gBIUm+6j7hbn0SMhE+1bG07p8AxpGn8FxA9GnsSSYF+gY1/IQwAJKm3tRvQPViWU2BepTXKZhpwHDF24BBiSp8KZAAgSf1j+ZwCD1RamxVrz92fTCxi9HiltelhBgCS1H/ag+g2JwbR/ZlqB9G15+5vj3P3S2MAIEn9qz2N7gAiO1/Z0+juAD5CrFiYchqjVsAAQJIEsQhPGYl0lhA9Du1ERseTJpGRhmAAIEkaaGAq3b0orju+ncp4M6LHIVUqY2VkHgBJ0spc0iobEAl+PkS2LIADtfME/IJmzD7oG/YASJKG0l5OdwvgkxnfMxXYmWZNPewrBgCSpKwWAH/P+NrHgOvSVUXdMgCQJKkPGQBIktSHDAAkSepDBgCSJPUhAwBJkvqQAYAkSX3IAECSpD5kACBJUh8yFXBvWAc4iFjj+yHgT8DDVVZIklRvBgDN9w7g+8C4Ab/7BvB54Iu42IYkaQV8BNBsHyAW2Bi33O9HEQHA50uvkSSpEewBaK6jgO8CwwZ5zaeAXwO3drDdMcArgL2JFcDWG2IfdTMXmAbcAZwJ3FNtdSSpngwAmukI4HsM3TCPIB4R/EeGbY4mlvr8NLBmV7Wrj28C5wDHAtdXXBdJqhUfATTP4cQz/6x35VtkeM2GwEXA1+idxr/tlcBVRI+JJKnFHoBmeTexrnYngdsjQ/z7WkTjnyVQaKqRRNA0Gvh2xXWRpFqwB6A5DgN+ROff2alD/Ptv6O3Gf6CvA3tWXQlJqgMDgGZ4J/BjOv++fghcOsi/Hwjsl7dSDbQKEQQ0aVCjJCVhAFB/bwN+Sgzo68SZwNFDvOb/5alQw+2GvQCSZABQc28h5vl32vj/BXgzsHCQ16wN7JGzXk33+qorIElVMwCor4OBX9J5438WkRZ4sMYfYPsc2+4VO1ZdATXSTsRjM6+bymp9ajwDyRO5O+OIbvSzgAuBbwHPK2C7BwG/ovNZGn8D3gQsyPDa9TutVA/ZsOoKqJE2J9bZuAf4JDGDRlqRPYgkbA8QeUhqyWmA+e0I/BnYeMDvXkZEe/9GNOB5vJEYmT+yw/ed23rv/IyvXzXj686kOVPnNgJ+kuF1Y1JXRD1tU+ArwHHAb4ETgKurrJBqYSzwdmLs1U4V1yUTA4B81iXutld0Fz0G+DnRwP6ww+0eSFxQOm38zyeea8/r8H1ZPAycl2C7KUypugJqpCU53zeGyM3xbuBKIhA4hWw9cOodWwDvB94LrNHFdvKeh7n5CCCfTzN4F/pw4CSiJyCr/Yk5+6M6rMuFROCQovGX+sFDBWzjRUTg/yDwP8AmBWxT9TUceA0x4PpO4lFwN40/xLlTKgOAfLKMIm8HAUdkeO1rgd/TeeN/EXAAsQCOpHzuIJ7VFmFd4gbhXuCPxMJa5p3oHWsAHyMa/b8S1+6i2tG/FbSdzAwA8sk6+KcdBBw5yGteTVwoRndYh0uA1wFzOnyfpH+1iGwLZnViBDEm5zxiNc4PAhMK3ofKsxPwA+KR6NcpPnvqg8CJBW9zSAYA+dzZwWuHEXnoVxQEvBI4jc4b/0uJyHN2h++TtGK/Aj5K9kG0ndga+A7ReJwAbJtgHyreKOCtxM3WdcQj3bEJ9nM7cSP4dIJtD8oAIJ+TOnx9OwgYOB90X+B0Oh+RfjnR+D/T4fskDe5bRH6ME0nz9zUe+ABwMzFw9yAciF1HGxIzPB4gZmSlSph2KzFj4PnAbYn2MShPvnx+TAwAeVMH7xkGfK/133cR84mzTsVru7K131kdvq8bLwa+XOL+utFrSxmrfPcQF+VPEwtwHU3cwRdpGPDyVnmYuDn4IfBowftRZ/Ymvu830PlMrKwWAWcQPUEXAksT7ae2HiQOeqiyWc7t759x+0OtkjeU0cQgkCz7GliWECP2O33fVcDqXdZ5oDfnqEOvlOu6+NzOyLiPvIssbZ1x+3flPgJ1YhjRW3cacfFOdU7OJzJ/7l7OYXXlhWQ7pmurqmAHViN6Zm8k7TXnEeALRK6S2vARQH4LiB6Aszp83zA67/a/BngVMKPD9w1mWoHbapqpVVdAjbGUGMj3RiIT4JeAxxPsZzTwDuAy4u/9vXTeQ6jstiIe+UwlemB2SLSfK4jVXCcDnyF6fPpar/QAtI0i+11h3rvVFClHVyVmEKSMeuta/r2Lz80eAI0i1uo4l7Tn6QzgeCLwqJOm9gAMJ3pzTiF9b84pwEvKOaxm6bUAAOKO/qyM++2kXE/afON/SFDnupcldDcK2wBAA72QWK47z2O9rGUxkZL71dSj17ZpAcBaxNoN95L22nIv8AlcI2JQvRgAQPE9ATcQS/am9Hzi4pLyj6Jupdvv3QBAK7I6cAxwH2nP37uJxWWqbGSaEgDsTMzYStnTuYToCToYB9Vn0qsBABTXE3ATsE6C+q3Idwqob1PKk+Q/r9oMADSYEUSm0HOIxiHVuTwbOJkI4stW5wBgNPHM/fKMdcxbnga+AWxZzmH1jl4OAKD7IOAWIp1oWUYSKShTN75Vl3nE879uGQAoqynESpozSXtuXwS8hXRT15ZXxwBgY+CLxFTKlJ/1DURSt9XKOaze0+sBAOQPAm4F1ktYr5UZRXSVldEQV1EeJhZrKYIBgDo1jlgt7mbSnufTgM8RiWxSqksA0M6n8Afg2Yx1ylMWEqu07pU4+zV0AAAgAElEQVT4ePpCPwQA0HkQcDuwQeI6DWVP4ALSjpAtszxCZPQaV+BnZACgbuxDLPyVusH6HfDSRMdQdQDQzqh4S8Z65C3TgM9S/XU5GQctpDOfmDt8OjGHfzB3EpHs9NSVGsIlrXqsS0S7k2jeXOSlRDfgnUTmxNLX2JYGcWGrbEQkoDmC4nv9RgKHtMqNRGrjX9L8hcO2JjL1HUbahZUuIjL1nUYEaipQv/QAtA3VE3An0dCqGewBUJFGAW8nEgClvJudAXyTSIDTrTJ7AAauqph6UOVJwI4F1FmD6LcAACIi/wJxkrX3v4iIyp0z2iwGAEplZ+BHwFzSNXRLgLOBA8ifU6CMAGAdYj2GBzLuK2+5E/gIxaZZ1yD6MQBoW5UYjLYXLlzTVAYASm1N4OPEwkQpG797iQQ5nd6EpAwAdgN+TjxCTXXci4m/41cRAwlVon4OANR8BgAqS11T1xYdAIwmEulckvAYl7IstXK3uUB6Rh3SSkqSnmsJ8ez7ECKnwFeIZFZFazfAlwJXE/Pcyxj8uyExbfEhIgDZI9F+riUGXG7IsmyNqog9AGoyewBUpTHEKPjrSXu3/CjwZWDTFdSh2x6APYkGP+VUyAWtfRSR/Ktn2QMgSc0xn3hGvhOwK/AL0kxVW5dYc+AeItf9AXT3vHw80bNwM3Ax6XLnTyd6SjYnek7OS7CPnmEAIEnNdA3RG7AJ8CmiK71o7XEIZwB3EEHBGh28fwrx3H0aMc1uu6Ir2HIp0eC3P4upifajLvkIQE3mIwDV1UhiTYCLSPt4IGvXfcou/qXALOC7dLe8d1+zB0CSesOzLEsBvA2xEFGK7H9Zu+5TZZq9i7jLnwx8kFhDRTkYAEhS77mdGPG+ITECvumNZHtGxIEsmxHxdKU16gEGAJLUu2YBJwPbE4+lTiUS4TTFYywb1LcfcCbR/a8CuBiQJPW+pcQd9HlEY3okcDiwdpWVGsQ1RODyC2BexXXpWfYASFJ/uZd4hr4RMXL+8mqr838WED0UexBTHE/Gxj8pAwBJ6k/tBvclVNvgTgWOY1lAclkFdehLBgCSpGuIwYKbEr0DDyTeX/uRxCGtfX4OeCLxPrUcAwBJUtvAQXcHEo10kYPu2oMSd2DZoMRFBW5fHTAAkCQtbwkx4n4/IjnVV4jV9PK6A/gIMInoabil2wqqewYAkqTB3Ek8FtiEzhrvxcCfiSBiGyIl8OwUFVQ+BgCSpCyeYVlOgb1Yeff9oyx7jHAAxT9GUEHMAyBJ6tQlrTIZeDORj38W8Hfgr6RZoVAFMwCQJOX1APD1qiuhfHwEIElSHzIAkCSpD/kIoHdMBjYj5vHehoNuJEmDsAeg+XYkBuPcD1xITNG5BziowjpJkmrOAKDZ9iIa/z2W+/1mxBSd95VeI0lSI/gIoLn2AP4CjF/Jvw8Dvkkk4ni4w22v3dr+xsBqeStYkcXEY5DbgauJjGaSpOUYADTT7sRc25U1/m1jgLeQfZrOHsSiHPsAI/JWrkYeAb5PHL8ZyCRpAB8BNM+LgLOBCRlfv1WG14wEvkc8TtiX3mj8AdYnAprbgd2qrYok1YsBQLO8EPgb2Rt/gJlD/PsqwJ/o7fECk4B/AK+ouiKSVBcGAM2xK3AOMLHD9503xL9/HXhNrho1yxjgFGKApCT1PQOAZtiZaPxX7/B9/wDOHeTfXwB8MG+lGmhN4KtVV0KS6sAAoP52IhrxNTp83x3EAMDBEgL9B/13DhxELE0qSX2t3y7+TbMj0fiv2eH77iKedz86yGvG0h9d/8sbBryp6kpIUtUMAOprB+L5/dodvu9uYhrf1CFetxMRBPSj3auugCRVzTwA3duduNseC1wPnA4s7HKb2xGN/zodvu8e4OUM3fgDbNBppXrIpKorIElVMwDIbw3gF8Drlvt9Ow//DTm3uy1wPrBuh++7j2j8H8r4+qxTCa8jBiA2wZrAERleN1QCJUnqeQYA+Ywm5uO/cAX/tgUx+v5VwJUdbndrovFfr8P33U90+z/Y4fuyuAL4VILtpjCFbAGAJPU9xwDk8yFW3Pi3TSQChBd3sM0pwAVE9rpOPEjc+T/Q4fskSX3MACCfQzO8ZiKRsjdLELAl0fh3+lz+IeLO/74O3ydJ6nMGAPlkzSbX7gkYbNT584jGf8MO6/Awced/b4fvkyTJACCn6R28dgLRE7CiIGBzovHfqMP9TyMa/7s7fJ8kSYABQF6/6fD1KwoCNgMuBDbucFvTicb/rg7fJ0nS/3EWQD7/S2ST26GD97SDgNcQ8/QvADbpcL+PEI3/HR2+rxsbEUsEN0GnPSmS1LcMAPKZTTTkfyee4WfVDgKeAiZ3uM9HiYRDt3f4vpWZn/F1B7RKL8l67JLUs3wEkN9UYC/gtg7fN57OG//HibvwWzt832A6GcfQa6ZVXQFJqpoBQHceAV5J2sF4TxB3/jcXvN1bgMUFb7Mpbqq6ApJUNQOA7j1MzMVPEQQ8Sdz5p2iwHgcuS7DdJvhT1RWQpKoZABTjYfI9DhjMDODV5F9TIItvJNx2Xf0TuLjqSkhS1QwAilPk44CniW7/qwvY1mBOJ9Ye6BeLgY8BS6uuiCRVzQCgWEU8DphBBBLXFlKjob2V/kkl/AngkqorIUl1YABQvG4eB8wkuv1T3/kP9ASwJ9E13qsWESsafrPqikhSXRgApJHnccAsovHvdAnhIkwDXko0kjMq2H9K5wO7AV+puiKSVCcmAkqn/TjgQoZOFvQMkVjoitSVGsR8opH8NrAfsDcwCVirwjrlsZDIcXAbcCZwZ7XVkaR6MgBIq/044AJgm5W8Zg5wIPWZkjcPOKNVJEk9ykcA6bXz969otP2dRNf738uskCRJ9gCU4xEioc9uwEuAUcCNwHnEADVJkkplAFCuq1pFkqRK+QhAkqQ+ZA+AJCmP4cCrgLcBU4C5xKynnwAPVVgvZWQAIEnqxAQig+hHeO7sppcBnyVmPn0b+DOm3q4tHwFIkrLYGjieSBx2Eiuf2jycGPR8BnA7cCywRhkVVGcMACRJKzMKOBg4l0iu9WFgtQ7evxXwZeABImjYoegKKj8DAEnS8tYn7tzvBk4h7ui7MR44kpj+fAkRVPgIumJ+AZKktl2AY4hn/CMT7WOPVpkO/Bz4DjA10b40CHsAJKm/jQEOA64nViI9lHSN/0AbEL0M91JML4M6ZAAgSf3pecTz+anAz4DnV1SPgeMMriEeFYytqC59xQBAkvpHe4T+KSwbob9mpTX6VzsTgwWnETMONqu2Or3NAECSet9E4tn+3cSd9sHAiEprNLiJxIyDptS3kQwAJKl37QL8mFiQ7FukuaNeQixsliL738Aei9uI5EOrJ9hPXzIAkKTeMvCZ+tXAe4iBfkWbBZxMzO3fD9i09TNV9r8tgW+ybPZAVWMW1IUHiZNjqJI3Ut0/4/ZPzX0E6mdnkO382i/n9rfOuP27ch+BelV7VP3DZDuH8pbbiMcJgyUEaicAeipxXa4mZjCUMWtBBTAAUJMZAKhu9iS6yBeSrqFdBJxJdMcP66BuAxMApQwEphMBx8Yd1E0VMABQkxkAqA6a2LC2A5VnE9Y3b6CikhgAqMkMAFSlLWl+13qdHlWoZAYAajIDAJWtPRL+TGLEfaoGcx7lDq4bOFgxZSAwk8gtsG05h6XBGACoyQwAVJbViTvY+0jbQN5N3JGvVc5hrVA7AdAc0h3nEpblFHAdnIoYAKjJDACU2i5EYziXdI3hYuqZYKedsOhe0gY9DwOfA9Yu5aj0fwwA0nEqTHoGAEphDPAu4CrSNnxPAl+l/il2hwMHAGeT9rHHXOBHRA+ESmAAUKzViT/oqcRxPQP8BphSZaV6mAGAirQpMajvcdI2/NcA7wVWLeWoirUVkcVwBmk/o8uBdwCjyzms/mQAUJyNiJGuKzq+WcBLq6tazzIAULeGEefH6cS0tVQN2gLgV8Du5RxWcqsBR5F+6uMjwBeI62tPcyBEc20IXEBMC1qR8cDvWv8+O8f21wcmAWvkql11FgKPAvcTF0CpLiYS3fwfIG0P3cPEGIIfEH8LvWIOcVwnETc3RwNvpPhHn+sB/0EMjDwDOAG4kAgO1CV7ALq3AbGUZ5bjPLyD7a4FfB64I+O261zmEndYr+rg+LOwB0Cd2h74HvF4LuU5fwFwEP11Y7chMZhvGmk/21uIwG18KUfVwwwAurM+K+/2X1E5IeN23wU83cF2m1TOBtbJ+DkMxQBAWawCvJlld46pyjPAicB25RxWbY0E3gpcTNrPeybwHWCbcg6r9xgA5LceEYl2csJ+O8N2v9DhNptY7gO2yPBZDMUAQINZH/gM5WS5+xAwoZzDapTnE6sUps4pcB7xCKJO0yhrzwAgn3WBm+n8RH3HENs9Msc2m1puofsLpgGAVuQlwK+JcSepzt9FwGmY5z6r1YGPEX8rKa8rDwD/TlyjNQQDgM6tTb6Rr/cy+JSWSaSNkutYvj7oJz00AwC1rUqMsbmWtOfs48CXgMnlHFbPGQ68GvgzkQAp1fc0n0il/KJyDquZDAA6sxZwPZ2fjDOJjGKDOSHHdpte5hODKPMyANDmwNeIpDopz9WriLE5Y8o5rL5Q1nf3T+Dd+N09hwFAdqsTJ1KnJ99sYO8htj0CeCzHtnuhvH+Iz2YwBgD9qb0gzymkn7t/SmtfSmc0kQb5MtJea2YAx1P/zIulMQDIZg0ie1enJ9wzxLrbQ3lBjm33Svl9hs9nZQwA+kuZz5E/RXGzVZTd7kTCpJTjNxYT145X0ufjN3otABhHROuvBzYpaJvd3Plnzf53YI7t90q5MuNntCIGAP2hrJHk5wJvwJHkddBOAPQQaa8/dxALHk0s57BWrp8SRhRtODHy81giCID4ck8F3kfMqc9jIvA3YNcO3zeXCH4uyvj6NTO+7mEi6VATjCVGYw8l67Gr/7wW+DTZetHymkUMFjuB5vxt9YNHgS8CXyFu6I4G9kmwn/baBl8Efgn8N5HIqC/0Qg/AMOBng2z7FmI+cKcmAFdkrP/AMgd4eYf7ek/GbZ+Y4ziqMoVsx3R3F/uwB6A3DQd+TNo7P7PJNc92RKA2i3TnxUzi0UDphlex0x5wCHDYIP++LZEBrJMgYDyRsa7TKSTziGj1gg7fJ2mZY4mguGiLgD8QAfr2RED9TIL9KI1biJ6AjYjESyl6bCYQ45KKeoScmQFAPkdneM3WRBCQZcrZOOAsOl+1az7x/PC8Dt8naZlVgU8UvM12d/Jm/GtKYDXTLOC7xM1deyXHxQVufzzw0QK3l4kBQD47ZHzd1sSd+WBBwDjgr8AeHdZhAZGG8pwO3yfpX21DcateXgG8k0ja004JrN6xlGUpgDcnEjQ9XtC2s4xfKpQBQD6dLK87WBCwGpGdaq8O978AeBPxyEBSd9YraDuzgL8A5+NS1P3gQeLm7dKCttdNgrJcDADyOavD16/occBY4EyGTtizvIVEl+JfO3yfpBUral72BGI57QeIeeWl39GpFGOBI4gMrRcTj2EbyWmA+Xye6AJau4P3TCGCgJcTUwTPoPMpJguJ7FV/7vB93RhNcd2jqbkymupgFPD2VrmOGEX+a2LArprreUQW0fcSuVqUQy9MA4R4Zv9Mxn0NLLcTz5A6fd9CIugoyqE56tArpZuRvE4D7D2vJf059ySRg37zko5JxRgOvI7o9U25kNBSom0slY8A8rsUeBWdT+mZAryiw/csJqYdntbh+wbzaIHbaprpVVdAfWdN4ONE4HYu0ZNn9r/6mkgslX4z0eP6anqwvey5AyrZZcTdQyeDAju1CHgb8NuCt9vPd5DdJAKSujFwUaHbiKlfdifXxwuAHxI3CScRM0R6lgFA9y4hX09AFouJJSVTLFx0H5Hkoh+VOYZCWpktgW8Qjc3PifUHVL5RRI/MucC1wOFEboieZwBQjBQ9AYuJ5/S/KnCbyzs54bbr6iFirQWpU48TabeLNob4W7+eWMvjEGBkgv3oX00iBnQ/SNolmO9PtN2uGQAU5xKKCwLad/6/KWBbg/k+/dcd/hkig6LUqYuJlLAfJd0jtL2A3xGNxmepYG54H3gZ0at6P3E9KCoPxECLiPS++9D5Oi09rVdmAazMHnS3cER7wF9ZtiUWo6hiNH7Z5WcFfF7OAug9WWcB/GHAe4ax7Fn+sxnfn6csIvKFpLo77RfjiEF9N5D2GvMo8GUiE2TbZhnfW/osgCr0egAAEcXnmSLYvvMv295E92bKP4yqy8+JnAbdMgDoPXkCgIE2A74KPJFxO3nL9UQCmrEFHXc/mAJ8m/Q3OZcReR9GraAOBgAD9EMAAJ0HAYuJwSdV2ZSYZpjyj6SKMp24aBbFAKD3dBsAtK1KrCh4dcbt5S1PA18nEtPouUYQK6SeAywh3fcwF/gRsPMQ9altAGAmwHQuJi4sfyW6nwazFHgfcTJV5X4i0dALiBGxLyWWpxyq7nWzmOiGu5UY7f9H0k7TlNrmAT9plRcDHyTSdhfR8zTQ6sDHgI8QA1q/S6wLsqTg/TTN2sC/EdfSyQn3cy/wPeDHwFMJ99OT+qUHoG2oMQFLgA+UVBd1zx6A3lNUD8CKrAscSwTYKXsF7mntZ60cdWy6XYg5+3NI9/kuIX8Cp9r2AFSh3wIAgN2Jrujl6zAPeFeJ9VD3DAB6T8oAoG0VYgXP80nbLT0H+AGwUxd1bYLRxGDpK0kbWD1N5GrYsou61jYA8BFAOS4nBqO8l+gRGEUM6PkRfRL1SX1uEfE46o/EzJsPEA3Y+IL3M5boBv83Il35CUTgsrDg/VRlE2JBnsOBdRLu50bis/sVaXI/9K1+7AFQ77AHoPeU0QOwIuOJqWk3Ztx/3vIIMTVtk4LrX6Y9KXfKZVFLREONewBMBCRJ1XiGyMa5IzFr6FSiESraesT4gHtJ08Cl0g6QbiIGVR9Mml7rR4CvEA31ASxbrbXnGQBIUvUuIVIAbwJ8CpiaYB8jiB7Sc4mFiI6hnrN8tiJ6LB4kBvdtn2g/1xBjsNqf+UOJ9lNbBgCSVB/TibvRzYmA4LxE+5kCfIsINE4Ctku0n6yGE3ff5wK3Ez0WKVZJnA/8ghgkuSuRIOzZBPtpBAMASaqfhcQjgf2IaW4nE4lnijaBZd3s7WluZQ4Ob0+TvJcYX5Pq8cQ9xF3+RsTgyxsS7KNxDAAkqd6uBY4CNiSS/9yXYB8D1za4H/gckVgnlfbc/ft5bu78oiwhelAOIXo8vgI8mWA/jWUAIEnNMBM4nkgBvB/RQ7A4wX4mESsRPkwEBC8paLujiR6Gy4h0yUcS6ZOLNpPoMdmOtJ9T4xkASFKzDLyz3Zq4s02RkrbdYF9Kdw32JKJHoR1Q7F5Q/ZZ3HdFTMqn18/ZE++kZBgCS1Fx3E8+2JxEj2lM92+60y375RwqfJc0jhYFjJXYm7vxN3JORAYAkNd98YkR7e3T7L0gzun3goL0V5RRoDyq8mbSDCtuzJbYg7WyJnmYqYEnqLdcQI90/RTTGRwIbFLyP4UROgf2BW4j1B7YF3gGsVvC+BroQOBE4nTRJk/qKPQCS1JumEc/eNwYOJF2Gu+2InAJHkqbxn0107T8feDnwe2z8C2EAIEm9bTHRXb8fcZf+bZrxnPwuohdjMjGo78Zqq9N7DAAkqX/cTqQA3pBoVG+ttjrP0Z7hcCDL5u6nmOEgDAAkqR/NIrrVt2fZXPkqu9VnED0TW7TqcyZ9siBPlRwEKEn9aylxx30eMZXwCOBo0mYBHOgaIhD5JWlSHWsQ9gBIkiAWBvockS//ECJjXwoD5+7vSrp1DjQEAwBJ0kALiAZ6D5Y10PMK2O404DiWBRjO3a+YAYAkaWWuIQYLbkqMyH8gxzYuJRr8yUQPw+MF1U1dMgCQJA3lMWJE/vOAD2d8z0PANsCeVD/IUCtgACBJymoRcEXG1z6BC/LUmgGAJEl9yABAkqQ+ZAAgSVIfMgCQJKkPGQBIktSHDAAkSepDBgCSJPUhAwBJkvqQAYAkSX3IAECSpD5kACBJUh8yAJAkqQ8ZAEiS1IcMACRJ6kMGAJIk9SEDAEmS+pABgCRJfcgAQJKkPmQAIElSHzIAkKRsdgHeAoysuiJqjMnAR6quxMoYAEhSNpOB3wIPAV8GNqm2OqqxPYFTgLuBD1dcl5UyAJCkzqwHHAvcC5wJ7AsMq7RGqoPxwJHATcDFwMHAKpXWaAgGAJL63eKc7xsB7A+cC1wPHAWsVlSl1BjbAScC04CTgO1zbmdJYTXKyABAUr97qIBt7Ah8n2WNwHYFbFP1NRw4gAj+bgLeD4zrcpv3d/n+jhkASOp3dxDd+UWYwLJu4LOJRsLrbO9YD/gM8ABwBsU+/jm7oO3U2oPA0gxls5zb3z/j9i2WlGU/8tk64/bvyrl9rdjBRBdsinPhXuCTwFqlHU1aLyTbcV9bVQUT2B34FbCANOfI3UTwWCojU0mCU4EPAHMTbHsz4CvAw8CPiemEqr9VgfcC1wCXAW8HRiXYzw3Aq4FZCbY9KAMASQrfB7YBvgE8nWD7Y4D3AFcDlwPvBEYn2I+6sznwNSJg+xGwc6L9XAscDuxK9AD0BR8BWPqh+Aig2UYDhwHXkfY8eZTIKTC5nMMqRC8+AhhGPM8/BVhEuu97QWsf+5ZzWPVjAGDph2IA0Dt2IUb2zyPd+bKYGFF+APXPKdBLAUB70OYtpL0eTCMCvY3KOaz6Sh0AvCzj9i2WlGV38jEAqK8NgP8CppL23LkVOJpILFNHvRAA7EgEdbNJ+11eABxEzRMClSl1ALAm8GzGfVgsKcp88l+8DQDqbyRwCPAP0p5Hs4DvEuMS6qSpAUD7e7uI9N/biZgLYoVSBwAAP824D4slRTmR/AwAmmUHYvBgyjvJJcD5wJuox51k0wKADYDPEt3wKf/ubwM+RAXT+ZqkjABgInHyVd0QWPqvXEF3GcEMAJppdWLVtztJe349CPw7sG45h7VCTQkA9iIWb1pIuu9jEXAargeRWRkBAMBY4HPEhTJVgg+LZSkxgOsO4D+IqV7dMABotmHAq4gscYtJd87NB34BvLicw/oXdQ4AxgJHEGszpPybfwz4H1wRsmNlBQBSExkA9I5JxE3I46RtjK4hRrKPLeWo6hkAbEGMsn8iY93ylquJz3rVcg6r9xgASCtnANB7RhOphi8lbeM0Azie9NfOugQAwyln7v781j72SHw8fcEAQFo5A4De1s4pMJd0DVY7p8DBxJLFRas6AJhI3IXfmrEeectUogdnnUTH0ZfuJduHv3VVFZQqtBPZ/j5uq6qCKsR6xJiRh0jbiN1JDE5cvcC6VxUAvAD4IWmDpyXAOcDrSRM89b2byPZF7FNVBaUKvZZsfx9XVVVBFWrguvIpByvPA34OPL+AOpcZAIwiejLOzbjPvGUm0TPj3P3EsibPeE9VFZQq9AGy/X30xdrhfWZb4AQikUzKxu4fREKckTnrWUYAMAn4PDA9477ylpuA99Hd1F114Edk+2J+V1UFpQqdSba/j+9UVUElN554xp21tzRvmU6MnN+4w/qlDAB2IXoqUs7dX0z8nTl3vwIfI9uXNJPyprVIdTCB7M83319RHVWe9gp1p5F2lPtCImHOXhnrVXQAMI64Cy8j4PlvondBFcl68iwlBslI/eILZP/b2LaiOqoaGxIj0h8jbSN5G3AMsNogdSkqAHge0QPxZOJjas/d7zZJlwowguxf+AzixJd63aZkzyc/Fbsu+9Vo4DDgStI2mk8D3wC2XEEdugkARgAHEiPtUw56nAP8gJhVo5r5Hp1Fbz4KUC9bFfgn2f8m/reaaqpm2jkF5pCuIV3CspwC7YWI8gQAqxM9C1mngectdwPHAmt1/nGqLJ08BlhK5NV2lKZ60QRiRH8nF+QdKqmp6mpt4FPA/aRtXO8BPkGsdZA1ANgV+AkxDTFVvRYDfwFeQ0yrVANcQGdf8vWYHEi9ZQfgFjr7O/hzJTVVE4wgEtik7l7PushRysWQlgJPEb1hWxTx4alcL6Xzk/RZYu3trSqor1SUbYnpsJ2O7F5M3FFJQ5kCfJuYTZWyEa6iXAscjo+Gu1b1QKJfAu/I+d7biIQW04FHiRNDqqNhROrXScDLyB/AngwcVVCd1B/GAYcCR9PsLHcLgT8QiZIurbguKsi6wDSqjygtlrqX+4E1kPLbB/g90ZNa9fmctTwM/CewfoLPQzWwD2mTXFgsTS8LgBcjFWMjIs3uI1R/bq+sXAi8mWUzD9TDDiXtoBWLpallCTHvWypaWQvtZC3tBYt2THnQqqePYBBgsQwsi4kUqVJqOxMDU1MutbuycjvwYWBi8qNUrR0KzKf6C6/FUnWZS3SBSmVaE/g4Mec/5fm9CDgd2I/qB6OrRnYhsjlVfQG2WKoqt2GyH1VrOLA/cBbFzud/HPgSMLm8Q1HTjCUWvrA3wNJPZSFwPIMvxCKVbQti0Z4nyH9utxfkce6+MtucyHVtIGDp5TIP+C6wCVJ9rUY04jeQ7byeD/wM2K2Kyqp3rAl8ADiftDmlLZayyhwiZeuRxEIpUpPsBfyW6LVa/ty+n1ibYJ2qKqdsmjj4YgzwAmJdgM2B8cRqalKdzQWeIVZDu41Y22JBpTWSurcBcBBxPZ5NzN8/jxg3IEmSJEmSJEmSJEmSJEmSJEmSJEmSJEmSJEmSJEmSJEmSJEmSJEmSJEmSJEmSJEmSJEmSJEmSJEmSJEmSJEmSJEmSJEmSJEmSJEmSJEmSJEmSJEmSJEmSJEmSJEmSJEmSJEmSJEmSJEmSJEmSJEmSqjKs6gpIGY0DRgMTgVWBMcDqrd+tBoxv/fcEYGzrv9do/Ry7kn+fBvwZOAGYXd6hSFL1DABUlDyN8oTWf49vvX506/1jWtub2PrduMR1vwPYD3go8X4kSWq8lwKnAY8BS3ugXAEML/QTkop3IFD8eVYAAAkrSURBVHAe8ATwKHAG8bcoSaX4NLCE6hvtosu+RX5IUoGGAd9kxeftYuCY6qomqV/sQ/UNdaryXwV+TlJRRgA/YfBzdzGwR1UVVDPZ5alOva/qCiQ0uuoKSMsZCfwGePcQrxsOfDx5bST1tYep/k49VXlrgZ+T1K1ViVkqWc/fadVUU1K/mEP1DXWKMpW44Ep1MA44n87O4emV1FRS33ic6hvrostsYO8iPySpC2sCl9H5efznKiorqX88QPUNdlHlWWIa1XaFfkJSflsAt9P5ubwEeEUF9VWDrVJ1BdQ4cyra73xgHjATWEDctc9u/ffM1r/NB2a0fjcHeKb137NW8O+ziW7/hWUehDSI3YE/AevkeO8XiEcGUmYGAOpUEQHApcCZwFyiMX669XMu0VgvIBrvOa3/nlHAPqU6Oxj4GfnGoXwW+O9iqyNJz/UPuu96XwQcW3bFpZo6hpjHn6fb//9VUF9JfeqvFPcM/qdE3n+pH40GTiZ/EH14+VWW1M9OpdiBeNcAG5d6BFL1JgGXk3/w6mHlV1lSv/sZxY/Gnwq8qMyDkCq0NzFnP8/fynzgjeVXWZLgBIoPAJYSo/TfX+JxSGUbBnyS6L7P8zfyBLBn6bWWpJavkiYAaJdTgdVLOxqpHBOAP5D/7+JOYMvSay1JA3yOtAHAUuBefCSg3vFi4B7y/z1cBKxVeq0laTmfINtF66dEUpO8F71niWDDFSvVVCOI6a4Lyf93cAquUSGpJj5AtgvXj4kL4Ncyvn5l5Sxgw1KOTCrOZkTCq27O/c8T4wYkqRbeRbaL1+8GvOcwYpBf3gvhUzjtSc1xGJGeOu/5Pht4e+m1lqQhHEy2i9jyK5O9iFivvJs7ojOxN0D1tSHwR7o7x+8Edii74pKUxWvJdiG7YAXvnQRclfH9g/UGHJrkyKR8hgFHEWtWdHNunw5MLLnukpTZ3mS7mF25kvePBr6TcRtD9QZMLvrgpA5Nofv1MRYB/47P+yXV3K5ku6jdPMR23kjczXdz4ZwD/AcRVEhlGgl8hu7GtiwFHgf2LbnukpTLtmS7sN2bYVsbA5dk3N5g5S7i0YRUhn2Bm+j+vD2PeCwmSY0wmWwXt0czbm8VYr5/nuVQV/RYYNOujk5aua2Ic6zb83Q+kR/AHBeSGmVtsl3kZne43deQf4GU5R8LfBEHU6k4awDforuEPu1yE7BjudWXpGKsSrYL3RI6H9S0FvCrjNsfqjwBfAzHByi/UcCHiHOp2/NxCXA8MKbUI5CkAg0je3f9ajn38UbgkYz7GKo8QCQvsrtVWY0EjiDOnSLOwfuBV5V5AJKUyiyyXfjW7WIfawO/zbifrF2vb8RAQCs3gsjidzfFnHOLiEcH48o8CElKKevd+aYF7OsgYkBhUYHALcA7icGHEkTD/zbgNoo7z24AdivzICSpDPeS7SK4bUH7W514froo436zlPuAY3CltX42mrjjv53izqt5xKyWUeUdhiSV50ayXQyLvgPaGbg8476zlqnAx4mR3uoP6wLHEUl4ijyX/gZsWeJxSFLpsjbC+yTY93Dg3yj+4j0HOBl4foI6qx62Br4HzKXYc+cOYP8Sj0OSKnM+2S6Mr0tYhzWB71PsY4F2uQh4CzEaXM02BngHka9/CcWeJ08TU03t7pfUN84g2wXykBLqsi3wp4z16bRMJZIKTSnhOFSsbYFvAk9S/HmxiOhJWKe0o5GkmvgN2S6U7ymxTnsAl2asV55yBXA0kaxI9bQWsSzvxaQ7D84AdijrgCSpbn5ItovlByuo2+uJqX6pGoAFwB+JnALOIKjeeGJa518oJlXvysrZOK1PkjiebBfNT1ZUvxFE78NdGerYTZkN/J5ogJxFUJ4JwJuBUyl+QN/y5QJgz3IOS5Lq70tku3geV1UFW9oJXrJOW+ymLATOAd4PbFTGwfWZrYCPEkvoLiD993kx8PJSjkySGuQzZLuI/m9VFVzOMOLRwJWkbzja5VbgO639ujJh58YTK0R+E7iTcr6zxcTjnZeUcHyS1EgfJdsF9XtVVXAQ+wLnUvyUsMHKs8BlwH+39j8h+VE2z+rEXPqvAVcRn1lZ389cYkqpSXwkaQhHku3C+rOqKpjBNsAJZF/YqOg7zZuBHxGrzu1APK7oFyOBFxAJnU4EriVNPoehyuPEY6puFq2SpL7yTrJdYH9fVQU7MIFY873IfPB5yixiGuNJwIeBVwDrJTzusqwLvJSYnncScDXlPMNfWVkC/B14O5EkSOpbw6qugBrpjcSz0qGcTTzHbYJhwH7A+4gMhnXJ7vYksZTxvcT69Pe3fj4APEzcOVdpFLA+MfBxI6IbfWti0N5WRNd+HTxB9Ej9gEjdK/U9AwDl8Upi4ZOhXEzc/TXN2sBbiZXiXlhxXQazCJjeKk8QwUL75+NEqtqnW6+dSdz9PtN63xxgLM+9BqxK3BmPJQYvLl/WJnomJgEbEI1/XS0GLiQetZxG9DxIkrqwB9m6W6+uqoIF2ppY3vU+qn1EYMlebgGOJQIUSVKBdiLbhfi2qiqYwHBiXvh3gIeovpGz/Gu5HvgUsOlKvj9JUgG2IttF+cGqKpjYMOLRwJeIIKfqxq8fy7NE9/4niF4aSVIJJpHtIv1kVRUs2TZEl/N5wDyqbxx7tTwO/JxYqrkugwulxnIQoPKYCMzI8Lpn6L+kN6sSueP3bZWdiMcH6twcYmrkRURO/quIgX2SCmAAoLxmEelaB3MHds+uDexDpJd9MZEAZ3SlNaqvZ4BLgH8Qjf4/qX6aoyRpOb9m6C7br1VWu/oaBbyISPbza+Aequ9ar6LMJhr7bwPvIrIhrtLF5yqpQ/YAKK8tiGl+K3sWO5W42328tBo110RgO2D71s/2f/dCJsBniSRGtxOL+txIpP69A7vzpUoZAKgbuwG/BTZb7vc3E+u1m3GtO2sTj1A2bZXJy5W6PEp4jEhG9HCr3E1893cQ+ROera5qklbGAEDdGg0cCOxMXOivIlIA++w2rWFEFr61W2Wd1s+1BvwcT2T0GwmMI7rYxxODEicSq+Atnx1vHjC/9fuZA8qMVplJzO6Y2irTV7ANSZIkSZIkSZIkSZIkSZIkSZIkSZIkSZIkSZIkSZIkSZIkqd/9f+5+ZmdHv7nfAAAAAElFTkSuQmCC;" parent="1" vertex="1">
          <mxGeometry x="556" y="-572" width="125" height="125" as="geometry" />
        </mxCell>
        <mxCell id="Adv5_00LyATFaqMkPPBY-3" style="edgeStyle=orthogonalEdgeStyle;rounded=0;orthogonalLoop=1;jettySize=auto;html=1;exitX=0.5;exitY=0;exitDx=0;exitDy=0;entryX=1;entryY=0.5;entryDx=0;entryDy=0;strokeWidth=3;" parent="1" source="Mpb16fFOWcYmd3spKum3-245" target="Mpb16fFOWcYmd3spKum3-211" edge="1">
          <mxGeometry relative="1" as="geometry" />
        </mxCell>
        <mxCell id="Mpb16fFOWcYmd3spKum3-245" value="&lt;b style=&quot;border-color: var(--border-color); background-color: initial;&quot;&gt;&lt;font style=&quot;font-size: 16px;&quot;&gt;Training Data&lt;/font&gt;&lt;/b&gt;" style="rounded=0;whiteSpace=wrap;html=1;fontSize=14;strokeColor=#006EAF;fillColor=#1ba1e2;fontColor=#ffffff;" parent="1" vertex="1">
          <mxGeometry x="377" y="-583" width="118" height="45" as="geometry" />
        </mxCell>
        <mxCell id="Hn2AYB9xyL6W7bCfkAhp-1" style="edgeStyle=orthogonalEdgeStyle;rounded=0;orthogonalLoop=1;jettySize=auto;html=1;exitX=0;exitY=0.5;exitDx=0;exitDy=0;entryX=1;entryY=0.5;entryDx=0;entryDy=0;strokeWidth=3;" parent="1" source="Mpb16fFOWcYmd3spKum3-246" target="Mpb16fFOWcYmd3spKum3-211" edge="1">
          <mxGeometry relative="1" as="geometry">
            <Array as="points">
              <mxPoint x="377" y="-235" />
              <mxPoint x="338" y="-235" />
              <mxPoint x="338" y="-755" />
            </Array>
          </mxGeometry>
        </mxCell>
        <mxCell id="Hn2AYB9xyL6W7bCfkAhp-3" style="edgeStyle=orthogonalEdgeStyle;rounded=0;orthogonalLoop=1;jettySize=auto;html=1;exitX=0.5;exitY=1;exitDx=0;exitDy=0;entryX=0.5;entryY=0;entryDx=0;entryDy=0;strokeWidth=3;" parent="1" source="Mpb16fFOWcYmd3spKum3-246" target="Mpb16fFOWcYmd3spKum3-266" edge="1">
          <mxGeometry relative="1" as="geometry" />
        </mxCell>
        <mxCell id="Mpb16fFOWcYmd3spKum3-246" value="&lt;b style=&quot;border-color: var(--border-color); background-color: initial;&quot;&gt;&lt;font style=&quot;font-size: 16px;&quot;&gt;Test Data&lt;/font&gt;&lt;/b&gt;" style="rounded=0;whiteSpace=wrap;html=1;fontSize=14;strokeColor=#006EAF;fillColor=#1ba1e2;fontColor=#ffffff;" parent="1" vertex="1">
          <mxGeometry x="377" y="-253" width="118" height="45" as="geometry" />
        </mxCell>
        <mxCell id="Mpb16fFOWcYmd3spKum3-254" value="" style="shape=image;imageAspect=0;aspect=fixed;verticalLabelPosition=bottom;verticalAlign=top;image=data:image/png,iVBORw0KGgoAAAANSUhEUgAAAgAAAAIACAYAAAD0eNT6AAAABHNCSVQICAgIfAhkiAAAAAlwSFlzAAAOxAAADsQBlSsOGwAAABl0RVh0U29mdHdhcmUAd3d3Lmlua3NjYXBlLm9yZ5vuPBoAACAASURBVHic7N13mF1V2ffx78wkIT0hAUINvbfQQUEUEOmiqKA0Kz4KKoqK7dWxYRdBQRBBAQFpKkV4kCK9hiZFSoCEQEhCElJIT2beP+6ZJ5PJmZlz9mq7/D7Xta5gzDnnXvvss/faq9wLRERERERERERERERERERERERERERERERERERERERERERERERERERERERERERERERERERERERERERERERERERERERERERERERERERERERERERERERERERERERERERERERERERERERERERERERERERERERERERERERERERERERERERERERqaEodgIhEtxtwELAxMLTj75YCb3f7d0uA+cBCYFHH/78UmAMs7vhzdsefb3X82RY4dhHxRA0AkerYHjgX2DvgZ8zFGgJvAtM6/nwTeKPjzxnAq8AUYFbAOESkD2oAiFTDgcC1rHjiz4MFrGgMvAZMBl4BXgZe6vg79SiIBKIGgEj5bQ6MB4anDqRBS4CJWGPgZeC5jvJf4PV0YYmUgxoAIuX3D+D9qYPwbA7wPPAs1iD4D/AkNtQgInVQA0Ck3NbFutKr8lufjjUEHu/48wmsobA8ZVAieVSVi4JIVR0L/CV1EIm9DTwKPNylvJo0IpEc6Jc6ABEJav3UAeTAUGDfjtJpKvAIcG9HGY/NORCpDDUARMptUeoAcmpt4PCOApbr4GHgHqxBcD8wL01oInFoCECk3A4B/pk6iAJahvUQ3N5RHsCSH4mUhhoAIuU2CEvIMyx1IAW3AOsduB24FZtg2J40IhERkT58H7tZqfgr04BLgA8DI+r/KkREROIZhHVnp75plrUsxnoGTsOSLomIiOTGWsB9pL9ZVqE8DfwI2AUNs4qISA70B76ApdVNfZOsSpkEnAW8B2jp+ysSiUetU5Fq2hLYFBjS8b/7s+pGQcOwpcIjgGZgJHbNWB3bV2BEtz810bB3U4Grgb9iqwra04YjVacGgIj40gKsCazRUcZ0+d9rA+t1lHU6/neVTQKuxBoDjyeORSpKDQARSWEA1gjYANgI2ATYuEtZn+p0mT+HrSi4FNu3QSQKNQBEJI/6Y42CrbDhii27/PfohHGF1IatJrgE+BuWe0AkGDUARKRo1gR2ALbvKDsA22LLHctiLnANcCGWlljEOzUARKQMWoDNgN2APYDdgXHYUEPRPQX8AdvVcXbiWERERHKvH9YzcBLWrf4M1s2eemlg1rIQuAo4wOdBkupSD4CIVMkarOgh2APYk2Km8n0S+B1wGdYwEBERkQa0sKKX4CpgFumf9Bsps7FEQxt5Pi4iIiKV0oLNIzgdm5G/iPQ3+XrKMuBa4N3ej4iIiEgFDcbG3H8KjCf9jb6e8gRwAjYHQkRERDzYBPgycDf21J36Zt9beRnb+6Ez3bOIiIh4sBbwaeBG8j1UMAP4QUe8IiIi4tFg4HBsueFs0t/0a5VFwPnYfgwiIiLiWQuwNzY7/3XS3/i7l8VYQ2XTUAdARESk6lqA/YGLyF/PwGIsw+AmwWovIiIirMaKYYL5pG8AdJYlHTFtHK7qkkfKBChSHv2BoR1lADASGMiqm+QMY+UlYotZsfPcIlZkllvQ8f+B3bCWdPs7yW514KPAJ4FdEsfSaRHwe+AnwJuJY5EI1AAQyac1gTHAusDa2Azu0cCojrJ6RxmFpbIdSbzf8wIsY95bHX92/e/ufzcFmIztbie17YA1BI4jH1sdv43NX/gl2nyo1NQAEIlvCJa6dWNgw47/3hDYAFgfu9mXYRe7ruZgDYFJHX9O7va/X8d6GKpsNeAI4LPAfqS/Pr8FnAH8FvX6lFLqE0ykrAZgs6y3ArYAtgS2xrasXSNhXHnVBkwFngf+i+3c91zHn9MSxpXKFsD/AB/HenpSmgh8G7gCmzMgJaEGgIibJuxJfkesK3cHYPuOv1MqVj9mAc9iDYOujYNXUwYVySDgaOBz2A6GKY0HvgbcmTgO8UQNAJH6tWBP8bsDu7LiZj88ZVAVNge7KT3cpUxJGlFYewKnAkeRtnF5A9YQeD5hDOKBGgAiPdsAu9l3ll2wGfSSX6+zcoNgPOWbgLgBcDLwGWwSaApLgLOBH1K+4ysiFbQ1ti/8pdjktNTrs1Xcy3Js+ODPWN7+MiW9GYwNDUwg3fF9A/gE0By4riIiXm0LfAnbR30a6W9WKnHKy8AfgY9hSyyLrgWbJ/AY6Y7pQ8AeoSsqIpLVGOBY7GkwjznaVdKUp7F17+/H8ikU2YHAbaQ5jm1YwyoPuQxEpOJagHcBPwMexy5QqW82Kvkuy7C5Az/GnmiL2rW9B/BP0hzDN7Hli5pjJiJRDcHyrZ+PjU+mvqGoFLu8ieXJPxxL1FM0OwJXkabxezc2zCYiEsy6wCnArdjs5NQ3DZVylrnYzfRY0ifnadTOwD+I3xBYgmUT7L4fhYhIZusCX8CeMpaT/uagUq2yBGtwngKMpTh2A/5F/OP1AjYcJyKSydropq+Sv9KGnZMnUZyegXcD9xP/OJ2LcmmISJ0GY8u1bgKWkv5in/cyG1vS+BLwBJYZL+t7TcFS707GNoZJXbcilEXANdiKgiJs6HQ48CRxj9Ek4OAYlZPeaZam5FEz9oRyPJb2tIpPDEuxCWhvYJvkTMeWLs6k9ja8c4CFNd6nFfhexhi+3/H6roYDQzvKMGzZ3FDsyXddbKnlOh1lDLAe1oirolnAlcBfgAewm18eNQMnYln91ov4uZdgqY3fiviZ0oUaAJInY4FPYZnFNkgcS2gLsAxuk7Dd1iZ1KZOxm74PrfhtAGQxFLuxrNXx58bYroibdvwZ86aTyktYQ+Av2PeeR4OB04CvY99ZDK9hv/l/Rfo8EcmRfsAHsC7+so3rL8cu9tcBv8DGiN8DrO/lyNWn1SH+1kgxDsY2VfoAtsnMeVgymzIma2rrqNsHye9ukWsDf8ByIsQ6JudQ3Z4ikcrZGFse5DJGnacyE7uwn4k90eyG5SRIrZXsdWqNHu2q1gQOAL6K7dHwH8qz1HMy8P+w4ZI82gHb+jfW8XgB2/FQREqoCdgfeyIu8tP+TKzL8ifAh7DGTF61kr2erdGjrc9q2Lr2TwC/wWbgLyD9eZG1LMHmCuzr8yB5dDTwKnGOxTIsC2P/KDUTkeAGAidgT2+pL7ZZykvYhKWTsMxmRZo700r2erdGjza7fth3cxL2XU0k/XmTpTwHnE7+lhMOxs6HhcQ5Do9g80NEpKDGYmPfs0h/Ya23dOaC/xlwGOn2W/ellWo0AGrZFGt4ngc8RbF6neYCvyN/2xdvgs3XiXEM5mBZF0WkQLbHnsKKMFbbhq2XPxNbEz0iwPFIqZXqNgC6GwV8GLiAeF3armUpcBk2Hp8nHybeJM1LqOZSYJFC2RfbgSzvu+7NBK7Ang7HBDkS+dGKGgA92Rpbh34z+Z9D0AbcCOwd5EhkMxw4mzirBV4Edo1TLRFpxGGsSHSS1/IY8ANgL2yb4KpoRQ2AegwE3gv8Enia9Odrb+Ue4FDyMxdlF+z3Fbrei7C9F0QkB4ZjM/pTXxBrlaXAHcAXgQ1DHYACaEUNgCw2B76BTUZLfS73VJ7E0mTnIZ9AP+CbxJkk+Fc0JCCS1EDgIdJfBLuWxcANWNf+6HBVL5RW1ABwtSHwZeBe8jmR8GXgM+SjIbAVdpxC1/k5bK6RiCRwJukvfO3Y+OO/sOQ7eVs6lQetqAHg07rAycDtxMuUV295Hluzn3pooBnreZtH2PrOBz4ep0oi0mkdbDwu5cXuAexCvFbguhZdK2oAhLIWNonwCdLf/LuWx4CDAta7XhtjSZpC1/d8irHzokgpfJ40F7bXgLPI35KoPGtFDYAYtgV+im3ilLoB0FnuJ312wSYsOdN8wtb1PvKbUlmkVC4k3kVsAbYOeH+sa1Ea04oaADH1B94P/J385MG4nvTj5dsCjxK2nq+jvQREgrua8BetZ4AvoXF9V62oAZDKmtg5/CTpGwHLsa2IU2YW7A/8kLBzJxYBn45VIZEq+h1hfrwLsR3f9olXldJrRQ2APHgXcBW2PDVlQ2AxtonV0LDV7dXehN+r4Vy0oZBIEMfj98c6GVtDvEbMSlREK2oA5Ml6wI+AaaRtCLyG5RBItWJgJNYgClnHW1EPooh3w7CNOlx/oPcBHyEf65fLqhU1APJoNawhnTqXxt3AjoHr2ptPAW/XiMtXeQ7tKiji3alk+0EuxcYildc7jlbUAMi73bGJrotJ0whYBpxDup0vtwQe7yNGlzKD9KshREqlCbiI+n+Ei7CL3OYpgq2wVtQAKIq1saWEoZfM9VRmYpMWU+yVMRBb4huqbkuBz0WrjUgF9MM22OltudMM7Eai8f00WlEDoGjWAn4MzCZNQ+BR4B3Ba1nbcYQdEvgx6TMlipTKhtjEpruBl4BnsXXQJwBDEsYlagAU2QhscmyKCYNt2Ez6FJvubI0tAw5Vt0tQ5kARqYBW1AAousHAF4BJxG8ITCJNWuEhwOUZ4q233IrtZioiUlqtqAFQFv2xXf8mE78h8GfiL6lrAk4n3A6MT2CbO4mUwo5YV/yN2JacfwO+BoxNGZQk1YoaAGUzCPgqNmkvZiPgDeCDEerX3SGEmw8xCdgmXlVE/FsHuBIbt6t1ki8CfobW21dRK2oAlNUIrMEfctJcrXIVMCZC/braClvTH6I+M4E94lVFxJ+jsZn29Zzot6D0mFXTihoAZbc2lp475uZDM7AZ+zGNBG7yEHutMg84IF5VRNyMxp76Gz3Rz0oRrCTTihoAVbEJlmQr1Jh5rXIDtmwxlhbg5wHq0Y71lKYY4hBpyOHYeFyWk3wplnlLqqEVNQCqZifgHuI1AqYC74tSsxWOxbYK912XZcAnI9ZDpG6DgfNxP8nPiB24JNOKGgBV1ITdJF8jTiOgDfgVcdfX70qYFRFtwFci1kOkTztiCXZ8nOD3RY5d0mlFDYAqG4qlF461z8CjxO1hXBt4IEA92oFvR6yHSE1NWH7uRfg7sV+KWgNJqRU1AAS2AP5JnEbA28TtRh+ELXkOUZcfRKyHyErWJMyP9smYlZCkWlEDQFY4HJhAnIbAldjM/RiaCbeZ0E8j1UHk/+xNuPG7yyPWQ9JqRQ0AWdlqwHeAhYRvBEzErmWxfJkwqyB+jTYRkgiasOx9Swn3ozwqWm0ktVbUAJDatsIyhoZuBCwFvkW8G+hRhGnc/DZS/FJRo4DrCftjfBLrLpNqaEUNAOlZM7bR0DzCNwT+RrzdBd9FmPTBX48Uv1TMrsArhP0BzgW2jVUhyYVW1ACQvm2EZQoN3Qh4lnirBMaRPV9KT2UxsFmk+KUiTiT8eNzrwG6xKiS50YoaAFK/jwOzCHstmgO8P1J9NsVWPfmMX9lUxYv+wNmEb3X/g7jpOiU/WlEDQBqzNnANYa9JbdgSuxjDketgQ5++YtcyanG2FnAnYX9kc1Fay6prRQ0AyeZo4C3CXqNuJM5SwdM9xtyGraQQyWQX4FXC/rDuATaOVSHJrVbUAJDsxhL+QeUFYLtA8Y8Crg0QsxoAkslRwHzC/ZgWA9/Ads0SaUUNAHHTgi3jC7nd8DzgQ57j3ocwD1pTPMcpFdCE5ZZuI9yP6Cls5qtIp1bUABA/dsee1kNdv9qwrnpXLdi5uyxQnJd6iFEqZCB20oT84fy643NEumpFDQDxZyhwIeGuZe3A74F+GeMbC9wdMLY2YM+MsUkFrYntvhfqhJwFHBGtNlI0ragBIP59CJhJuOvajVhjoxEfDBxTO/CnBmPKNeU2Dmsz4GbCJY4YD3wESyAk1dMPGNFRVu/4c3iXvxsBvA94Z8b3vw+4FVu3PbfjzzlYhrW52AzxN7OHLwW3PnAVsFeg938U27zojT7+3SDgTOCzgeLoNAHYGZuvUApqAISzB3AD1gMQwrnAV7BJf1I+g7BVHOt2lA2w9cydf64PjCF9WuclwDRs46rOP6cDk7EJWC91/HdbqgAlqAHY8OPJgd5/EnAIlkGwlu2AvxI+w+lSrCH9SODPkRI4nHAz/ecCx8SrigTUjKVgPRDLx/474F/YDmohJ4vGLouA/2IN4jOBU7CeiXVdD6DkxnGEu+a9Bbynxmd+HlgQ6DO7l6+5HR6piv8h3OzTp7AdvKR4hmBPEF8E/gw8QZztWPNeZgC3Yw2DT2A5MjSZtZh2AF4kzHmyGGtkgK3t/3ugz6lVbiF9T5sUwHcJdxJeDAyOVxVxMBjbA/1LwCXAM4RrFJaxLMVSt56H5abfCg1XFsVIwu1o2ob1kk0O9P61yjQsNbJIj5qA3xDmBFwGnBqvKpLBMOBg4CfYxLmQCVOqWmYC/8Qa2ftjcyQkn5qA71D8Rm8bcJDnYyMl0w97Og9xAs5GJ2AerY7N8/gl8DD2xJr6YlW1shC4A8tQtwfKfJlHBxJ+WV7I8iv/h0TKZCBwHWFOvhfQeH+ebI+lWL6H4j/ZlLHMxna9/AK2Bazkw+aEzR4YqozHVjiI1DQEewIJcfLdhk10kXQGYd3652Cz8lNfkFQaK08DZ2BZ2zSBK63RwF2kPyfqLfOwhotITcMIl27yHLKnwRQ3I4ATsUlMITdsUolb3gAuwIZtNHcgjQGEGyr1XU4MdAykBEYA9+P/pFuKLRGTuAZiN4ZLgLdJf/FRCVsWYNnrDgf6I7F9CVhO+vOgp3JluKpL0a2OTfryfdLNBQ6IWI+qG4DdAC7DuvtSX3RU0pTpWI/b3miZYUzHkM8cGBOwVNoiq1gdy03t+6SbiuWXlvB2xnYam0X6i41KvsokbM5AqH07ZGV7YWvsU3/vnWUJtt2xyCqGAQ/g/6R7Ec1YDm0YtknIeNJfZFTyX9qwyb0fBVZDQtqc/Ay7nR64rlJQg4E78X/Cjcc2c5EwdgHOR138KtnLW9g5tCPi21hsSW3q77gd+DcVzSOhca/eDcKyj9XaiMLFrcBRlGhbyZwYBJyA7ccwLnEssSzHkq3M6vhzZpf/PQfr2qTjvzs3GJrd8XedCYw61zv3Z+U92LtuLzyyo3T+9+pYA7Yqa6XvA87CctAvSxxL0X0Y+AN2HqU2HbtW9LXlcCmpAdCzziQ/B3p+3yuw/OZL+vh3Ur8x2HaknwPWSByLT0uwvOcTsTHqSR3/PRG7YM3AnlJTGtNRNsBypq+PbVe8CTaePpZyPV1NwvLRX4A1qqR+g7FG1KdTB9KhHTgMuCl1IJIv/YEb8d/VdCZKSuLTtsAfse1mU3cjupQZ2Ljz2cBnsFnp61GOc2UAltHyCOA0bBLmXVgvROrj7lLmYd+XJg3WZ0fgWdJ/b13Lr4PWWAqpGXtKD3HCfSViPcrsvcDNrOjSLkpZhm0DfDG2v/iBwLqej02RbAwcCXwP+BvwMum/o0bLcmxYYFfPx6YsmrD0zHlb9vcomuQpNYTa1a+zfDNeVUrnAOAh0l886i3zgHuBn2J5B1b3f0hKZzj2Pbdic2UWkP57rLfci//5QkW2BuG2BnYpb6N9VqSGHxLnBFRPQGMOphg3/onY0/1nge0oRxd+av2xfP5fxjb7KcLQwW3AviEORoHsB7xO+u+iVvl4uGpLUZ1K3JNQjYC+HQQ8SPoLRk9lIXALdnPaOtAxkJX1A96BDRvcS763Yr4buxFWST/gx+Q73e9JwWovhXQcacaT1Qio7b2ESbzko7yATf46BJvVLGkNB94PnIetjEh9ftQqtwA7hToAObIRYfZJ8V2WYr9fEfYHFpPuZFQjYIXtsMl9qS8Q3ct44Osoa2PeNQPvBH6B5XVPfd50LcuxvSc2Dlb7tI6mGMMznWUeSsFeeduTj5O26o2AtbHEIMtI/110lsexCZu66RfX9sB3gadIfz51lsXYROM1A9Y7piHAhaQ/rlnKFGBD/4dEimB9LMlK6pOws1SxETAY+A75Sdf7JPBtYIuQlZYkxgG/JD8T0+Zg+eeLnElxHPBf0h9Ll/I0+chIKBGNAP5D+pOve6lKI6AJOBF4jfTHfBY2pr9D0BpLXrRgywz/jG3Dnfr8ex6b7FokTcCXKH4Crs5yB8VuiEkD+mHri1OfdD2VsjcCtsdmb6c+zncBx2P7B0g1DQY+QT6WmF6HpU/OuzUJkyU1dbkEpcavhHPwe+KEGEYoYyNgCPBzLL99qh/5dKwbeMvAdZXi2Yn0u0cuBH5AfleX7I+Nm6c6PqHLD/0dKsmjU/B7wlyM/VhD9CiUqRFwBJYkJ9UP+2HgGNTNJ30bjm0qlXKIcCKW/Cov+gM/Ifza/ieBlwJ/Rl/lU56OmeTMgfhNGnIT9sMA60ZWI2BVY7HsbSl+yMs7PvtdwWspZdSEXTP+Rbqb0aWk391yE8In42rD5uGcHvhz6ilL0DWjdLbCtk31dZI8hHVpd6VGwApN2Pa8bxP/B7wA23FOM/nFlx2xMeIUw1fTsN6rFD6KrVYIWb83sX0yxpGfSYVTsVViUgIjsZm2vk6O5+l5Da8aAbau9jbSXCi/S/onJimv9bEkQylWD1xPvJvSUOBPEep0B7bt9RDyt5zwQbRbYOE143fG6hT6zuRV5UbApwj/xNC9zMC6Drv3yIiEMho4g/gTBucQfox6Z/w+MNUqS7F8G52bZflKJPQyMMljnBe4HEhJ70f4/fHVm887VCMgr1sJr40tY4p5MZyLbbOrJB6Symhs2+LYjd6/4b+nK9ba/knA3l0+90Oe3ncptknUNvjN7vrZbIdTUvsA/jb4WUTj+3xXpSfgWCyZTqyL31xsqZRu/JIXa2JDA/OJ9zuYArzPU/xrYZOaQ8d8JZaErdPG+LtZf6vL+x6Mvwnfi4G9Gjuckto2+BunWw58JGMcZW4EDMUmRsW64M3HnvhHx6icSAax97TonD3vkszqvYTfRfFtVh266Ie/nQNvZ8VwQqfPe4z/dWCd+g6npDYUeBZ/X/63cFPGRsAOxJu00wZcgS0pFCmC2LtaPoOtVGhEf+BnhF/b/zi2Cqu7H3t6/zeBdXuo45ke63EvK5Z9S45djL8v/Wr8pIcs05yAE4jX1Tke2CdOtUS82x+7Acb4rSzCxvDrsSFwX+B42rDMirV6J/bFTy9JG5ZkrCfN+M1Dck4vnyU58Fn8fdmP4DdPfNF7AoZjT+IxLmavY5sFde/WEymaZuCT2NryGL+dP9N7KuFjCT9pcTpwWA+fvwb+dmQ8q5d6dhoKPOaxbsfX8ZmSwE5YLm0fX/IUwqy5LWojYCfgxQBxdy8Lsa7BoYHrIxLbSOwJMsb8gP+waiKsofjtHe2p3E7PXfJNWD4DH5/zBPWv018PfzuPzgU2q/NzJZIR+LtBLQL2DBhr0RoBx2LZ9UJfOG4DNg1UB5G82BXrXQz9e5qDLbED2AV4IfDnLcWGJHvrtfuCp896m9rzCnqzM/6uYw+j+QC54rNr+oQI8RahEdCC7d4X+kI1E9uSVVtxSlU0Y7PUfaYnr1XasCfuxYE/52X6fmjaEX89tFmTIZ3gsc4/zRiDePZx/H2pv4gYd54bASOJM4v5r8AYD/GKFNEYbG186N9ZyHIFK6/tr2UI/lZmXdnXQe3DuZ7iWA4c4BiLONoUf+v9b8GeemPK4+qAzfG7jLJWmQJ80CFGkTI5DH8T42KVBdS/6uACT5/5KjCqzs/sSX9sSZ+PeKaiB5hkBuBvLO1F0mWWy1NPwKH4TaPZvbRhLfDhGWITKbM1KU5vwGPAlnXW6yOePrMz1a8P62Obh/mI63o0fJmEr/HpRdgEkZTy0Ag4lbBJQaZiKTpFpGcfxpbRpb7J1yptWHKdemffb4S/eQ7frvMz67Uf/lZknOI5NunDvvi7WZ0cOfaepGoENAO/DPC5Xcv1WL5xEenbmsTfXKuvMh3rIaxXP/wlG7qDMDlBTvcU30Jg+wDxSQ1DgAn4+eKujhx7X2LPCRgAXBbg8zpL5zihushEGhcz62Zvpbe1/T35oafPnkW4NOBN2D3AR5zP0HsCJvHkD/j5wibQ9+zVFGL1BIzAWtahLhqP0vhaXRFZ2Y7E23eje1kCfIPGn77fjZ8e2r5S/fowHHjeQ6ztwK8Dx1p5h+Bni99FWHKMvArdCFgfyxYW4qLRhs3PGOD3kIhU1hDgQuLe/F8C9sgQ62j8Zd37bYbPz2In/ORKWEbYJHKVNgp/S2WKMGkjVCPg59hymhAXjTnAB0IcDBHhS8S5+V9OtpU6Tfibu/AkMDBDDFl91VPcz1D/JElpwKX4+YKuiR24g0FYitwYP3ofJ369S4NEpDHvI/yGQvOwxGpZneIpjvnA1g5xZNGMv2vtjyLHXnqH4OeLmYh7IonYQvUE+CzXkc/5FCJF1w9oJewS3XZszk73DYQasR3+cu1/xiEOF+sCM+qMsbeylHwPMRfKcPx0WRd5fCavPQFLga+hWf4iIWxO+I2D2rDJay7d1oOxHkAf8VzlEIcPH8BPPR7DGm/i6Pf4+UJ+Ejtwz/LWCJiOJdMQEf9OwF+a857KNPwk5/K1Mmsi6TKyduWrPt+KHXjZ7IufWf/PEHdCSSh5GQ54EXs6ERG/huFvvlNvJcva/lqO8hTPUuCdHuLxYTB+ll4uAraNHHtpDMTPHtZLgHGRYw8pdU/Av4HVg9dSpHp2w1+Ss96uh1/HT2a9DbFEPT7i+n8e4vFpF/wsDbyfMFkMS+/7lPPE8iFVI+BStL5fxLdm7Ka8hLC/3wnA7p5i7oe/XfXuJP5OrPX4Jn7qd2rswItuMyy/suuBfxTb/rGMYg8HnIUm+4n4thZwE+F/v1fhd3z9B57iCpnq11U/YDzudZwHrBc59kLz8YOowvhLjEbAUuCkWBUSqZADgCmE/f3Oxf/vdx/87aT3fs+x+bYDfnpm/hI78KI6Bj8n1mmxA08k5HDAXGD/eFURqYQBwK/wM8G5tzIe/5N1RwOTPcX3O8+xhfJj3OvaBuwdO/CiGY6fFvHdVGvixY74v5jMkk/BiQAAIABJREFUIlsucBHp2RbY0GTIG38btsV3iPk6f/cU438ozsqsgfhZFfA4+ZzrkBs+9qVfSLWWqI3BNu7weQGZhjUqRMSfE7Hx4JA3/6nAQYHi/7ynGOcD2wSKMZR34icb4+diB14Um2Hj9q4H+HuxA09oMPAAfi8gb2BpPUXEj1hr+2/Dz9r+WrbFX6rfos4pOhv3us8C1ogdeBH4mPj3AsXpVnLVH7gZvxeQiVhDTET82BVLnBXyxr8U2y8g1LDnQGx3Ph+xXhsoxhgG46e39fexA8+7w/Bzch0QO/BEmoCL8HsReQ5YP2YlREqsCdu+10cymd7KK8BegetynqdYJ1O8zdi62w/3+VbLsaRPgk1UeR73k+uy2IEn5GsNbmd5CptLICLu1iFOjo5LsOGFkHym+i3LLPi/4H487kV5VQD4Mu4H8y1g7diBJ3ISfi8iL1CdYycS2iHYRlkhb/xzgeMj1GUs/lL9fjdCvLGsi5/JnMfFDjxvRuJn/+XPxw48kffgN13oRPKbhUukSFYDziT82v5HiDNPpwW4x1PMd1G+5W+n435cJmN5XCrr5/j5QZTt5KplQ/w+WUwDtopaA5Fy2hLb/z3kjb8NS8cday+OVk9xz8KuXWUzAJs35Xp8vho78LxYH/dlJcuAnWMHnsAg/OSk7ixvUv40ySIxnED4tf3TsKGFWHym+j0yYtyxHYifBlIld1e9GPeD99voUcfXBFyJv4vJbKrRaBIJaQRwBWFv/O3YUt+YE3RHAa96iv3ciHGncj3ux+kH0aNObEfcsyrNphoJFb6Fv4vJ28A74oYvUjp7Ai8T9sa/GNvPJPZM8b95iL2zlHEr9u58JLCbh+0KWRk34H5yfT161PG9D39dccuAI+KGL1IqZVrbX8vnMsbbU1mOXcPK7gzcj9VZ0aNOZE/cD9ZEyp/xbwusl8PXj7EqKyVEQliXcLtudi0XE35tfy3b4S/Vb9cynfInGBuC+w6Ji4CNIsedhI8f0bHRo45rILZzlK8f4S/jhi9SKocRfm3/HNJd1wZhycBC1e1+LHV5mR2P+3H6U/SoI9sH94P0GOXf6vd3+Pvx3UA1lkmK+LYa8FP87ALXW4m1tr8nv+8hLp+l7F3czbg/tC2j5Kuz7sP9RHp37KAj+yD+fnQPUvFEEyIZbYXfXrhaZTnwM9I+HX+gRlyhyoci1SkVH3va/C161JH4WDN5XfSo49oIS2vs48f2MsrvL5LFJ7EVMyFvhm8A741VoR5sAMwkXgNgVsdnlplr9sQ2SrpR0N24HZillDtzXX/sid3HD+0tYOu44YsU3gjgr4S/Ed5E+mVfLViK3lg3/85SxrTAXe2N+zEq8pbJNe2L+0Epe1KJX+DnB9YGHB45dpGi2wtbfhfy5rcY2/wsD7vAfY/4N//O8p0I9UvJdZn7ckr2AOe6NeZCbBlOWb0Pf5uI/Chy7CJF1owl21pK2Jve8+QnA6fPVL9ZylJsOXhZ7YD7xNGLokcdiI91/2dHjzqekbivIe0st1D+FRIivqwL3EH4G96fgKGR6tSX1YFJpLv5d5aXSJPvIJZLcTs+iynJfAnX7pCFwHrRo47nz/j5QU0ERkeNXKS4Dsc2xQp5k5sDfCxWhep0Delv/p3l/MB1TWlj3DNGnhk6yNBjUdtiCSZcPucc4BQ/4eTO4dhmEq4WYZNPHvXwXlIOA4BNsLHELYCxWANxTWyyG9hT6RIsA9w87IbV+d8TgRexruuXOv5dGQzEtiE/hbDXv4ewm//LAT+jUZ8FzvPwPguxY+eajbUdG/681TmifDoHtwys87GtlGf6CSe+i3BrAS2ivGkkRwFT8NOS/lTk2CVfWoBdga9hS2VfwO+Y9jKsEXAd8BVgF4o5k3tr4AnCPtUux5IH5S3z3bb4S/X7OeBkT+81ERgertpJbYg1nF2OT2vsoH1ZF/cukHOiRx3PZfj5Af0xduCSC5sDXwT+gb/cEY2U2djw3mnYhS7vPo09UYU8JlOAA2JVqAGDgP/gp45/7/K+vnYOLPNQwJ9xOzYzyM/8kYb8DLeKL6EYF5Ys3o+fH84ECnpySCYjgROwLlNfq0Z8lfHYTnmp17d3Nxy4nPD1/xewdqQ6Neoc/NRxMivPMxqJn6WTbcBBAeqdB1vhviLgy9GjdjQM96eS30ePOo7RwDTcfzRLKGnGKFlJMzZX5Frc9x2PUZZg81oODHEwGvQOrIs5ZH0XAaeSj7X9tRyJn3ouA95V4/3fgZ/hponYrnpldDVux2YyNqenME7FrcKLsUlLZXQBfn6QZU+mUXUt2O5wTxPnxh2iPAYcTfz5Ai3Y7yP02v7ngJ0i1SmL9bEuZB91/X4vn/P/PH3Gz31UOod2xv3YHB896oyasdnDLpX9Q/So49gLPzuL3UsxJ2FJ3wZg49UTCH+DjlVeAv6HOBPj1gP+HaFOF5HvJ9YW4E781PUeoF8vn9UPP2nMlwDbO9c8n27G7dg8ED/kbA7BraJtlCwNYod++JmBPAdbYyrl8wHCd1mnLP8l7NDAEfh74u2pzAaOCVgHX3w9lc+ivt7YLfAzyfI+ypnMbB/cj01eMkn26n9xq+RN8UOO4sv4+UGeGDtwCW4T4J+EvwHnpdyK30b+QGy/+dATIx8GNvMYdyi74778rLM00tjxtTTwpCyVLgDXnQJzv+JrC9x/hHmYPOTbesBc3H8YV8cOXIIaCHwXf+uzi1QWYWuce+tarsc2wJOBY10OnOEh1hhWx18vUqPL85qwdOSunzuL/K0m8eFg3I7LfOz7za2zcKvg0+R3Nq2LK3H/UcyknD+KqtqGYk/w81UeBDbNeAxPIvza/teB/TLGl4LrjPPO8gwwOMPnj8XPw84FGT4775qwYTCX45LbJYGDsfExl8p9OnrU4R2Inx/kJ2IHLsF8nPA3riKVuVh+g3qtjr8bXW/lBix1clGchJ96L8RtMt4XPMSwnHyvsMjKdZjkeXL6kPwJ3Co2HctYVSYt+HnKu4OcfunSkCHAxcS5qRaxXEbfM+vfSZy1/V+kWL+5bfDXqDzZMZZmbDKfaxx3OsaRR8OwidwuxyWXw+QP4FapH8QPObjP4P4jWIilfZVi2wR4lng306KWh6mdUa8Fm9keem3/f4FxNT4/zwbibx7EP/DT8NkGP4mrjvIQS96cjft3lCs74FahRcA60aMOawh+Nvv5VuzAxbsd8bfxUxXKK9gNpNP6+FvT3lv5I/le29+T3+Kn/t1T/br6roeYXsZ918G82RK3yfLLyFmiPNcT8OL4IQf3PdxP/v+Qv13FpDH74j43JmtZgj3R/h3bm+OTwIewDWv2xMZ5t+/47wM6/r9Pdfzbv2OZ7nwtJ2u0vIVNvjuSOGv7j+7pC8y5I/Cz/HEZdq76NBD3pHDtwDc8x5UHrsvlfxw/5NoG4Z73f5foUYe1NranussxWQ7sETtw8epIbAgn1k1zIZYF77vA3vhpPA7oeK/vYU/hMfcjCN3d3w7cD2zk4TilsB7+GkehhmBdl761Y/eXXC9/y+Aw3I7J6+QkG+zHcKvIo/FDDu583E/6Mm+RWQVHYU9VMW6SN2JPsDEm0Q4GPool7IpRv1BlOfYUVYS1/bW04C/l8b2EPQ5/9xDjTwPGl0Iz7um+3xs96hpcuzI+Hz/koLbB/cllDlrzX2TvIfyT8kTgK8CYOFWqaW3gNGAScW/eruU17Dsqsu/g51i8Rfht1zfEfYXCfGDdwHHG9hXcjknyofP1cHsKWIDtKV0mPlq7p0ePWnzZGfdlPr2V57E8AnmaG9Ifm1/wAmlu6I2U64E1whyGaHxtwdsOfDhSzD4mBJ4bKdZYVsdtiHAuiSetnl4jqEbKpfFDDmoc7hNyXgZWix24eLEZMJUwN67Xse2B87xRSgu2bWkeVzwsxBLUFGltfy0jsVUSPo5JzF1XB2M9Ly7xLiF71si8ugK3Y/Kx+CGv8EwPQdVb3h094rCuxf1HGatFLn6NwM+M5+5lKXAmMDxeVZyNwNKC52WOwLPYUswyuAp/xyRLql8XJ3qIu2wPjQfhdjySbZ63a50B9lRepPit8a52wP3p/+7oUYsvIVLTPkaxb1zjCL9RT1/lAuLf6EL5NH6OyULsehVbMzbp2yX2ZRRjR8Z6tWC9e1mPx1JqJ84K7lcZgu1ayra20/UGsBzYLXrU4sMp+L9xXUI5blydW/XGvvHPwVYrlMXmuC8t7iynRI69q317iavekvttcRv0M9yOx6mxA24GXnUIeCnlyvy3LXYDd73gS/HsjN8Z/7Mp5zDQMYSdHNm13Ef4me0xNeEnt347cB3pe17/iVsdllCu73dr3I7H+NgB7+0Y8HWxAw7sr7if0JtEj1pcDcPvuP9rwHZRaxDXDoSdILgM+CHFXdvfk8Pxd37lYQXETrgPl54TPeqwHsLteGyz6luG8zvHYI+MGWxgW+P+9F+2Lq2q+DX+bl7PUa6nmp5sTJjlgq9RvknFnS7D/fgsJ1+5D1yHTBdSrrwAn8fteJwRK9AW3JY6zaZcy9z+iNsXtwS7KEqx7IC/tdjjKda+867Wwn0yWNdyO343sckbH1uK/yh61L3bGvdVIr+MHnU4o3AbSpwQK9D9HYJsp1xj3Wvhnus95lpc8aMJS5/q4+b1LOW+efVkDazXw1cDKs/5EVy5zLdqx+YP5HFY5GLc6jUbG4YrC9clnlGGD127/w+LEWQkrtmtFlONbt+y+SR+blyvAhtEjj1PNsQ9OUxn+Xjc0KN6jOzH5S3yu9nRZrj3AnwpetThHInbsfh26ACbsD2jXU7GAaGDjGQ14A3cvrDzokctrkYAb+J+w5pJ5Ik7ObUd7ruJtmOTC4dGjj2Wc8h+XD6SIN5GXI7b9/4yOdkVz4NBuC31fDh0gLs5BNcO/Cl0gBGdiNuxWAyMjR61uPom7jerNsrVE+bqSPzsaf//YgceSdbrbhEmF2+H+3d/VPSow7kSt+vKeiGDO8MhuHbgkJDBRfY4bsdC2/0Wz2BgOu43qjJNXvLlTNyP6wzKNSbcVaM3hmdJvFFMA/6B2/d+b/yQg/kIbsci6O66zzoENpN87WDm4t24fUltwFaxgxZnp+J+k3qA8vwOfBqAdWG6Ht+vxw48khHU/9AxmfyO+9fi2rPcjqWmL4Oh2C65WY/DLaEC28IhqHbgwlCBJeC65e8/44csjlbDfcLaQsqVx9y3LXDPqjgVG0sto+H0nXTsdop18+90O27fe5lWU7ncXxZjjUXvXJ9+3hciqATWxX399wHRoxZXPjZi+V70qIvnB7gf5+OjRx3X7tjEwEexSXAPAxcB7yV9mt+sXLMdzqU8wz/H4XYsjgkR1L8cAppBebo9XSeBPUlxf6RV9gBu3/uL2MY40rtBwEu4HesyjQlXRTPwPG7f+2eiRx3GCOxJPutxuMJ3QENw65r7i++AEmnCMi65nKSfiB61uHId/moHDo4edXH5yH2/ffSoxZVrOtzgy+AictkwaTael9sf4RBMO3Csz2ASeg9ux2Eq5UqDXBU/xO17vz9+yIXnOiHwzPghi6Mh2GRxl+99XPSow3BNNra/z2DOcwhkOfnYgcqHv+D2pXw3fsjiqAl4BbfvXWv+G/d+3I75q2iorYh+gdv3XpZdAtfCLT+C182BJjoE8qDPQBJaHbe8/4uxL1WKZV/cLkiPoxtRFk3YfBmXY79n9KjF1Za43fhmY/k6ysBlw6y67rv1bKCxGW756m9yeG2eHIvbJK4bsCQyUiyHO76+84lGGtOOHTsXZcoQVxXPA/c4vH4E8GFPsaTmsqZ/FzwtB/wsbq3w3XwEkQMuG3K0o0lgReXyvc+mvGvSYxgMzCH78f9v/JDFg+Nxu9YGS4YT2btxOw5H+AjCZYvC6ZRjm84tcfsiXqM8G1ZUyShsDkvW771MyUlSuQi339668UMWR4OAWWT/zpcBY6JH7d8ALL9B1uPQ50TYvm7OTVgrJKubsfGcojva8fV/wm4kUizvwa0Be6mvQCrM9Ri+y0sUEtNCbJfArFoox/DPEuBOh9c7rwQYh1vrO0hGogSeIvsxaAM2iR+yePBbsn/vk9HkPx+asa1+s34P2nK7mHbE7d5zd/yQgzgZt3uPU0/Ilx0+fBnWhVp02+B2It4eP2TxxGUW+sUJ4i0rl+W3jyWIV/xwyQWxHFg/fsjebYbb/afXh/C+ujf3cQj8MWwcp+g+4vj6i7xEIbG1YHM/svq3r0CEOxxeuw3Qz1cgEpXLBnLNuA/d5sEELDV2VvtlfWETMI3sLY9fOQSdJy5bIM9Bs8CLalPcWt5j44dcWhvh9l1sGz1i8WENbBw86/f+SPyQgziH7MdgQtYP3crhQ9uBI7N+cI7sgNsxKMseCFV0KNm/91cSxFt2k8j+faSci9QfW5f+R+A2bGz6wo6/U1rwvv0vbtfgMmy/fRRux2DDLB/qsv1pG7Bmlg/NGdcc8GVoBFXVV8j+vf8zQbxldzPZv4/vJIgXbBXJy73E9RLl2SY9FNec+KfFD9m7dXA7Bj02gHubA7C3Q8DPAW86vD4vXHK4z8Nar1JMLuP/z3uLQjq5HNP1vEVRv2OAW4GNe/k3m2CNxY/HCKig/o4NA2R1qK9AEnoDt3kAPSbj660B8E6HD3RJ5ZgX62JLUbK6EdtCWYqptwt3X9QA8K9IDYDdgT9TX/KvFuB8ypMx1be3sKGTrPbGU0rcxO5zeO3uPf0fPTUARmOToLK61+G1eXEwbuu4r/EViCThsoPlC96ikE4uxzRmA2A4lsSmkfH9AcAvw4RTClc5vLY/5RhmcdlSfGcaXAlzEG5jDhs5BJsX15K9/m9Tnh2pqspl0tl2CeItO5cJuRMjxnmZQ5wuw05lNhLrTc16XMuQk2M73O7J42q9aU89AC7dUa8R9wcXwgDgAIfX/xNY4CkWScOl2/Btb1FIp3kOr421FPdE4GMOr1fa4tpmA/9yeP3BFH8vlmex4ZCsag4DhGgAlGH8f2+sKy+ra30FIskMcHity81Kast7A2Bz4HeO71GGDWxCuc7htWvSyzh4QbQBDzi8vqEGgMvBKsP4/yEOr12GW2tV8sFljbYaAP7luQEwALgCGOr4PvM9xFJWrlv8lmE1QJCJgN2NxW2soegtLYBnyF7/MjSAqq4Ja3FnPQeK3t2YRy1k/z5C70j6K4fYupYDA8dZdC6bspUhK+C+ZK//MupsoB7h8CFLKX7q27Vx+xF/N37IEoDLpKMyLDvKm5Fk/z4WBozrINwai51lBm7DTlXwC9zuTS7DunkwGLuRZz0G+3Z/w1pDADVnC9bpOcL+2GJw2QAJ3LuqJB9cko+4dgXLqoY5vHaxtyhWthbwJ/xs+/xj3M65KnC5tvbDLbdNHizAbTnsKr3ztRoAOzh8wBMOr80LlwbALGC8r0AkKZdVHEV/0sgjlwZAiBU5zcClWI+hq0dwn0BYBffgtsJmlSfgAnrS4bU7d/8L3z0Ajzu8Ni9cluLchu1DLcU3w+G1GgLwb6TDa12+y56chp8x+7nAR7EuaundYty22a56A2Cb7n/RvQEwHMtPndVjDq/NgxG4JXHR7P/ycNnLwiWLptTmsqvbdG9RmF2AH3l6r5Nxy/NeNS7DALvi1pOUBy4NgC3oNkG5ewNge7KPZ7XjFlwe7IPbDG41AMpjmsNrldHNvy0cXuuzATAM+Ct+JuxdgrYMb5TrPIC9fAWSiMs9diDdHvC7NwBW6SJowCTcMhXlgcv4/wRgsq9AJLlXHF6rBoB/LsfU5bvs7lz87DH/Ivb0L42ZAEx1eH3RhwGm4NagXeke370BsLXDG1d9/N8lS5Pkz8sOr93KWxTSyeWY+upiPx44zsP7LMHG/ZUyOhuXjXFcV3nlgbd5AD4bAEVfATCAGrMkG6AGQLm86PDabdBKAJ9G4nZtcvkuO20GnOPhfQC+BTzq6b2qyCUj3s4UP1GXSwOg19/RRLInGXi/Q1B5sDNuiTxcVk9I/ozC7Xw4LH7IpeWSnKwNtxUEYA8HjzjE0LXcjJ+8AVW2J27fgctQdx4cR/a697hMfQhuGa2KflA/Tfa6z6P4rUpZ1USynxO/jh9uaf2G7N+Dj+5/lwx0XctUtOGPDwOw3A5Zv4fj44fslcvW2G/Tpee/6xDAlmRvmbZR/KUsLt3/D6P1/2Xk0k37Hm9RyH4Or3Vdmvw+bM2/q3Zsu2CX1SViluCWcG0XX4Ek8iJ2PmUxBNvvB1i5AbC5Q0CvEi7dZiwuJ4XLpBTJL5eNnXZE+QB82Ay33Bwu25P7TPX7S5Qm3CeXa67Lw14eLARed3j9//XWd20AuCQA8jHJJqV+WA6ErB70FYjkyl0Or22i+F2NeXACbjfgOzO+rglbp7+Ow2d3Gg98x8P7yAouEwHHUTsLbpFMcHhtzYmAfyT7uMK5DsHkwfa4je2Njh+yRNCC7e+Q9byYgCZ8uWjClmNmPf5vkv1Cf5rD53Ytc/GTN0BW5rpra9GX6l6Ah/u1egCMS5fQ68BMX4FIrizHZm1ntSnF34EspX2AjR1efxM2P6lRuwBnOHxuVyfj9rQmtU3FLV130ecBuJxTNecAuIxXFr0B4LKE7ylvUUge3eD4+i95iaKaTnV8fZbvbihwBX5S/f4F2zFQwnC59roM+eaBSwNgg+5/sRqwjOp2p9xE9rr/IkG8Es9IYBHZz4/luCWxqaptsWOX9bgvINvGLxc7fGbX8mLGz5f6uSwP/XuCeH3akex1XyVl/6YOb7YMP63llCaQvf4nJohX4roGt5vBJfFDLrzLcDvmf83wmcc6fmZnWQzsluHzpTEuuVueTRCvT0Nxy9uzUqbSfR3eqOjr/wfg1vtR9LEk6duRuN0QlqKJYI3YErffZDuNZ2LcFJjj+Jmd5WsN11iy2AO3Rlq/+CF79QbZ67/S0lqXlu9t4eoXxdZkr/syYFD8kCWyAdikI5ebwo3Roy6u/8XtWE8B+jfwef2xZF4+bv63UPwlZkUxFLdhoqI3yu8he90PhhUn6voOQbzh8No8cNln/CUsKYOU2xJs2Y2LQ4EPeIil7D6EZd9z8Qes16VeP8JPl/10bEgwy8oDadzbuG317HLtz4NJDq8dC34aAFMcXpsHLifB096ikLw7D+vxcfEbLBWn1DYUONPxPZZiDYB6vRf4quNngj1VnYjbXvXSOJeVAFt6iyINl3NtA1APALg1AJ7zFoXk3etkm1jW1VjgZx5iKatf4HYtAlvCV+9DyVrYBE0fXfZnYkMXEpfLEvSiNwBc7r1ju/6Ph8g+lnC0QxB5cBfZ6/6ZBPFKOtvgNubYWY6KHXgBHI37cV1G/Rf1JtyW/3Yt4yn+SqiiOpns39sdCeL1yWXu3p1d3+gVhzd6V7DqxTGR7HU/MH64ktjVuN8w3sIt82bZbI6fGfhXNPCZX/Hwee3YVuAuG6mJm0PJ/t0VPUPjfmSv+0qr9+Y7vFGRT/5mbDlI1roXvQtJGrclNs7seuMYDwyOHHseDQUex/14Lqb+Wd074/a771pOzFhv8WNbsn93CxLE65PLCra5nW8yzOFN2in2pKYxZK93G1oCWFXn4OfmcSvV7jruj+214ONY1jt5cAjwX0+feWXGeos/Q3D7DkfFD9mb1XGre3+wrkjnVkRB7UT2umu2b3WthdsugV3LJVRzx8Bm3LP9dZYZ1L8j5588feYEumVTk2TeJPv3WPQ9ARaSve5rAezp8AZFnwV/GNnr/lCCeCU/PoufG0k7cBbVagQ0Ab/F3/H7ZJ2f+zFPn7cE2D1b1SWAR8j+XR6UIF6fXiF73bcCOMLhDf4dvn5BnUT2uqv7r9qagfvwdxP7M8VPTVqP/livh6/jdhf1NZ42wV+q39Mz115CcJmY+6kE8fp0P9nrvlczNo6Q1QyH1+bBeg6vdcnCJMXXhj15+ppIdCK2Q1mZJwYOAa4Djvf0fvOxC3h7H/+uP3A5frrsb0M7gOaNy7XY5R6QB9McXjuqGRjh8AZFnwPg8uVrDoA8j9+nwcOA26mxX3cJbIj1GB7s8T2/Sn1LuX6IbRzjajpwAkr1mzcuN8GiNwDmOLzWuQEwz+G1ebCOw2tneotCiuwcLKGML3tiy+IO9fieqR0BPIbfLXJvAM6v498dgJ/d+dqBT1D8zKdl5HItdrkH5IHLQ/jqVW8AjHR47SxvUUiRtWNd2hM9vudo7Ab3c4q9THA14FfAP/C73OplbMikr67/NfGX6vcs/Db0xB+XBoDLPSAPXO7BlR8CcKm7egCk0yxsF7tFHt+zCXtyfRLL+FU07wX+g2Xc87nCYQGWSvmtPv5dEzax0scT3uPANzy8j4RR5QaAegAcuHz5agBIV49S31Npo7bC5gVcTjG6K9fDVsj8C//brbZhvS1P1PFvvwQc4uEz3wY+imUOlHxyuRa73P/ywKUBMArcMnEd6/DheTCP7HVfM0G8kn/fwt8St+5lPpbxLo8Tl9bHusld0or3Vb5eZyw7Yb0xPj7zEw0fCYltLbJ/vy6T6PLgOLLX/UawXYGyvsHhwasXTj/siSJLvduoxpptyeYswt0E27Gb2+/Jxz4cW2CT8Xzl1u+p/KrOeIZgCcp8fGYjmwtJOq7Xch9zRFJxyeNzG8DDDm/w7uDVC2c02eutCYDSmybgD4S9IXaW8Vh3d8weqZHYcrhbyX7hbaT8ifrnEVzk6TNfpvjdw1Uym+zfdZHnAbyH7PW+G2yiTtY32CV8/YJx2QOh6NtISngt+LsZ1VMWYV16XwHG4fepphnrVj8Nmwnvq3u9nnJBA3U5xtNnLsGWY0pxvET273uj+OF6swvZ6/1gP9wyjxV5EqBL636htyikrJZjWermA6dE+LzVsNwBnfkDZgAPYDvfPd9RJnT8/fIe3qMFWAPbVncrrHt/a+Ad1L/Zjk9nA6diF6u+bAyc5+lzvwew2RGnAAAPyElEQVQ86Om9JA6Xa3KRewBc7sEDmoDXgXUzvsGrwDKHAFIaSPZ6Pwrs6jEWKYYNsJvilh1/jsLGnId3lCHU3iJ6Y/K12c9CbHZ758VjGDCUfG1v3Y5tdNLdEqxRtRSbwDW9o7wH2NnD594OHIiy/RXNY1gvVRZT8LuEN6Z+wNiMr32mH/bkkFXWDy66JakDkOBWw7qB9+so47CbZBkM6ih5XsnShA3TxfQmSvVbVC7LNLM+CBbdgH5oNnsWagCU03Asoc8xwN7k64lYwmrHNneakjoQyUTX5MYN6IeN+0ljdLKVRwvW5Xs8cCS66VfVb+lYFy2FpGty49QDkJGyghVffyzD27ewMX2prqdRqt+iUwOgcQOaKXYShFSWpg5AMhuIzcqfAFyMbv5iKx8+gTUKpZj0UNa4Ac1oCCALtTaL6XBsWdxvqe4EVlnV2ti2zv8FPpw4FslG1+TGDWgmX8uTiqKoS0aqaiPgOuB6ip30Q8LaFLgK+Cc6T4pG1+TG9WtGu9plMT11AFKXJixN7jNYzmyRehyCzQs4BT0gFcWbqQMooJnN2IkujdExy7/Vgb8Bv8Et26VU0xBsqOg6bI6A5NszqQMooKeagWtTR1EwC7EuQsmvPbDMYEemDkQK73DgCWD31IFIr25EwwCNuhZsVvQk4m3uUfTy0yxHWqI5lvBb06pUryzAEkRJfv2c9OdJUcordMkCvCf2ZJs6qLyXB7AGk+TTqcTZnlalmqUN+DaSVwOBh0h/nuS9LMR6SVeyDzAtB8HltdxEsXeNKrMm4CekP0dUqlF+guTVSOBm0p8jeS1TsTTnNY0Avg+8mINA81CWArcBH0SzgfPsbNKfKyrVKr9B8qoJ29PjduwanvpcyUN5AWjF7vErHaiejCDNHuB5sQzrEVGGqXz7DvDDiJ/3FvA49oN6HtsSe25HmY/bvuTSt0GsvAXzhqzYonkctvojlh8A34v4edK41YAxVDvl/Uxs62yRUjmJ8C3n5diTxGnYfvNKnZ1fLcAuwNeAf2PfXejz4/NRaiYiIv/nCKyXJtSFfQLwTWCDWBUS78Zik/ZeImwD8eBYFRIRqboNsW6tEBf0p4ATqHaXYdk0Y+v5HyXMOTML2CxabUREKmoA8Aj+L+JvAMehyZ5l1ow17qbi//x5EpufICIigZyF3wt3G/A7tMSzSkYC5+I/Z8RZMSshIlIlB+H3oj294z2lmg4FZuC3Mblf1BqIiFTAQGxinq+L9X3AelFrIHm0AZbh09d5NQlbpigiIp58H38X6evReK2ssBpwDf7Orx/FDV9EpLw2w99eFReiGf6yqn7An/Bzji0CNo0bvohIOf0dPxfmy1EiH+lZM3Alfs61ayLHLiJSOtvgJ6Pb7XTZ/lKkBwOAW3A/39qAHSPHLiJSKpfjfjF+DhgWO3AprOH42RDt2tiBi4iUxea4p/tdAOwQO3ApvJ1wn3fSBmwVO3ARkTI4D/ensP+JHrWUxSm4n39KDiQi0qCB2Na7Lhffe1BqX8muGbgft3NwLhp+kpzqaTnU+tjWp2tR3VnTi4DJwINoj/cUjsQtPe9S4HPYRVgkizZsu99HyL50dBjwIWyJocQ1CNgLu58NTBxLKm1YxtPHgNf6+sfvBO7Cf47sIpe3gbOBNfo6eOLVTbh9b2fHD1lK6lzczsX/jR9ypa2J7e8xn/T3j7yUNuBO4B09HbSv4We5VVnLq8C4ng6eeLU29gSf9btahNL8ij9jgSVkPx+XoAeIWHbCnnRT3y/yWpYDX+1+0D6Tg8CKUN7AupMkrI/j9j2dHz1iKbsLcTsnPxk/5MoZS5itnstYPtV50NbBurlTB1SUogxf4V2M23e0ZfyQpeS2we2cvDx+yJXjK2NoFco8rKeVH+YgmCKVNpTnO7TJZP9+7k8Qr1TDw2Q/L6eiFSkhbY7mrjVavt+M7Ykt9WtCxyykzXEbZrnUVyAi3Vzi8NoxwNa+ApFVHIoaWI06tBnbaU0aox6AcPZxeG0bcLWvQES6uRp7cspqV1+ByCp0TW7cZs1AS+ooCkjbyYazjcNrnwRm+ApEpJtpwDMOr9fmQOHoPta4fs3Y8jZpjI5ZOC4T+O7wFoVIbS7nmBoA4UxOHUABvdoM3Jo6igK6JXUAJebSALjXWxQitd3t8FptDBTOv1IHUEC3gF1wXZKuVK08gCabhDIAt3Nxi/ghS8W4LAdchoYPQ7qX9PeHopRldJmU+tMcBFSEsgBlAwxpI7J/N0uA/tEjlqpxbaQqkVg4u2DX6NT3iSKUM7oeuBZsiUvqoPJc5gPvR0Lanuzfz3MJ4pVqepHs5+nuCeKtkiNRI6CvcjE1NvlrAk5CqRRrlTvRBJ4Y3kH27+i+BPFKNT1I9vN0vwTxVs04bFO71PeNvJU3sLT//6freFQ78AesdbAfsBuWvKKqY1YLgInAbbgt/ZH6DXV47TxvUYj0zuVcG+QtCunJE8C+wHbAAcCGwOCkEaWzDFu++jDwb2Bx1/+z1s19MXBzRxGJaZjDa9UAkFjmOry2qjeiFJ7uKNKDVcYBRBJazeG1i/v+JyJeLHJ47QBvUYg4UgNARESkgtQAEBERqSA1AERERCpIDQAREZEKUgNARESkgtQAEBERqSA1AERERCpIDQAREZEKUgNARESkgtQAEBERqSA1AERERCpIDQAREZEKUgNARESkgtQAEBERqaB+kT9vWMDPXIC2hBURkbBWAwYHeu9lwLxA772K0A2AJuDDwCeBfQh30Dq9BtwEnAk8F/izRGpZCxgNzAamAW1pwym8ZmAMMBKYCUxPG45U1NbAl4FDgPUCf9YC4G7gIuAaoD3w5wUxBqtEe4KyFPgO1gCR4vgY2b/zvySIt9MI4PvAS91imgL8BlgnXWiFtS5wFvAGKx/TCUArMDxZZHAZ2c/TYxPEK9k1Ad/D7ikp7mV3YffSQhkFvECaA9a1/CJ0RcWrIjYA9sRu9L3FNhc4IlF8RXQk1g3a2zF9Hdg9UXxqAFTHr0l/H3seWD10RX26ivQHrbMcHLiu4k/RGgDjgLfrjG85cFiCGIvmIGwctJ5jOg/YIUGMagBUw2Gkv391lr8Grqs347Bxz9QHrLM8Fra64lGRGgD9gP82GOMMbCxbahsFzKKxY/o00BI5TjUAquEJ0t+/OksbARq7IZYBfoR8jb3vBGyeOggpnWOArRp8zWjgiwFiKYsv0XhX57bYNUfEpy2BHVMH0UUTAc7zEA2AcQHe01UeY5JiOyrj6z7oNYpyyXpssn4XIj3J4z3De4MkRANgRID3dFWoCRRSCNtmfN02KAFXLc003qPSKet3IdKTStzHQlyI3gzwnq60dlh8G5Xxdf3J58UltZFkz0uyhs9ARMjnfcx7TCEaAA8GeE8XbcBDqYOQ0nGZ55KnOTJ5oeMpefIQNvkuT+73/YYhGgBXYkkT8uJ2LJmIiIhIPaYAd6QOoosl2PJ6r0I0AF4BfhfgfbNYCnwjdRAiIlI43yA/D7O/BSb5ftNQk5G+Afw70HvXqx04GeUBEBGRxo0HvkD6oYA7gG+GeONQDYAlWAa+80izGcp0bGnQBQk+W0REyuF8bEO7FJMC24DfYxsQBemJCLkb4GLgc8C5wAnAvtguSoMCfd4MbPjhRuDPRNxSUURESuta4Fbg48ChwMaEW3myENvn4i7gYizTZTChtwMGeAr4WoTPERERCWEucHZHKQ0lJBEREakgNQBEREQqSA0AERGRClIDQEREpILUABAREamgGKsARGI4tqMUwczUAZTMaNInaxEpHPUAiIiIVJAaACIiIhWkBoCIiEgFqQEgIiJSQWoAiIiIVJAaACIiIhWkBoDkyfLUAYgEpnNcckMNAMmT6akDEAlsauoARDo1pQ5ApItRwDSUoErKaSkwBngrdSAioB4AyZdZwC2pgxAJ5BZ085ccUQ+A5M1OwMOoF0DKZSmwO/BE6kBEOrWkDkCkm6lYrvxDUwci4tEXgBtTByHSlRoAkkePAC8BBwCrJY5FxMVc4FPARakDEelODQDJq/8AFwILgGHAcGBA0ohE6vM28BRwAXAc8FDacEREREREREREREREREREREREREREREREREREREREREREREREREREREREREREREREREREREREREREREREREREREREREREpEdNqQMQ6cOWwOHAJsAaAT9nCTANeAC4GZgf8LNqWQM4AtgBGAO0RP588WcG8BJwA/BC4lhERApnPeBaoA1oj1zeBE4mTgN5AHAGsCBi/VTilDbgGuxcFhGROmwHTCH9BfxioDlgPYcAd+Wgniphy+vAtoiISK9WB14h/UW7s7QGrOtVOaifSpzyMjACERHp0c9Jf7HuWhYBGwWo5wE5qJtK3PITRESkpn7ALNJfqLuXHwSo67U5qJdK3DITO8dFciHk+KZIo3bChgDyZv8A77lfgPeUfBsFjEsdhEgnNQAkT9ZPHUAPfMc1BBjp+T2lGPJ6jksFqQEgeTIodQA9WOT5/ZZgS8SkeganDkCkkxoAIn170fP7LQUmeX5PEZGGqAEg0rfrC/KeIiJ1UwNApHevA38J8L6/BBYGeF8RkbqoASDSs+XAZ7A0vb69BnwtwPuKiNRFDQCR2uYDR2MbA4VyDvB1NCFQRBJQA0BkZQuBy4EdsWQ9of0C2Au4BetxEBGJQlmppCzuBc52eP1ybDvgJ4i/FfDDwEHAaGzTmDGRP18a80Vg79RBiLhSA0DK4lXg6tRBOJoJ3J06COnTkakDEPFBQwAiIiIVpAaAiIhIBakBICIiUkFqAIiIiFSQGgAiIiIVpAaAiIhIBakBICIiUkFqAIiIiFSQGgAiIiIVpAaAiIhIBakBICIiUkFqAIiIiFSQGgAiIiIVpAaAiIhIBakBICIiUkH9Ugcg4slY4MOpg5BKGJs6ABEf1ACQsti7o4iISB00BCAiIlJBagCIiIhUkBoAIiIiFaQGgIiISAWpASAiIlJBagCIiIhUkBoAkicLUwcgEtiC1AGIdFIDQPLktdQBiAQ2OXUAIp2aUgcg0kULMBVYI3UgIgHMBNYGlqUORATUAyD5shy4MHUQIoH8Ad38JUfUAyB5MxJ4DNg4dSAiHr0M7AzMSR2ISCf1AEjezAYOB6akDkTEk9eBI9DNX3JGDQDJo2eA3YBrgPbEsYhk1Q5cDeyOndMiuaIhAMm7LbAegc2A0YljEanHTGACcD3wYuJYRERERERERERERERERERERERERERERERERERERERERERERERERERERERERERERERERERERERERERERERERERERERERERERERE5P+3B4cEAAAAAIL+v3aDHQAAAAAAAAAAAAAAAAAAAAAAAAAAAAAAAAAAAAAAAJ4AAhHXngiGbBkAAAAASUVORK5CYII=;strokeColor=none;" parent="1" vertex="1">
          <mxGeometry x="904" y="-658" width="49" height="49" as="geometry" />
        </mxCell>
        <mxCell id="Mpb16fFOWcYmd3spKum3-255" value="" style="shape=image;imageAspect=0;aspect=fixed;verticalLabelPosition=bottom;verticalAlign=top;image=data:image/png,iVBORw0KGgoAAAANSUhEUgAAAgAAAAIACAYAAAD0eNT6AAAACXBIWXMAAA7DAAAOwwHHb6hkAAAAGXRFWHRTb2Z0d2FyZQB3d3cuaW5rc2NhcGUub3Jnm+48GgAAIABJREFUeJzt3Xm4ZVV55/FvFXMVBSoioKKUCIiiiBOiqNHYGiPk0SixNYmJxphOutOmTadNx4jpxE600x2NPUQxg0q622iMMWpa4xQH1DgFEFBEAQMyOjDUSE39x7onXC93OOfevc9v7bO+n+d5n+IRrL3Gvd6zzzprgyRJkiRJkiRJkiRJkiRJkiRJkiRJkiRJkiRJkiRJkiRJkiRJkiRJkiRJkiRJkiRJkiRJkiRJkiRJkiRJkiRJkiRJkiRJkiRJkiRJkiRJkiRJkiRJkiRJkiRJkiRJkiRJK1uXLoAG7xBgM3AccDRwBHDk3J/z46C5//7uc38eCGyc++etwB1z//z9uT93At9dEDfP/XkDcDVwFbC98xpJUgNMADSO/YGTgIfOxQMoC/5xlEU/aX4ycBVwMfAV4OvA7lyxJKluJgBa6CDgUcDpwMMoC/5DuPMT/FDsBC6lJAQXA/8AfGnuf5ek5pkA6DDgMcCZwOPn/jw4WqL+7AYuAi4APg38PeVrBUlqjglAe/YDHg6cDZwFPIK2x8GVwPuB9wGf5M69CJI001q+8bfkaMpi/wzgqZRP/bqrW4GPAP+PkhTcmC2OJEmTuwfwQson213APmOi2EP5muBlwFETtr0kSVN1OPBzwIdw0e8ydgEfBF6MT08kSRV5JPBmYAv5xXLWYzvwTspXKX6FJkmausOBlwIXkl8UW42vAq8A7rlCX0mStGYPAs6jfBJNL4BGie2UJzAnLdNvkiStypmUR8+7yS94xuKxF/gw5SeWkiSt2nrgHOAL5Bc3Y7L4PPAc3CcgSZrQUylH16YXMmNtcQkliTMRkCQt66mUT4/phcvoNi6iJAKSJP2AxwOfIb9QGf3Gp4EzkCQ17z7A2ykbyNKLkzG9eB/ldcqSpMZsoPyG/Hbyi5GRia3Aa4FDkSQ14XnANeQXIKOO+BblFwOSpBl1DPBu8guOUWe8DzgWSdLMWEc5tvdW8ouMUXfcQnkD4XokSYP2IOBT5BcWY1jxCeBEJEmD9EJ8Q5+x+thGeRrgIUKSNBBHAn9DfgExZiM+CByNJKlqTwOuI79oGLMVNwLPRJJUnQOBN+KBPkZ/sRf4A+AAJElVuDdwAfkFwmgjPkX5SakkKehMfORvTD9uBJ6MJK3SfukCDNxLgb8ADk8XRM3ZCPwkcAfl6ZMkaQoOBN5G/lOgYewD/hT3BUhS7+4OfIz8Td8w5sdHgbshSWPygJHJbAY+AJycLoi0iMuAH6W8XEiSlmUCML7HUA73OSpdkEptA64Grpr789vATcB358V2yln3UL673jr3zxspX6tA+RR7CHDEvLgXcB/gOEoStnnuv9FdXQ+cDXwpXRBJdTMBGM8zgL8ENqQLUoEdwKXAxcBX5v68hLIrfZqOBk4BHgo8bO7PhwAHT7kcNdoK/Djwd+mCSKqXCcDKzgbeSbsLy43AFyifKD89FzuiJVra/sCplJ9mPhJ4EnC/aIly7gCeD/xVuiCSNETPB3aR3+A1zdhFWeRfQVlEh54kPoDyQp0PUxKXdPtOM3YDP7P2JpSktrwU2EP+Jj6NuB3438CzgUO7aLxKbaI8Gv8/lDqn230asQd4SReNJ0kt+LfM/pn+2ylfbTyHNjfUHQI8F3gXpS3S/dFn7AV+uZtmk6TZ9SJme/H/KuXx/j27arAZcDjlic+F5PunzyTgF7pqMEmaNT/FbD7230k5ufCM7ppqZj0OeDulzdL91nXsAV7QXVNJ0mx4FrO34e9W4A+BYztsp1YcBfwW5fyCdD92GbuBc7prJkkatmcwW5/4rgN+hdne0Dctm4CXAzeQ79euYgfwtC4bSZKG6JHAFvI35S7iO5Tv9z2wqHsbKD8nnJVEYBtweqctJEkDspnZuKHfBrwSP/FPwybgVczGzwivA+7fbfNIUv0Ooxxjm74JryX2UjasHd1x22hlxwBvpnynnh4Ha4lL8S2CkhpyIPBx8jfftcSnKF9fKOvRwAXkx8Na4sPAAV03jCTV6G3kb7qrje9TTnYb+hG9s2Qd5RyBW8iPj9XGn3TeKpJUmV8hf7NdbbwPuG/3TaKOHE05WTA9TlYb/7r7JpGkOjyB8pa09I120riZcmSvhuEcyi8y0uNm0thJOQhJkmbK0cC3yd9kJ42PAPfpoT3Ur6OAvyU/fiaN64F799AekhRxAPBJ8jfXSWIH5Tf963toD03HOsrZAUN7DfFnKBtlJWnw3kj+pjpJXAmc1ktLKOFRwLfIj6tJ4g96aQlJmqIfYVhv9/sYcK9eWkJJRwAfIj++xo29wDN7aQlJmoKjGM5Jf3uB1wD79dISqsF+wO8xnIT0euDIXlpCknq0Dvgb8jfRcWIH8JP9NIMqdA6wnfy4Gyf+Fs+ckDQw/4b8zXOc+C7wpJ7aQPV6HOXnnenxN078Yk9tIEmdexDlbWfpG+dK8Q3gxJ7aQPV7EPBN8uNwpdgKnNRTG0hSZ9ZTzslP3zRXisvw99Yq+1QuIj8eV4pP4FcBkir3S+RvlivFl4B79tUAGpy7A58jPy5Xil/oqwEkaa3uTXlZTvpGuVx8Gji8rwbQYB1OGRvp8blc3IrvopBUqfeRv0mutPhv7K32GrqN1J8EvKe32kvSKj2P/M1xufgCfvLXyg4Hvkh+vC4XP95b7SVpQodQ91GrF1NOgpPGcU/gEvLjdqn4J2BDb7WXpAn8J/I3xaXiG5Q3EUqTOIbyToj0+F0qXtVf1SVpPPel/E45fUNcLL6Lv5+uxSGUs+3fRPme/UrufEvfzZTH7ucBzwc2hcq40IMoYyg9jheLbcD9+qu6JK3sHeRvhovFTuDJPdZb4zkZeCuTJYnbgLcAJ0y/uHfxBOp9nfD5PdZbkpb1eOp8scpeyidJ5WwAXg/sYvX9eAfwOuDgKZd9oZ+i3nH+2B7rLUlL+iT5m+Bi8Tt9VlorOgm4lO768yLggVOtwV29lvy4Xiw+3WelJWkxP0r+5rdYfBhf6Zv0CPp5yc6NwGlTrMdC64H/t0i5aoin9VhvSbqLfyB/41sYV+MRv0knADfRX//eSPZJwD2o85cBX8D3BEiakmeRv+ktjB1kPyG27mDgH+m/ny+h/KIg5VGUDabp8b4wzu6z0pIE5ZPGheRveAvjV/qstFb0eqbX1787pTot5deYXl3HjYspX1NIUm/OIX+zWxgfwkegSY8DdjO9/t4G3GcqNVvceuAji5QrHR4RLKlXtX33fzPlLYTK2AB8nen3+/+YRuWWcR/gO+TH//z4fK81ltS0J5G/yS2M5/RaY63kDWT6/Xby5wPU+DTszF5rLKlZtb3u9y/7ra5WMO1H/wvj6f1XcUXvIT8P5oevC5bUuZOAPeRvcKO4hez3wK3bAFxBdgykvwaA8tKg75OfD6PYSzl+WZI68xbyN7f58ZJ+q6sV/CH5MfCJ3ms5nl8k3xbz44/6ra6kltwD2E7+xjaKT+Gu/6THUcfToCv6ruiY1gOfId8eo9gG3L3XGktqxq+Qv6mNYg/w6H6rq2XU8Oh/FFt6ruskHkEdSdEo/k2/1ZXUikvI39BG8cc911XLq+HR/yh29FzXSb2VfJuM4uJ+qyqpBY8jfzMbxW2UTVfKeAJ1fcq9qd/qTuwo4Fby7TKKx/RbXUlrMYSjO38+XYB5Xgdcny5EozYAf0JdY/bKdAEWuBH4b+lCzFPT3JU0MIdTvmdNf5LZRznxb1O/1dUyanr0P4oad7sfSr9vRJwkbgcO67e6kmbVS8jfxEbxqz3XVUur7dH/KH6iz0qvwSvIt80ofqbnukqaUX9H/ga2j/LYf0PPddXiUmf9rxRbKZ+2a7QRuIF8G+0DPtBzXSXNoCOBXeRvYPvwVb9JNT7630edj//n+1XybbQPuINyjockje1fkb957QO+R72f9GZdrY/+dwLH91jvLmyiniOCf67nukqaMR8nf+PaB/xu3xXVomo68GdhvLbHenfpdeTbah/lqzxJGsvRZN/yNoo7gPv2XFctrtZH/99kOE+E7kN5WpFus93AvXquq6QZUcvu/7f1XVEtqpaz/hfGHuCJPda7D28n3277gJ/tuZ6SZsRfkb9h7QMe23dFdRe17vrfB/xBj/Xuy+PJt9s+4B19V1TS8B0A3EL+huVZ5hk++u9eDe/S+B6wf98VlTRsP0T+ZrUP+OWe66m78tF/P/4d+TbcR+lfSVpSDTuXt+Fvl6fNR//9OQLYTr4df6fvikoatovJ36j+ovdaaiEf/ffr3eTb8ou911LSYB0J7CV/o3pO3xUN2AT8GPBfgAsob44btfVNlJvzm4HnMf2XHtV64M8e4Mwe6z1NP0Ed7Xn3visqaZieRf4mdRtwSN8VnaIHUl6jO8lbFbdRkoGTplC+mg/8eX2P9Z62DZS386Xb9Jl9V1TSMP0++RvUn/dey+nYQPm0v5b3KewGzqffROANayhfn/F1Zu8FUO8g366erClpUZ8mf4N6du+17N8JdLuXoq9EwEf/0/Vc8m37id5rKWlwDgJ2kL057WT633937TTK9/t9tM8oETixg3L66H/6DqMcb51s223AgX1XVNKw1HBi2Ud7r2W/NjOd98DvAd7J2p4IuOs/4xPk29gTNiX9gJeTvzH9+95r2Z+Dga8w3fbaTTlrftInAj76z/l18u38st5rKWlQ3kr+xvSQvivZo+QGykkSAR/9Z51Kvp3/pPdaShqUfyR7U7qh/yr25oHU89rXlRKBWh/9z+Ku/8Wso5z7kGzrL/ReS0mDsT/5DYDv7r2W/XkL+QV0fiy1R8Cz/uvwXrLtvQ3Yr/daShqEU8gvAi/vvZb9OIxyQ02332IxeiJwAj76r8l/IN/m0zhkStIAvID8Den03mvZj+eTb7uVYjfT36A4brTy6H++x5Fv93N6r6WkZa1PF2BOevPdDsoehCF6SroAY9iP8pSnNnuBl1CeoLTkS5Q9I0k1jgepKbUkAA8IX/8SygEpQ/SIdAEG7I3AJ9OFCNgJXBYuQ3rOS82rJQHYHL7+xeHrr8Vx6QIM1JXAq9KFCEqP+fScl5pXSwJwXPj6Xwlffy0OTxdggPYCL6K8IbFV6TF/XPj6UvNqSAAOAe4VLkP609BarEsXYIBaffQ/XzoBuDfl9EpJITUkAMeRX8QuDV9/Lb6XLsDAtP7of+SS8PXXAfcPl0FqWg0JQPq7wK2Uk9GG6uvpAgzIXuBnaPvR/8j1lF+/JKXnvtS0GhKAe4evfzXld8lD9Zl0AQbkD4FPpwtRiX3At8JlOCZ8falpNSQAR4Svf3X4+mt1QboAA3ElcG66EJW5Knz99NyXmmYCkL8JrtVHgVvShaicj/4Xlx776bkvNc0EAL4dvv5a3Q78cboQlfPR/+KuDV//nuHrS02rIQFI3wRuDl+/C/8d2JUuRKWuAH4zXYhKfSd8/XTyLzWthgQgfRP4bvj6Xfgn4A3pQlSo1bP+x5Ue++m5LzWthgTg7uHrp2+CXfkt8oe71MYDf5aXfgJwj/D1pabVkACkTwNL3wS7sg34cYZ9pkGXrgBemS5E5dLJ70Hh60tNqyEBOCB8/dvD1+/SN4CnYxKwF3gxPvpfyW3h65sASEE1JADpm0D6vehduxB4HG1/HfBG3PU/jvQrsA8MX19S2C2UU8lSMatv0zsYeB0lwUm277Tj68CGDtqvBXcn21e+x0Jq3DayN6FD+q9i1AOB84Hd5BfnvmMPcGY3zdaEDWT7a2v/VZRUs/TCtF//VazCZuDNlPMC0gt1X/EHnbVWG/Yj21+7+6+ipKWkX8ML5SaQXIT3p3xybMVm4Ncpm+T2D5elS1cCp1Lvcb+HAWcBT6aU8zjgbuQ3wUpavV2Ur7Gvpuy/+jjwfmZrc3mvtpL9FNLq98Wz9ERgD/DEbpunMycBf0L+qy7DMKYTWynHs5+AVvQ9sp2VPogobRYSgRof/W8A/ivDblfDMFYfdwC/T/6sm6pdT7aTju6/ioMw1ETgm8ChPbTHWpxA+Rlmum0Mw8jH54BjqFAN5wCkf4efPoegFlcBvwCcCJzHMDZo7QVeRF3f+58GXACcki6IpCqcDnyBsvenKiYAsDF8/doMKRH4Q+o66/8E4EPAkemCSKrKfSibA6t6ElBDApA+jSz9OuJa1Z4IXAmcmy7EPAcD78LFX9Li7gu8j4rOnqkhAUifR+4Ne3k1JgI1Pvp/DRU+4pNUlUcC/zFdiJEaEoD0i2tMAMYzSgROAf6c7NkJtb3m90TgZelCSBqEl1PJVwE1JAA3h69vAjCZy4GfpnzfnXgicBHwG1O+5kpewWwdqiSpPxup5OvLGhKA9BOAo8LXH6rEE4EbgGcD26dwrXEdBvzLdCEkDcpPU8HPl2tIANJPAB4Qvv7QjZ4IPIR+E4GbgKdSEo+aPJN2T5OUtDobKfeOKBMAOD58/VnR51cDFwKPBS7t8O/sylPSBZA0SPF7Rw0JQPorgONo542A09DlVwM7Kbvrz6C+T/4j7vyXtBoPSxeghgTg2+HrHwgcGy7DLJr/1cCbmOzd71uB/wk8GHgVsKPz0nVnc7oAkgYp/vVzDa8DPojyprRkMvIvgI8Er9+CTcDTKG19KmXwH045K/sWysE+F1L64UOUMTEEOylJpCRNYifhFwXVkAAAfAu4X/D6v0Z5c5s0KRMASasVXYNr+AoA4Bvh658Wvr6GK32SpSStSi0JwDfD139E+Poarlo3J0rSsmpJANJPAE6kgkMZNEgXpgsgSatRSwKQfgKwHnh4uAwapo+lCyBJq1FLAnBJugDAE9IF0CC9n8l+4ihJVaglAbgCuD1chieFr69h2gK8I10ISZpULQnAXvLfpT4eOCBcBg3T64Bd6UJI0iRqSQAAvhy+/qHAo8Jl0DBdAbwhXQhJmoQJwA96croAGqxzgc+lCyFJ4zIB+EFnpQugwdoBPBu4Jl0QSRpHLUcBA+wP3Er23ep7gXsDNwbLoGF7GPAB4L7pgkiqnkcBz9lN/hHqeuDscBk0bBdTTpb8ZLogkrScmhIAgI+nCwD8WLoAGrybgacDv41nBEiqVE1fAQCcCXwqXIbtwL0ov++W1upoygbBFwIbw2WRVJfoGlxbAnAg8H2y+wAAfhZ4W7gMmi2HAs+k/NLk4cBm4G74KmGpZbWtwXEfBvaF46O911KSlJZea6Jq2wMA8PfpAgA/BNwvXQhJkvpSYwJQw6fv9cBPpQshSVJL1gPXk38083X8fkaSZll6nYmq8QnAXuBv0oUATgB+JF0ISZL6UGMCAPDedAHm/HK6AJIkteQgyrHA6ccze4EH9VxXSVJGeo2JqvUJwE7gg+lCUPYA/Ot0ISRJaskLyGdn+ygnAt6r57pKkqYvvb5E1foEAOD9wLZ0ISjHt/67dCEkSWrJn5PP0EZPAY7sua6SpOlKry1RNT8BgHrO498IvCxdCEmSWrEeuIZ8lraP8quEI/qtriRpitLrSlTtTwD2AuenCzHnMMprXSVJ0hScSEkE0pnaPmAX8OB+qytJmpL0mqIxfIZ8R42illMKJUlrk15PNIbnk++o+fHUfqsrqTKbgOcCbwI+C9wE7JiLm+b+tzcBz5n7bzUM6bVEYzgAuJZ8Z43iK3NlkjTbTqIs7FsY//6wBfijuf+v6pZeSzSm3yDfWfPjlf1WV1LQZuDNlH0/q71H7AHeie8TqVl6HdGY7gFsJd9ho9iBE1uaNV0s/CYCw5FeRzSB88h32Pz4e8oLgyQNWx8Lv4lA/dJriCZwCvX8JHAUP99rjSX1aRoLv4lAvdLrhyb0XvKdNj+24GYfaWgSC7+JQH3S64cmdBr1PQX4InBgn5WW1IkaFn4TgXqk+16rUNtTgH3Aa3qtsaS1qHHhNxHIS/e5VuER1PcUYDfwQz3WWdLkhrDwmwjkpPtaq/TX5DtvYdwIHNtnpSWNZYgLv4nA9KX7WKtU416AfcCXgUN6rLekpc3Cwm8iMD3pvtUavIN8By4Wf9xnpSXdxSwu/CYC/Uv3qdbg/sA28p24WPxSj/WWVLSw8JsI9Cfdl1qj15DvxMViN/CsHusttazFhX9hmAisXboPtUaHAt8m35GLxTbgjP6qLjXHhf+uYSKweum+UwdeRL4jl4obgeM7qONhwDmUm9/ngJspLyRK16/1uIPyPvjPU95V8Xx8H3wfXPhXDhOByaX7TB1YD3yJfGcuFV8Hjl5l3R5AufFN8j5yIxtbKRtBT1ikPzUZF/7Jw0RgfOm+UkdOp3zvnu7QpeIy4KgJ6nMw8F+AnRWU3Vhd3AH8/lxfajIu/GsPE4GVpftIHXo9+Q5dLi4BjhyjHg8ALq6gvEY38TngGDQOF/7uw0Rgaem+UYc2AleR79Tl4iLgnsvU4TTghgrKaXQb1wKnoqW48PcfJgJ3le4Tdezp5Dt1pbgYuPciZT8eF/9ZjmvwScBCLvzTDxOBO6X7Qj14O/mOXSmuAk6aV+ZNlK8I0uUy+o0v4lHR4MJfQ5gI5PtAPTiC8vO7dOeuFDcCjwTWAe+poDzGdOK3aZcLf33RciKQbnv15CzqfFnQwrgN+PMKymFML7bQ3lcBLvz1R4uJQLrN1aM3ku9gw1gs/og2uPAPL1pKBNJtrR4dBFxIvpMNY2FsZbZPDHThH360kAik21g9ezD1vjHQaDuex+xx4Z+9mOVEIN22UevTBZiCy4CXpwshLeIp6QJ0aLTwfx14KbB/tjjq0HrKe0guZXYTAc24d5HP9gxjfnyO4fMTf3sxS08E0m0ZtS5dgCk6FPgM8NB0QaQ5NzHZ+yFqshn4deDF+Gm/VXuBdwPnAl8Ll2W10otwdA1uKQEAOA74AssfxStNy06G96IgF34tNOREwASgMT8MfBBvXqrDUOagC79WMsREoOkEoFW/Sv67H8PYR/2OB86n7ldtp2K37bJku5xPGTu1S7eVQs4n3/mGUasNwH8GdpBvo9pitMCdNBcmSIvHDsoYqvndF+k2UsiBwN+RHwBG21GjYyl7ZdJtU1sst/vdX0MsHRfOtU+N0m2joMOAL5MfBEa7UZuHAjeTb5eaYv4n/pX4RGDxuAk4ZYz2m7Z0uyjsGMqredMDwWgzavJA4HrybVJLTLLwL2QicNe4jvr2BaTbRBV4IMN4fbAxe1GLg4B/JN8eNUSXB9341cAPxpcpX7/WIt0eqsSjgdvJDwijrajF68i3RTrW8ol/JT4RuDN+b41t2aV0W6giT8AkwJhu1OD+tL3bf5pH2/pEoByAVcumwHRbqDImAcY0owZvId8OiejzE/9KWn8i8Ka1N2En0u2gCpkEGNOKtA3AbeTbYZpR08tsWn0icCtl7KWl20GVMgkwphFpzyPfBtOK5Cf+lbT4ROAnOmm5tUm3QdT6dAEq9ingx4Bt6YJIPXpiugBTsJfyOvBTgJ8GLs8WZ1GXU8p2AnAeJRGYdWemCyCt5DGUQyzSmaIxm5H2D+TboK+o+RP/Slp4IvDZzlpr9dJtoAE4HriC/GAxZi/SriPfBl1HTd/xr9Us7xG4tsN2Wq10G2ggjga+RH7AGLMVadvJt0FXMUsL/0KzmAhs77SFVifdBlHuARjfDcCTgA+mCzKmvcDZlPdNG0tH6w5OF0DNcuxpcA5kGC8Q+s2+GmDGpPspLV3/PmKWngTM4id/x3899deEzqbcYNIDZ7n4a/x0O650X6Wl699nDDkRmPWF3/FfR/01gROBW8gPmuXia8DhfTXADEr3V1q6/tOIISUCrSz8jv866q8xbQIuJT9glovbgJP7aoAZle6ztHT9pxk1JwKtLfyO/zrqrzGsA/6S/GBZLvYAZ/XVADMs3W9p6fqn5kotiUCrC7/jv476awyvJj9QVopX9lb72Zbut7R0/ZORTARaX/gd/3XUXytw099sS/ddWrr+NYSvA85FWuv11zLc9Df70v2Xlq5/TdFnIuDCv3iktV5/LcFNf21I92Fauv41RpeJgAv/8pHWev21CDf9tSPdj2np+tcca0kEXPjHi7TW669FvJr8wFgp3PTXjXQ/pqXrP4SYJBFw4Z8s0lqvvxZw019b0n2Zlq7/kGK5RMCFf3WR1nr9Nc9QNv0d1lcDNCjdn2np+g8x5icCLvxri7Sm6++nyDttAj4HPDhdkGXcDpwOfDVdkBmSnoTpOZiu/5Dtmftzv2gphq318R+t//7Ji1dkHfCn1L347wVegIu/VAsXfg3a+nQBKnEu8Nx0IVZwLvD+dCEkSbMh/filBmdTNtXVnAy9F3g2+cdVsyjdpuk5mK6/2tb6+I/WP934aScCn6fuk/QuBx5DOfRH3Wv6BkC+/mpb6+M/Wv+aP/X2bRPwHupe/G+nfPJ38ZckdarVBMBNf5KkprWaALjpT5LUtPT3Lwlu+tN86TZOz8F0/dW21se/mwCnyE1/WqjpGwD5+qttrY9/NwFOiZv+JEma00oC4KY/qU57Vv5P1BPbvnGtJABu+pPqdAJwHrA7XZCG7AXeBZySLojUN1/vq+Wk+z6tlvr7Vr3+Y7HXGafLlNZ6/WfaEF7v+1V8vW9Suv/Taqu/iUD3sdjCP5IuW1rr9Z9Zm4BLyXfwcnEbcHJfDaCxpMdAWq31NxFYeyy38I+ky5jWev1n0jrKd1zpzl1pcp7VVwNobOlxkFZ7/U0EJo9xFv6RdFnTWq//THo1+Y5dKV7ZW+01ifQ4SBtK/U0EVo5JFv6RdJnTWq//zHHTnyaRHgtpQ6u/icBdYzUL/0i67Gmt13+muOlPk0qPh7Sh1t9EYG0L/0i6Dmmt139muOlPq5EeE2lDr3+LiUAXC/9Iui5prdd/JrjpT6uVHhdps1L/FhKBLhf+kXSd0lqv/0x4NfmOXCnc9Fen9LhIm7X6z2Ii0MfCP5KuW1rr9R88N/1pLdJjI21W6z8LiUCfC/9Iuo5prdd/0Nz0p7VKj4+0Wa//EBOBaSz8I+m6prVe/8Fy059KQE6eAAASO0lEQVS6kB4jaa3UfwiJwDQX/pF0ndNar/8guelPXUmPk7TW6l9jIpBY+EfSdU9rvf6D9GryHbdSuOlvGNLjJK3V+p8EnL9MuaYV58+VJSVd/7Sm6z/EjWlnUzbVrU8XZBnvBZ5NBR2sFaX7KD0HrX+W9c9quv7pxp/UicDngcPTBVnG14DTKd//q35N3wCw/tY/y/oH1fwpeqFNwF9R9+J/G/DjuPhLkio3lARgHfCnwEPSBVnGXuAFlJ/9SZJUtaEkAOcCz00XYgXnAh9IF0KSpHGkv38Zh5v+1Kd0n6XnoPXPsv5ZTdc/3fgrGcKmP2kt0nOw6Rsg1t/6Z7kJcAlD2PQnSdIg1ZoADGHTnyRJg1VrAjCETX+SJA1W+vuXxQxh05/UlfQcbPo7UKy/9c9yE+A8bvpTa9JzsOkbINbf+me5CXDO/sD/wcVfkqTe1ZQA/CbwyHQhJElqQfrxy8hm4HLggHRBpClLz8GmH4Fi/a1/ll8BAC/DxV+SpKlJZ18AhwHXUg7+kVqTnoNNfwLC+lv/rOafADwZF39JkqaqhgTgKekCSJLUmhoSgNPTBZAkqTU1JADHpAsgSVJrakgA7pkugCRJrUnvwIT8LkwpKT0H0/PP+mdZ/6zmfwUgSZKmzARAkqQGmQBIktQgEwBJkhpkAiBJUoNMACQlnQ+clC5Eg06itL0alv4JBuR/hiElpedgDfNvL/Bu4Fzga1O+drr+0+7/zcCvAy8G9p/ytRfT+viP1j/d+JDvACkpPQdrmn+JRCBd/2n1f20L/0jr498EIF0AKSg9B2ucf9NMBNL177v/a134R1of/yYA6QJIQek5WPP8m0YikK5/X/1f+8I/0vr4NwFIF0AKSs/BIcy/PhOBdP277v+hLPwjrY9/E4B0AaSg9Bwc0vzrIxFI17+r/h/awj/S+vg3AUgXQApKz8Ehzr8uE4F0/dfa/0Nd+EdaH/8mAOkCSEHpOTjk+ddFIpCu/2r7f+gL/0jr498EIF0AKSg9B2dh/q0lEUjXf9L+n5WFf6T18Z+uf9y+cKhtrY+/7eTboKvYA7wTeNAE9U+XeVybgTcDuyooc1exdYL69yXdBs2zA5TU+vj7Nvk26DomSQTSZV3JLC78o7hmjPr3Ld0GUb4LQGrbtekC9GA9cA5wCcN918DorP4rgJcyG4/7F5rFsTcoJgBS2z6fLkCP9gN+CriMyb8aSBl94r+EUvb9ssXp1SyPvUEwAZDa9ql0AaZgCE8EWvjEv9Cn0wVQXtPfwSiu9fG3AbiNfDtMM+bvEUiXZZa/418ubqWMvbR0O0TV8BOEdCPU0AbKcfzBecDPpwsRsIf8I/YaypDwJuAX04Wg8flfw82n6Q5QnOMP7g9cDhyULoiasBM4EfindEFofP67B0DSt4A3pAuhZryeOhb/5tXw6aPpDExxjr/iAOAC4NHpgmimfRk4A7gjXZA5Tc9/nwBIgrIJ7fnA9emCaGZdR/k1Ri2Lf/NMACSNfBP4F8DN6YJo5twEPA24Ml0Q3ckEQNJ8lwKPwENa1J0LgcdSxpYqYgIgaaFrgR8CXgPsyBZFA7YD+B3Kd/5XhcuiSjV9EIPiHH/LO55yQt1u8m1lDCN2U8bM8dQv3VbNswOU5PgbT6sn1hnjx2pex5yWbrPm2QFKcvxNxkTAWBhDXPhH0m3XPDtASY6/1TERMIa88I+k27B5doCSHH9rYyLQXszCwj+Sbsvm2QFKcvx1w0Rg9mOWFv6RdJs2zw5QkuOvWyYCsxezuPCPpNu2eXaAkhx//TARGH7M8sI/km7j5tkBSnL89ctEYHjRwsI/km7r5tkBSnL8TYeJQP3R0sI/km7z5tkBSnL8TZeJQH3R4sI/km775tkBSnL8ZZgI5KPlhX8k3QfNswOU5PjLMhGYfrjw3yndF82zA5Tk+KuDiUD/4cJ/V+k+aZ4doCTHX11MBLoPF/6lpfumeXaAkhx/dTIRWHu48K8s3UfNswOU5Pirm4nA5OHCP750XzXPDlCS428YTARWDhf+yaX7rHl2gJIcf8NiInDXcOFfvXTfNc8OUJLjb5hMBFz4u5Duw+bZAUpy/A1bi4mAC3930n3ZPDtASY6/2dBCIuDC3710nzbPDlCS42+2zGIi4MLfn3TfNs8OUJLjbzbNQiLgwt+/dB83zw5QkuNvtg0xEXDhn550XzfPDlCS468NQ0gEXPinL93nzbMDlOT4a0uNiYALf06675tnByjJ8demGhIBF/4853+YHaAkx1/bEomAC389nP9hdoCSHH+C6SQCLvz1cf6H2QFKcvxpvj4SARf+ejn/w+wAJTn+tJguEgEX/vo5/8PsACU5/rSck4A3AVsYv0+3AH809/9V3Zqe/+vSBSDfCDW0gXIcfxrHJuDpwFOBU4HjgcPm/t1twDeBi4APA38H3B4ooybX9Pyv4ebTdAdU7BDKje5U4Djg/sD9gGPm/t3B/OANcAewHbge+BbwT8DVwIWUG+OOqZV8Mo4/1aiV+ZfW9Pyv4ebTdAdU5FDgh4EfAc4AHgLs39HfvQu4FPgs8EHgo8DWjv7utXL8qQatzr80539Y09/BhB0OvITy2HIH02vzHZTHpD/HnZ9iUhx/SnH+5Tn/w+yA6Xsy8L+BbeTbfytwPvCkXmu8tHT91R7nXz3S7d88O2A61gNnUx4Dptt8qfgy8EJgv57aYDHpOqsNzr86pdu8eXZA/54FfJV8W48blwE/1ktL3FW6rpp9zr96pdu6eXZAfx4BfJx8G682Pgac1nmr/KB0HTW7nH/1S7dx8+yA7h0MvBbYTb591xp7KSeybey0he6Urp9mj/NvONLt2zw7oFuPZViPG8eNbwBP7LCdRtL10mxx/g1Lul2bZwd0Yx3wMrLvN+87dgO/RdlQ1ZV0nTQbnH/DlG7T5tkBa7cJeBf5tpxW/A1wt05aLl8XDZ/zb7jSbdk8O2BtjmM2HzmuFJdRjkddq3Q9NGzH4fwbsnQ7Ns8OWL0HA9eQb8NUXAc8bI1tmK6Dhsv5t/b5l5Zuw+bZAatzBvA98u2Xju8Cp6+hHdPl1zA5/7qZf2np9mueHTC5U/HmMz9uofzmejXSZdfwOP+6m39p6bZrnh0wmROAG8i3W21xE3DyKtozXW4Ni/Ov2/mXlm63qBpeRZhuhBraYFz3Bv4BuG+6IJW6BngM5QY9LsefxuX8W95q5l9a0/N/ln7POesOBP4Cbz7LORb4K+CgdEE0c5x/K3P+aWJNP4KZwFvIt9VQ4m0TtGu6rBoG518/8y8t3VbNswNW9nPk22lo8aIx2zZdTtXP+dff/EtLt1NUDd8/phuhhjZYzmbgIsppYxrfVuDhlDPMl+P403Kcf6sz7vxLa3r+uwegbuuBP8Obz2psBN4K7Bcuh4bL+bd6zr8BMAGo2y8DT0oXYsAeD/xSuhAaLOff2jj/KlfD48emH8Es417A5czOSzdSvg+cBNy8xL93/Gkxzr9urDT/0pqe/z4BqNfv4s2nC3cH/nO6EBoc5183nH8Vq+HTR9MZ2BIeBvwjJmhd2UvZkPSVRf6d408LOf+6tdz8S2t6/jvA6/Qq7JsurQd+M10IDYbzr1vOv0rV8Omj6QxsEQ+mZMregLq1l/ISl0sW/O+OP83n/OvHUvMvren57yCvz29gv/RhPfAf0oVQ9Zx//XD+VaiGTx9NZ2AL3BO4Fs/S7ssdlLPc5+9IdvxpxPnXr8XmX1rT899Mty4vwptPnw4EXpguhKrl/OuX868yNXz6aDoDW+AyhvlO7SG5nNLGo3Hn+NOI869/C+dfWroc0flfw80n3QEaz+3A+4GPUc5Gvxq4Ze7f3Q04jvJTn6cAz8TjU6UuOf9mUw1rcFT6bUzG8nEd8K+ADUt14CI2AC8Brqig/IYx5HD+zXY0L90BxuKxnfJ76I1Ld92KDgBeAeyooD6GMaRw/rURUTU8fog3gu7iO8BzgE929Pc9FngPcHRHf580y5x/7XAPQLoA+gEXA2cB13T89x4L/C1wSsd/rzRLnH9tMQFIF0D/7BvAmcCNPf39xwJfAI7q6e+Xhsz51x7PAVAVdgDn0N/NB8qnmmcDO3u8hjREzj9NnQmARn4XuHAK1/ks8HtTuI40JM4/TZ1fAQjgeuAEYOuUrnco5SdKbkqSnH8t8ysAxf0207v5AGwBfmeK15Nq5vxThE8AtAU4Zu7PadoI3ED5NCK1yvnXNp8AKOp9TP/mA+UTz98GrivVxPmnGBMAfTx47Y8Fry3VwPmnGBMATWPn8VIuCl5bqoHzTzEmALoqeO0rg9eWauD8U4ybAHUQcEfw2jtC15Zq4PxrW/ObAFODX5KklPiJjDUkALelC9C4w4LXPjx4bakGzr923ZouQA0JQPI7MMHm4LUfELy2VAPnX7viezBqSACSu2AFDw9e+9TgtaUaOP/aFf8VRg0JgL9FzXpK8No/HLy2VAPnX7s+mi5ADb8COJRyJOXGdEEa5VGkUo7zr01bKS9jSpwC+c9qeAKwBXhHuhANOxT4l4Hr/iTefCTnX5v+L+HFH+p4AgDlVZiXAgekC9KobwAPBnZN6XoHAl8juwFKqoXzry13UPr7m+mC7JcuwJzvAZuAx6cL0qh7UB5JXTCl670CeM6UriXVzvnXlv8KvCtdiNocDHyWcjKgMf24A3jiir20do+jnD6Wrq9h1BTOvzbiM5QTGKtQy1cAI0cDnweOTRekUTcCjwau6envvx+lf4/q6e+Xhsz5N9uuAx4DfDtdkJEaNgHOdwNwFnBtuiCNOoryjvA+ErD7AR/Am4+0FOff7LoWeAYVLf41OxL4BPnHNa3GzcCTVuyl8Z0BXF9BvQxjCOH8m634LOXpdnVq2QS40DbKTwP3Ao+i7FrV9GwAng/spjwy3LPKv+dAyoajPwPu1k3RpJnn/JsNdwC/D/wsFZz7P1RHA/+L8pvJdCbXYnwT+HkmO6hpI/BSylnX6fIbxpDD+Te82AKcxwDetVDbJsDlHAo8E3gy5fzszZSs1qcD07GF8v3kxyjvb7gKuGXu392N0h+nUfrnR/GQEalLzr863UHph6so/fIxSj/FD/kZx5ASgBZcBpycLsSMu5zSxvvSBVF1nH/9c/5VpLZfAbTuT9MFaMB5ePPR4px//XP+VcQnAHU5gvIzkWoOipgxOyk/sbo5XRBVyfnXL+dfZXwCUJfv4hGRffoLvPloac6/fjn/pBWcTPnZT3on66zFHuAhE/SD2uT8c/41wycA9fkq8JfpQsygd1LeOCktx/nXD+efNKaH4qeQrj99nDJRD6hlzj/nnxQ12i1rrD3eNGHbS84/59/M81cA9TqC8pvZI9IFGbjvAycC30kXRIPi/OuG869itb4LQLB9Lp6RLsjA/RrlxVLSJJx/3XD+Sau0Hvg4+Ud4Q41PYZKr1XP+Of+kqOMob5JKT+ahxa1zbSetxXE4/5x/UtCLyE/oocXPrqahpUU4/5x/UtSbyU/qocSfrbKNpaU4/5x/UswBlM006clde1yAZ7mre84/558UdTTwLfKTvNa4Cjhq1a0rLc/55/yToh4IXE9+stcWNwIPWkO7SuNw/jn/pKiHUt5clp70tcT3gdPW1KLS+Jx/zj8p6jGU07XSkz8dNwOPWmNbSpNy/jn/pKiTafs7yW9TPo1JCc4/558UdSxwCfmbwbTjK8B9O2g/aS2cf5KiDqW8bzt9U5hW/DVweCctJ62d809S1DrKizd2kb9B9BW7gH+Pb7FUfZx/kuJOBy4jf7PoOi6lbLySaub8kxR1MPBaYDf5G8daY9dcXTxdTEPh/JMUdzLwAfI3kdXGR4BTO28VaTqcf5LizqI8wkvfUMaNS4Af7aUlpOlz/kmKWgecTXlZR/oGs1R8EXghsF9PbSClOP8kVeEJwNuBLeRvOluAtwKP77PCUkWcf5LiNgEvBj4EbGd6N53twAeBF1F+Qy21yPmnKH/PqZENwFOAHwHOoBzxeUBHf/cu4GLgs5Qbz8eBbR393dIscP5p6kwAtJSDKDuATwWOA+439+cxlJ85bQAOm/tvb6PcUHZQXpV6NeWM9G8BFwIXAXdMq+DSDHD+SZIkSZIkSZIkSZIkSZIkSZIkSZIkSZIkSZIkSZIkSZIkSZIkSZIkSZIkSZIkSZIkSZIkSZIkSZIkSZIkSZIkSZIkSZIkSZIkSZIkSZIkSZIkSZIkSZIkSZIkSZIkSZKkKvx/ZyQ7d9RuTrIAAAAASUVORK5CYII=;strokeColor=none;" parent="1" vertex="1">
          <mxGeometry x="904" y="-563.5" width="47" height="47" as="geometry" />
        </mxCell>
        <mxCell id="Mpb16fFOWcYmd3spKum3-256" value="" style="shape=image;imageAspect=0;aspect=fixed;verticalLabelPosition=bottom;verticalAlign=top;image=data:image/png,iVBORw0KGgoAAAANSUhEUgAAAgAAAAIACAYAAAD0eNT6AAAACXBIWXMAAA7DAAAOwwHHb6hkAAAAGXRFWHRTb2Z0d2FyZQB3d3cuaW5rc2NhcGUub3Jnm+48GgAAIABJREFUeJzt3XvUblVd6PHv3hvYbK4CgpipwAY2AqkoerqadvJ2MrUUjbKyozKy08WudjKNxFIw8zI8JnbUFC2zstPRyryBoGKmcvdAhojc75fYwN7svd/zx3qfwcvDu9/LM+dcv7nW/H7G+A0d5buf+futtZ75e9Zacy2QJEmSJEmSJEmSJEmSJEmSJEmSJEmSJEmSJEmSJEmSJEmSJEmSJEmSJEmSJEmSJEmSJEmSJEmSJEmSJEmSJEmSJEmSJEmSJEmSJEmSJEmSJEmSJEmSJEmSJEmSJEmSJGl5a6IHIEmqwu7ARuBQ4JD5eBjwUOAA4EBg3/n/7Xpgj/n/fjewZf6/3wHcBNwM3ALcAFwBfHv+P78F3FsyCa2cDYAktWdf4PuBJwCPnY8jgHWFP3c78E3gwvn4OvAlusZBPbMBkKTx2w94OvA04AeBo4G1oSO63w7gEuALwOeAzwC3h45IkqQBewzwGrqJdRswN5C4Dzgb+D1gU/aqSJI0QofTTfoXED+R54rz6ZqBwzLWSZKkwdsNOAH4NN3p9OgJu2R8FTgJ2JClcpIkDdB3AW+iu+s+emLuO24C3gg8PLmKkiQNxGOBD9AtvYueiKNjC/B+4NikikqSVLGjgY8y/tP8s8QO4OPA42euriRJldkIfJhuDX30RFt7bAfOwBsGJUkDtidwMnAP8RPr0GIL8HZgn9UWXZKkKGuAlwLXEz+RDj2uBX52VdWXJCnAocCniJ84xxZnAUeufDNIktSPtcBvAJuJnyzHGncBr6KeRyBLkhr3SLpn4EdPkK3EZ4HvXtGWkSSpkBcBtxI/KbYWtwAvWMH2kSQpq13onuIXPRG2HqfTPUpZkqTiDsRT/jXFOfhIYUlSYcfTLU2LnvSMB8Y1wBOX2G6SJM3sWcCdxE92xuJxF/DjO916kiTN4FeBbcRPcsbSsQ34pZ1sQ0mSVuXVxE9sxuriTYtuSUmSVugU4iczY7Y4dZHtKUnSktYA7yB+EjPS4u3TG1aSpKW4xn888VYkSVqBk4mftIy88ftIkrSEXyV+sjLKhKsDJEmL+jFc6jfm2AY8D0mSFngi3YNkoicpo2xsBp7MSKyJHoAkDdzDga/h8+RbMXls8A3RA0m1NnoAkjRguwJ/jZN/Sx4BfIwRvEVwXfQAJGnA3gG8MHoQ6t0jgb2Af4keSAovAUjSbF5E9+t/jO4E/h24DLh0/r9fRXefw2bgtvn/BNgT2I9uQtyTbnLcBBwFHDkf+/Q49j69gO5sgCSpEY8AbiH+prRccRfwabr3FjyR/JeHDwNOAj5K1zxE55srbgUelbFOkqSKrQXOJH7ySY3bgf8N/DCwS9YKLW0X4KnAe4E7EnOoIT6D99NJUhN+k/hJZ9bYAfwz8FPAhtyFmcEG4ES6Me0gvj6zxqtyF0aSVJdDGOZ6/+3Ax+lO79fqWOCDwH3E12u1sZnuMockaYTWAJ8lfrJZTWwD3gccUaAepRwJvJ/hPVXxkyWKIUmK91LiJ5nVxLnAcSUK0ZMnAF8mvo6riZcUqYQkKczewLXETzAriVuBX2Mcz3lZA/wccBPxdV1JXM94lzxKUpNOJX5yWUl8AjiwUA0iHQj8I/H1XUn8UaEaSJJ6thG4l/iJZanYCvwW43642xrgd6j/JsF76G4WlSQN3F8SP6ksFd8BfqBY9vV5MvAt4uu+VHygWPaSpF4cQ7eELnpC2VlcBHxXsezrdTDwdeLrv7PYBjymWPaSpOL+jvjJZGdxJrBvudSrtxfwKeK3w87iI+VSlySV9FjqfTrd3wLry6U+GOupt0nbTncGSZI0MB8gfhLZ2eQ/hiV+uayj3ibgvQXzliQV8AhgC/ETyHScCexeMO+h2o06LwfcCzy8YN5J+nwDlCQNxa/QTSo1OQ94Ht2k0peDgKfQnco+iu4xvfsBD6G7Bg/duxFup3vN72XApcAlwDnAjT2NcytwAnAW8PiePnMl1gO/DLwmeiCSpOWtp74nz10JPKxk0gs8CfhTuhUGKfdA7Jj/N94CHN/T2A8GrkoYc4m4kfqaSUnSIn6a+EljYdxH+XX++9A9SOgbBfO4ZP4z9i6cy/fSnRGI3m4L44SiGUuSsjiT+AljYfxWwVz3B/6Q7v0BfeVzK3Ay3aWEUn63x3xWEp8qmKskKYPDqWvp3yco83jfyUt2bgzM7Ra6lxatLZRfTe8O2I6PB5akqr2G+MliEjdT5sU+hwNfrCC/SXyB7n0LuR1E12RE5zeJ3ymQoyQpkwuJnygm8YoC+f0E3d360blNx53ATxXI9xcryG0SXyuQnyQpg6OInyQm8RXynhpfC7y1gryWi7cUyPvLFeQ1iSMy5iZJyqSW0//bgOMy5rUb9b/RcGF8GNg1Y/7H09U0Oq854NUZ85IkZfIF4ieIOeB9GXPajbpuhltpfIK8TUAtj3U+K2NOkqQM9qNbbx89QWyje9peDmuoZ+KbJf6SfJcDjqKO1zpvpe03OEpSdV5E/OQwmfRyGcI1/+XizRnr8dEK8pmjuxFTklSJ04mfGHYA35MpnxMqyCdXnJipJo+jjmc8vDNTPpKkDGpY/vfPmXLZSPdynuh8csXtwGGZavMvFeRzXqZcJEmJHkId14dzrINfQ10P+ckVZ5PniYg/U0Eu2/A+AEmqwrOInxRuBzZkyOXlFeRSKn4+Q332oHvoUHQuz8iQS7ISz2CWpCF5UvQAgL8B7kn8N/YH3phhLLU6je5sTYq7gb/NMJZUfb0eeUk2AJJad2z0AIAPZfg3XgU8NMO/U6uDgF/N8O/kqHWqXDd7SpISXErs6eA7gV0Sc9iHfl/pGxW3AHsn1moX4i8DXJyYQxaeAZDUsg10b8eL9Hm6G8NSnET3MKOx25/0lyRto3vqY6RNwPrgMdgASGraYcC64DF8LsO/8fMZ/o2heFmGf+PMDP9Gil2AQ4LHYAMgqWmHRg+A9AbgSdRxH0Nfjib9ZUk5mq5U4fueDYCklh0S/Pl3Ahcl/hu5npQ3JD+d+PfnAXflGEgCGwBJCnRI8Of/O93jaVNUsaa8Zz+a+Pc76GofyQZAkgIdHPz5lyb+/UF0p8Rb8zjSlzxelmMgCR4W/Pk2AJKaFr1uPnUSegp5HpE7NGvock8R3QBE73s2AJKaFv0lnDoJtXTz37RjEv/eBiB6AJIUaP/gz78m8e83ZRnFMKXmflWWUczugODPtwGQ1LS9gj//zsS/PyLLKIbpyMS//88so5hd9L5nAyCpabsFf37qJBR+GjlQau7RDUD0vmcDIKlp0V/CqZNQ6nPxhyw19+gGwEcBS1Kg6AYg9WE04aeRA9kAJLIBkNSy1IfwpEp9C6BmF1377cGfbwMgqWl3B39+6nXs6MfZRkr9BX9gllHMbnPw59sASGpa9Jfw0G9kizT0Gyij9z0bAElNi/4FfVDi39+cZRTDlJp7au1TRe97NgCSmnZd8Oc/NvHvo19oEyn1SX6PyzKK2V0b/Pk2AJKa9p3gz39C4t9HP842UmruqbVPFb3v2QBIalr0l/ATE//+4iyjGKZLEv8+tfapovc9GwBJTbsy+PM3Ag9J+PtzgLlMYxmSHXS5z2o/4JA8Q5mZDYAkBUr9FZlqDfDDCX9/I/E5RLiAtJsAn0b8a5TDz97YAEhq2UXE/4J+ZuLffzrLKIblM4l//6wso5jdDtps3CSpKpfTNQFRcUXi+I8PHn9EPD6xZlcGj7+Kmzc9AyCpdRcGf/4hpL3b/qtUcDq5R98Azk/4+2OAR2Uay6wuCv58wAZAkr4SPQDgvyX+/QeyjGIY3pv498/OMoo0NexzktS8HyL+lPaXEnPYG7i1gjxKxy2kvwXwKxXk8X2JOUiSMlgP3EPshLCD9GVpfxicQx/x2sQaHUZX68gc7ib+NdSSpHlfIH5ye3ViDvvRLQuMzqNUXA/sm1ij11SQx1mJOWTjPQCSVMeX8k8l/v1twO/mGEilfhu4I/HfeHGOgSQ6O3oAkqT71XAfwBxwVGIea6jjbEbu+DzpD+45poI85oDvT8xDkpTRLsDtxE8Ob8yQy8ZKcskVt9Fdu0/1JxXkcivdviZJqsjHiJ8grgd2zZDLCyvIJVf8ZIZ67AbcUEEuf50hF0lSZicRP0HMAT+RKZ+3VJBLapyaqRYnVJDLHPALmfKRJGV0MLCd+EniHzPlswZ4fwX5zBofJt+N6p+qIJ9twEGZ8pEkZVbDDXTbgUdnymdXuoYiOqfVxsfJcykE4FDqaOw+lymfbFwGKEn3+1j0AOi+l3OdKr4PeB7wvkz/Xh8+RHfd/75M/97LqWOu+z/RA5Ak7dwhxD8pbo7uhrXdM+a1BnhzBXktFTvorvmnLvdbaD113Py3A3hkxrwkSQX8G/ETxhzwswVyez51vjPgDuBFBfL9hQpymwPOLZCbJCmzXyN+wpgDvlYov8PonkYXnd8kPk93nb6E8yvIbw74pUL5SZIyOgC4l/hJY45yT41bA/wcsafHb6FbepnzlP9CTw3MbWFsodunJEkD8PfETxxzwEcK5/kQ4HV0k3FfOd1M91a/1Bf7LKeGBzvNAX9TOE9JUkbPI37imAO20s/NY3sBvwFcXDCXi4Bfn/+s0g6lW3cfvf3mgOcUzlWSlNEudI/ljZ485oA/LZzrtOPoVgycT9r6+e3AecBpwON7zQDemTDunHED+Z5nkF2pay+SNHRvo7shMNpmugcD3RLw2Q8FngIcDTwGOBLYn+7SweSX/F10Lx+6FbgMuBS4BDiH7nR/3w4ArgT2DPjsaX8K/Gb0ICRJq3Mc8b8gJ/H7hXMdk9cTv70m8bjCuUqSCqllGdkNwIbCuY7BHsBNxG+vObrLH1Wr4fGIklSrD0YPYN5B+Ca5lXgF3WWLGnwgegCSpNkdRD3PBLgcWFc23UHbFfg28dtpjm6fObBotpKk4j5A/IQyiZ8pnOuQ1fLY3zm61zBLkgbuCcRPKJP4Bl66Xcw6uhUI0dtnEseXTVeS1JcvET+pTOLFhXMdopcQv10mcU7hXCVJPTqR+IllEpfgWYCF1tI9ZTB6u0yixFsNJUlBdgWuIn5ymcQLy6Y7KC8mfntM4hoqfvKfJGk2ryV+gpnExXgWALqn2V5A/PaYxO+VTVeSFOFh1LMkcA54ftl0B+EFxG+HSdyDS/8kabRqWhJ4EW2fBVhH2bcXrjbeWzZdSVKkmpYEztHd/d6qnye+/gvjiWXTlSRF+yLxk80kLqfNm852A64gvv6T+HzZdCVJNXgu8RPOwnhl2XSr9CvE131hPLtsupKkGqwBLiR+0pnEtXRvwWvFnsB1xNd9EufT7ROStKgNdA8IeQfwZeBqYPN8XD3/f3vH/P/G177W72eIn3gWxqvLpluV3yO+3gvDB/9IWtSjgPcAd7DyL5Q7gNPn/1Z1Wgd8k/jJZxK3AfsVzbgODwFuIb7ek/gPfEOjpCl7AafRrQ2e9cvlnvl/Y6+ex66V+UXiJ6CF8Yay6VbhTcTXeWG8rGy6kobm2eR9L/k1wE/0mYBWZD3dtomehCZxF3Bw0YxjPZzukll0nSdxFd1qBElif7pT96W+cD4KHNRbNlqJ3yZ+IloYby+bbqh3EV/fhfGqsulKGooTgJso/6VzG3AS3nVciz2Bm4mfjCaxBTisaMYxDqHLLbq+k7gZL81JzTsM+BT9fwF9Hjiqh/y0vD8kfkJaGO8vm26IM4iv68J4bdl0JdVsF+DX6K67Rn0J3Q2cjNcho+0P/Cfxk9IktgFHF824X8cC24mv6yTuAg4omrGkaj0e+Dfiv4gmcQHwX4pmrOWcSvx+sDA+VjbdXv0D8fVcGH9cNl1JNdqDbhnSNuK/hKZjO90NiHsXy15LOYDVPeuhj3hK0Yz78VTi67gwbqc74yOpIbmX9pUKlwzGOYX47b8wvs6wXxe8Fvgq8XVcGH9QNGNJVSm9tK9UuGSwf/sCtxK/7RfGzxXNuKyXEV+/hXEb3ZMIJTWgr6V9Jb+wXDLYr9cSv90XxtV0SxWHZi+6lxxF129h/M+iGUuqQtTSvlLhksH+7AXcSPw2Xxh/UDTjMl5PfN0Wxk14f400ajUs7SsVLhnsz6uJ397T2/6RRTPO6xHUdwz+ZtGMJYWqbWlfqXDJYHl7AtcTv60XxvuLZpxXbQ/9uY5uBZCkkal5aV+pcMlgeb9O/Hae3ubHF804j+Oo66E/c8CvFM1YUoihLO0rFS4ZLGd3urfFRW/jhXFWyYQzOZv4Ok0fIxuKZiypV0Nd2lcqXDJYxiuJ37bTUXPD9wLi6zMdJxXNWFKvhr60r1S4ZDC/XYBvEL9tF8blwPqSSc9oN+CbxNdnYVxKtw0lDdzYlvaVCpcM5lXjr9rfKJrxbH6b+LpMx/OLZiypuDEv7SsVLhnM64vEb9OFcRvw0KIZr86BdM/Yj67Lwvgyng2TBq2VpX2lwiWDefwQ8dtyOt5RNOPVeSfx9ZiOHyiasaRiWlzaVypcMpjH/yV+Wy6M+4DHFs14ZY6hG0t0PRbG3xfNWFIxrS/tKxUuGUxzFPVNdOcQe5p7DXDmIuOKjG3A0SWTlpSfS/v6CZcMzu7Pid9+03Fi0YyX9pIlxhUVpxfNWFJ2Lu3rN1wyOJvvor6bUa8D9imZ9E7sTXdWKTr/hXE38N0lk5aUj0v7YsMlg6v3R8Rvt+k4rWjGi3tLwnhLxSlFM5aUhUv76gmXDK7OvtR3tmor8JiSSU85ev4zo/NeGDcScyZE0iq4tK/OcMngyv0P4rfXdHymaMYP9NmCecwaryyasaQkLu2rP1wyuDLrgAuJ317T8cKSSc97cWB+O4tL8JG/UrVc2jescMng8v4r8dtpOr4D7Fkw5z2o8zh+RsGcJc3IpX3DDpcMLu0TxG+j6XhDwXzfVEF+0/EPBfOVNCOX9o0jXDK4c5uo72a4LfPjyu0I4N4K8lsYW4EjC+QqaUYu7RtnuGRwcW8jfttMx78UyPOfKshrOt5SIE9JM2htad/kOnlL9ze4ZPDB9qPOM13Py5jjT1aQz3TcQneJUVKwlpb2LXanfGsrHFwy+EC/TPw2mY4r6fbLVBuAKyrIZzpc9icFc+J7oNYboVbtQrcULXqbTMfrM+RW45MPL8Jlf1IoT30vrtVLIa2rcVngFtLejHfM/L8Rncd0PDMhJ0kJWlvaN+vNb63dDOmSQfg48dthOs5mthUca+heNxw9/un4+xlykZRBS0v7ci1/s2bt2AjcQ/x2mI6XzZDLSRWMezruBg6dIRdJCfw1m8azJu04hfj6T8ctrG5/fhhwawXjno6TV5GDpERez87L+ybGr9a75j+4ihw+XMF4pyPXqgZJK+Ad7WW4cmL8Xkh83ReLH13B2J8G7KhgrNPx/BWMXVIiJ6h+2GCN2yeJr/t0fBPYfYkxrwcurWCc0/HpJSstKQtPUffLSyzj9Rjqe0/AHN09CjtT45r/LbR7P4nUC29Si+VNluP0J8TXejp29myATdT3sp85urORkgpxmVo93BbjsjfdWY/oWk/HOTyw7muAMysY13RcB+yzinpLWiF/ddbJszHj8hLia7xYvHzBGF9RwXgWixNXVWlJy/K68zB4P8Z4fIb4Gk/H5NkAD6XOs05nMu6zQ1LvvPN8WFyRMQ5HUOcTAs8APlTBOKbjXrp7EiRl4EQybDZuw3cy8bUdSrx2thJLmuap5HHw0s2wrQf+H/F1rT0um6+VpATeTDZO3rw5XD9MnU/ZqyV2AD8yc3UlAS4na4HbeJg+SHw9a433JdRVap6/DtviWZ7hOYB2GrfVxM3AgQl1lZrV2vXhqxnX9eFUz6bON9CViDHc5/Fy4utYW7w0paBSq7xDXOBKjyFZA3yO+BrWEmczjss7Um/8wtdibAiHodZn7/cdO3s3gaSdcGmfltLaJaGhLhms8e17fcfrk6soNcKbvrQa3hRatw3AfxBft6j4JrB7chWlBrjsS7Ny36nXM4ivWVQ8PUP9pFHzV5xy8OxRvf6K+Hr1HR/KUjlppFq7juvSvn64ZLA+DwNuJb5efcXtwMOzVE4aIe/kVkmuIKnPK4mvU19xUqaaSaPiF7P6ZKNZj7XAF4mvU+n48nyukhZwaZ8itHapqeYlg99Dty4+ukalYgtwbLZqSSPgzVmqgTeb1uFk4mtTKl6Xr0zS8Lk8S7Vxn4y1G3Ah8bXJHRfgGT8J8NeW6uZZqVjHAfcRX5dccR9wfNYKSQPU2vVWl/YNm0sG45xGfE1yxRsz10YaHO+41hC5MiXGeuAbxNcjNS6je+Sx1CS/QDUGNrD9+775sUTXI6WOP5S9KtJAuLRPY9LaJawalgy+k/g6zBpvL1APqXreRKUx8ybW/uwJXL6CMdYW3wb2yl8OqW4uo1Ir3Nf78SPAjlWONzJ20L3lUGqGv4rUIs929eN9M443Iv68UA2k6rR2XdSlfVqMSwbL2pfu2IvOfbm4FtivUA2kqnhntHQ/V7yU9ZxCeeSM5xfLXqqEX3TSztkYl/ORHnKaNT5cMG+pCi7tk5bX2qWxvpYMHgjcEJDfcnE98NCCeUuhWrzZaVOWyqll3hyb33MryHM6XlA0YymQy52kNB5DeZ1RQZ6T+IuCeUph/PUi5dPiWbRSSwb3Bb5TQY7X4F3/GpnWrl+6tE99cslgHk8n9gFBO+i2pTQa3sEsledKmjzeE5jTuwvkI4XwC0nqnw13mj2B/wjI5YrMeUhhXNonxWntklvuJYM/SL+vDd4OPDXj+KUQLd6U5NI+1cqbbmf3th7H/dZMY5bCuCxJqpPH5uptAM7rYbxfn/8saZD8lSHVr8Wzc6lLBg8Fbiw4xhuAQxLHKIVo7TqjS/s0Bi4ZXJ2j6N7Il3tsNwDHJoxLCuOdxtJwuUJndR4FfCXjeM6jO3MqDYpfHNJ42Miv3Abgj4EtCWPYArwB2H3GMUhhXNonjU9rl/JSlwweDvwZsHkVn7kZeBewMeFzpRAt3jzk0j61xpt5V2dP4IV0zcCXgOuAe+bjWuCLdJP+C+b/t9LguHxIpexN9wX6buBcurut752PG+f/b++m+wL1/ov+eMxLjfPXgErZRDexr+aU8110v7Q8M9OPFs/6lXrLoDQYrV0PvBp4fpbKaTmH0k0q9zH79tpO16z5Zd0PlwxKjfCOYJWQY+JfbPvZCPTDlT/SiHmAq4QSE/902Aj0xx8I0si4tE+59THxL/aFbSNQXmuXCHO/ZVCqQos3+XgDWVkRE/902Aj0w5uEpYFymY9yqmHinw4bgX74XSINhF27cqpx4p8OG4HyWjyb6P6kwWjtup1L+8oawsQ/HTYC5blkUKqMd+4qlyFO/IvtIzYC5biiSKqAB6JyGcPEPx02AmX5w0MK4tI+5TDGiX+xL28bgTJau/TokkGFavFmHJf25dfCxD8dNgLlePOxVJjLcZSqxYl/OmwEyvE7SsrM7lqpnPgfHDYCZbR4ltJ9SNm1dn3NpX35OfEvHzYCZbhkUJqRd9gqhRP/bPuhjUBerlSSVmF34C20c8CcDzwpS+UETvw5wkYgvyfRHevR27aP2Eb3Hb57lsqpGYcDFxO/A/cRdwOvprvMoXRO/PnDRiCvXeiO+buJ37Z9xEXAxiyV0+g9kXbunp2ja3aUzom/fNgI5HU48du0r7gBOC5P2TRWm2hr8p/LU7amOfH3HzYC+URvyz7jBuCIPGXT2OxBO6f9F4Zm48QfHzYC6aK3Yd9xId13vfQApxC/c0aEVseJv76wEZhd9LaLiFOzVE6j8QhgM/E7ZkRoZZz46w8bgdWL3mYRsRVvCtQC7yF+p4wKLc2Jf3hhI7By0dsqKk7PUTwN33rgDuJ3yKjQ4pz4hx82AsuL3kZRcRs+LVDAjxG/M0aGHsiJf3xhI7Bz0dsmMp6VoX5KsDZ6AMBzogegKkwm/n+ne7OYD0Yaj7V0b8e7BBsB3e+50QNoXQ0NgO+4b5sTfztsBLTQkdEDULxvEX8qKjJa5al+w0sD8dsgMr6ZoX5KsCZ6AMAW2r4ZpIZt0KdDgd8F/jv+2ldnB/B3wOuAS4PH0re56AEEuhfYED2IltUw+dxH2xNBDdugD078Wk6LjYANgMLUcA/A7dEDUFEbgTPoTvd5jf+Bts+HOpN7BC6m22d8WMy43RE9gNbV0ABcGT0AFbEH8Ed0N3y9BFgXO5yqbAc+BBwzHx/CRmChdXT7zCV0+5C/EsfpO9EDULzTib8ZJTLG6JHAvxFf29piqZvevCly53H+fH3GKLq2kfGuDPXTwJ1I/I4YGWPzPbT3SuflYhvdKe2VLHndNP+/3VbBuGuKG4FjV1C/oYmua2S8KEP9NHD7AHcTvzNGxZgcDlxHfE1ridVM/NNsBB4c1zK++wKiaxoVm4G9MtRPI+DLgIZvPXAe8fWsIXKub/fSwAPj64xr2XB0PaPiz3IUT+NwBN3zAKJ3yogYi1OJr2V0pPziX45nBO6PNybWsibRtYyILYzvTI4SnUb/O2INlx7G4NF0a3qjaxkVfT7RzjMC3QQylpsCo2sZ8R14apbKaVR2By6iv53wM3TXrKMPwDH4c+LrGBGTX/wRzzQ/krbPCLw7vYRViK7j4XTfhX193tfoLhdKD7KR7m7fkjvgLcBLuf8JfNEH4NDtAdxJfB37jMkv/hpeZNXqGYE76Pa9oYuuI3TfhS+l+24s+VnXAoell0xjdhzlmoAPAwdNfV4NB+CQvZj4GvYVkb/4l9PiGYExLCOLruFCB9F9R5b4nLEu41QBRwAXkm/n+zbw7J18Vk0H4BD9L+JrWDpq+sW/nJbOCLwjU80iRddwMc+m+87M9Rnn0d0nJK3YHnQ3Bm5l9h1vC/Bmll5vWuMBOCT/SnwNS8U24IPU+Yt/OUfSjX3MZwTOzVatONE13Jm96L5/70n4t7cAp9Dd3yXNZCPdcwJuZeU73ma6m4RWstSk1gNwKK5muIi5AAALKUlEQVQlvoa5Y0i/+Jcz5jMCV2esU5ToGi7nUXT7zx2r+Dfvojsz6PX+yg3pVbS7AT8CPJfu182j6XbONXQ3r1wFfBU4C/gnup1wJVZyEJQ0pG2wmHsYT4c/eR3ta4HLgseS2xhfxzyG18kO5ftnA/DjwA8CTwa+G9h//u9vA66ge2fDZ4FP0i0vVOWG9EWwlW7H+mT0QPQAY5n8NTzue/25h+6s2EejByLlVPspuNpF169EeAlgODF01k8K5AGYJrp+JWPIjcDYJ36PH+snJfMATBNdvz5iSI1AKxO/x4/1k5J5AKaJrl+fUXMj0NrE7/Fj/aRkHoBpousXETU1Aq1O/B4/1k9K5gGYJrp+kRHZCLQ+8Xv8WD8pmQdgmuj61RC+Djguhs76SYE8ANNE16+mKNkIOPEvHkNn/aRAHoBpoutXY+RsBJz4l46hs35SIA/ANNH1qzlSGgEn/pXF0Fk/KZAHYJro+g0hVtMIOPGvLobO+kmBPADTRNdvSLFUI+DEP1sMnfVTmKG/iS6H6INg6Nsgun5DNHnr4Ovo3pk+trf09cnjJ83Q66cEbnwPwFTR9Ruy7fP/uS50FMPm8ZNm6PVTAn9xSHGc+CWFWRs9AEmS1D8bAEmSGmQDIElSg2wAJElqkA2AJEkNsgGQJKlBNgCSJDXIBkCSpAbZAEiS1CAbAA3d9uX/JyrE2ksDZgOgoTsCeA+wLXogDdkB/A1wbPRAJCmFr+NMU0v9fJ1u+VjsdcbRYxo66ycF8gBMU1v9bATyx2IT/0T02IbO+kmBPADT1Fo/G4H0WGrin4ge49BZPymQB2Ca2utnI7D6WMnEPxE91qGzflIgD8A0Q6mfjcDysZqJfyJ6zENn/aRAHoBphlY/G4EHxywT/0T02IfO+kmBPADTDLV+NgJpE/9EdA5DZ/2kQB6AaYZevxYbgRwT/0R0LkNn/aRAHoBpxlK/FhqBnBP/RHROQ2f9pEAegGnGVr8xNgIlJv6J6NyGzvpJgTwA04y1fmNoBEpO/BPROQ6d9ZMCeQCmGXv9htgI9DHxT0TnOnTWTwrkAZimlfoNoRHoc+KfiM556KyfFMgDME1r9auxEYiY+Ceicx866ycF8gBM02r9NgFnLDGuvuKM+bFEic5/6KyfwqyJHkAFog+CoW+D1utn/rGi809l/RRmbfQAJElS/2wAJElqkA2AJEkNsgGQJKlBNgCSJDXIBkCSpAbZAEiS1CAbAEmSGmQDIElSg2wAJElqkA2AJEkNsgGQJKlBNgCSJDXIBkCSpAbZAEiS1CAbAEmSGmQDIElSg2wAJElqkA2AJEkNsgGQJKlBNgCSJDXIBkCSpAbZAEiS1CAbAEmSGmQDIElSg2wAJElqkA2AJEkNsgHQ0J0BbIoeRIM20dVekgZrLjiGLrp+c8B24KPAUYVzXUx07n07FDgduG/G8Q49/9ysnxTIAzBNdP0WRkQjEJ1zX2qb+D1+rJ+UzAMwTXT9Fos+G4HoXEurdeL3+LF+UjIPwDTR9Vsq+mgEonMspfaJ3+PH+knJPADTRNdvJVGyEYjOLbehTPweP9ZPSuYBmCa6fquJEo1AdE65DG3i9/ixflIyD8A00fWbJXI2AtG5pBrqxO/xY/2kZB6AaaLrlxI5GoHoHGY19Inf48f6Sck8ANNE1y9HpDQC0WNfrbFM/LPmXxvrJwXyAExzD/E1zBWzNALRY16psU38c8DmVeRfq+gaSk3zAExzDfE1zB2raQSix7qcMU78k7hqBfnXLrqGUtM8ANP8K/E1LBXbWP5dA9Fj3JnJs/q3VTDGUnHuEvkPRXQN1TBfBqRUX4keQEHrgJcA3yDuXQOrNfnFfzHd2NfFDqeoMe97knpgB57mRcTXsK9Y7IxA9JgmWvjFPx0nMHzRNZSa5gGYZg/gTuLr2GcsvEcgeixjvsa/VNxBt+8NXXQd1bA10QOoQPRBMIZt8B7gFdGDCLCd+FPsNYwhwruBV0YPIgO/fxTGje8BmMOjgcuA9dEDURO2AEcC34keSAZ+/yiMNwEqhyuBt0UPQs14K+OY/KVQdn924LnsCnwReFL0QDRqXwe+D9gaPZBM/P5RGM8AKJf7gBOB66IHotG6lu7O/7FM/lIoGwDldDnwdOCm6IFodG4EngF8K3og0ljYACi3S4An4ENalM/5wPfS7VuSMrEBUAlXA08F3gDcGzsUDdi9wCl01/yvCB6LpBHyQRxlbaS9J9QZaTF54uJGxi+61lLTPAD70eoT64yVxyyvYx666JpLTfMA7JeNgDEdLU78E9G1l5rmARjDRsBoeeKfiN4GUtM8AGPZCLQXTvz3i94WUtM8AOtgIzD+cOJ/sOhtIjXNA7AuNgLjCyf+nYveNlLTPADrZCMw/HDiX170NpKa5gFYNxuB4YUT/8pFbyupaR6Aw2AjUH848a9e9DaTmuYBOCw2AvWFE//sored1DQPwGGyEYgPJ/500dtQapoH4LDZCPQfTvz5RG9LqWkegONgI1A+nPjzi96mUtM8AMfFRiB/OPGXE71tpaZ5AI6TjUB6OPGXF72NpaZ5AI6bjcDqw4m/P9HbWmqaB2AbbASWDyf+/kVvc6lpHoBtsRF4cDjxx4ne9lLTPADbZCPgxF+D6H1AapoHYNtabASc+OsRvS9ITfMAFLTRCDjx1yd6n5Ca5gGohcbYCDjx1yt635Ca5gGoxYyhEXDir1/0PiI1zQNQSxliI+DEPxzR+4rUNA9ArcQQGgEn/uGJ3mekpnkAajVqbASc+Icret+RmuYBqFnU0Ag48Q+f3z9SIA9ApYhoBJz4x8PvHymQB6By6KMRcOIfH79/pEAegMqpRCPgxD9efv9IgTwAVUKORsCJf/z8/pECeQCqpE3Au4G7WPk+cRfwZ/N/q3Hz+0dh1kQPoALRB4HboA17A88EfhR4HLAR2Gf+/3cncDlwAfBp4FPAfwaMUf3z+0dh3PgegJLi+P2jMGujByBJkvpnAyBJUoNsACRJapANgCRJDbIBkCSpQTYAkiQ1yAZAkqQG2QBIktQgGwBJkhpkAyBJUoNsACRJapANgCRJDbIBkCSpQTYAkiQ1yAZAkqQG7RI9AIW/D1yS1CDPAEiS1CAbAEmSGmQDIElSg2wAJElqkA2AJEkNsgGQJKlBNgCSJDXIBkCSpAbZAEiS1CAbAEmSGmQDIElSg2wAJElqkA2AJEkNsgGQJKlBNgCSJDXIBgC2Rg9AkgJsiR6AYtkAwJ3RA5CkAHdED0CxbADgiugBSFKAb0UPQLFsAOD86AFIUoALogegWDYA8LnoAUhSgM9GD0Cx1kQPoAJ7AdcDe0YPRJJ6shk4GLgreiCK4xmA7gD4SPQgJKlHf4mTf/M8A9A5ArgE2DV6IJJU2FbgMXgTYPPWRQ+gErcCewM/ED0QSSrszcDfRg9C8TwDcL/dgTOB740eiCQVci7wNHwIkLABmHYw8BXgkdEDkaTMrgWeDFwTPRDVwZsAH+h64DnA1dEDkaSMrgKehZO/FrABeLALgScAZ0cPRJIyOJful/9F0QNRXbwJcHF3A38F7ACOB3aLHY4krdpW4DTgF/C5/1qEDcDObQfOAt5H95Cgo7ERkFS/zcBfACfS3e2/PXQ0qpY3Aa7cXsCP0d1B+3jgUOAh2BRIirMVuJ3upWbn0a1k+id8yI8kSZIkSZIkSZIkSZIkSZIkSZIkSZIkSZIkSZIkSZIkSZIkSZIkSZIkSZIkSZIkSZIkSZIkSZIkSZIkSZIkSZIkSZIkSZIkSZIkSZIkSZIkSZIkSZIkSZIkSZIkSZIkScrk/wNht1NLfjB2QAAAAABJRU5ErkJggg==;strokeColor=none;" parent="1" vertex="1">
          <mxGeometry x="899.5" y="-477" width="50" height="50" as="geometry" />
        </mxCell>
        <mxCell id="Mpb16fFOWcYmd3spKum3-257" value="" style="shape=image;imageAspect=0;aspect=fixed;verticalLabelPosition=bottom;verticalAlign=top;image=data:image/png,iVBORw0KGgoAAAANSUhEUgAAAgAAAAIACAYAAAD0eNT6AAAACXBIWXMAAA7DAAAOwwHHb6hkAAAAGXRFWHRTb2Z0d2FyZQB3d3cuaW5rc2NhcGUub3Jnm+48GgAAIABJREFUeJzt3XecXVXV//HPJJOQAiQQWiBIDwGkSAeRJqKAsSHFXh+7YkNsKIrYFUXFLioWBFExKEhHRHoHpQmhk1ACpJA6+f2x5v4Iw8yde8/e+6x9zvm+X6/10scnc+/a55az7jl7rw0iIiIiIiIiIiIiIiIiIiIiIiIiIiIiIiIiIiIiIiIikose7wRE+o0AXgTsB+wCTAVWB1bxTEpEKmkR8CRwN3ADcBHw9/7/TfqpABBvE4D3A+8B1nfORUTq62ngdOBrwM3OuWRBBYB46QHeAXwVmOSci4g0x1Lg+8Dngaecc3GlAkA8rA78Cni5dyIi0lj3Aq/AbhE0kgoAKdv6wD+ALbwTEZHGmwccDvzNOxEPI70TkEZZE7gQmOadiIgIMBo4DPgfcJNzLqVTASBlGQWcDbzAOxERkRWMwG4F3Abc4pxLqUZ4JyCN8Tlgd+8kREQG0Qv8FjjUO5EyaQ6AlGEaNtFmtHciIiJtLAXeAJzqnUgZdAVAyvA5dPIXkfz1Ar/DioDa0xUASW0KMBPNNxGR6mjElQBdAZDU3ohO/iJSLY2YE6ACQFI7yDsBEZECan87QLcAJKXRwFx0/19Eqqu2twN0BUBS2hSd/EWk2mp7JUAFgKS0nncCIiIRjAR+Sc3nBIjE9GpgeUBcC4wvPWsRqZLPEfY9000soUZFgK4ASEq9gX9/JzA/RiIiIhHU6naACgAREZHOjcS2M698EaACQEREpDu1KAJUAIiIiHSv8kWACgAREZFiKl0EqAAQEREprrJFgAoAERGRMJUsAlQAiIiIhKtcEaACQEREJI5KFQEqAEREROKpTBGgAkBERJrsCqzFb0yV2DtABYCIiDTZP4DDiV8EZN82OLRXu4iIxNUDvAQ4GNgaWKv/f8vB48DtwBnAn4l/0vTyJ+B1wO+BUREft3UlYAlwasTHFcneIYTtvKUPjDTN5sBllLe7XUjcBuyZ5jB0JXQ3wC+s8FgHA4sDH68yuwjqFoCISB52BS7v/88qmAqch10+r4vTsSsBKW4H/JbMigAVACIi/iYDfwEmeifSpVHAScAO3olE1JgiQAWAiIi/Y4G1vZMoaAzwA/KZpxDD6TRgYqAKABERXxOAN3knEWgXYHvvJCL7E2mKgGz6BKgAEBHxtS8w2juJCA7wTiCB1uqAWvYJUAEgIuJrI+8EIqnLOAaq7e0AFQAiIr5W9U4gkqpNYOxGLa8EqAAQEREZXu2uBKgAEBER6UytJgaqABAREelcbYoAFQAiIiLdqUURoAJARESke5UvAlQAiIiIFFPpIkAFgIiISHGVLQJ6Uz2wiIiU4rvACREe56XAiREep4lafQJ+j22QFEurT8ASEmyPrgJARKTa5gB3RXicWREeo8lafQJOIW4R0OoTMArbTTAa3QIQERGJo1K3A1QAiIiIxFOZIkAFgIiISFyVKAJUAIiIiMSXfRGgAkBERCSNrIsAFQAiIiLpZFsEqAAQERFJK8siQH0ARESkyV4MrFTSc90I7BD5MVvNgp4EzuzmD1UAiIhIk72wP6qsF+tC+CLg+k7/SLcAREREqm9l4K/Aqp3+gQoAERGRelgfOKbTf6wCQEREqmy+dwKZ+SDw/E7+oQoAERGpsoe8E8hML3BUJ/9QBYCIiFTZPd4JZOhgYMJw/0gFgIiIVNmVwBPeSWRmLHDAcP9IBYCIiFTZEuAs7yQytM9w/0AFgIiIVN3xwHLvJDKz9XD/QAWAiIhU3VXAad5JZGbj4f6BCgARydFW2K+6m4G52K+7HOJp4C6s9eqLUw1eCvkwcL93EhnRJEARqZTRwAnADdgX+lZYh7NcjAE2At4CnIfde17TNSNpeQh4JeoL0DJmuH+gAkBEcjEK28zkg9gGJ1XwMuAKYLJ3IgLAtcCewH3eiVSBCgARycU3gZd4J1HARsDp6Ps0F9cCOwOnoImBbekNKyI5mAa8zzuJALtRcE92SeJh4HVYIfA71CdgUNoOWERy8Haq/330LuBk7yTkWa7GCrNRwE7AhsDa2FyTKvhqygev+gdOROqhipf+B9oNm7A4zzsReY4lwL/7o0qSFgC6BSAiOdjAO4EIRgLreSch0ikVACKSg/HeCUSyqncCIp1SASAiItJAKgBEREQaSAWAiIhIA6kAEBERaSAVACIiIg2kAkBERKSBVACIiIg0kAoAEamDlYCeCHFV2YmLeFEBICIi0kAqAERERBpIBYCIiEgDqQAQERFpIBUAIiIiDaQCQEREpIFUAIiIiDSQCgAREZEGUgEgIiLSQCoAREREGkgFgIiISAOpABAREWkgFQAiIiINpAJARESkgVQAiIiINJAKABERkQZSASAiItJAvd4JiMiQJgAHAC8AJgNjfNMBYBkwC7gDOBO4xzcdESlKBYBIfsYAnwE+Aox3zqWd7wGnAkcC9znnIiJd0i0AkbxMAi4APkveJ3+AHuAw4GpgF+dcRKRLKgBE8jEKOB3YzTuRLq2F3Q7Y0DkPEemCCgCRfLwX2Ms7iYLWAE7wTkJEOqcCQCQPPdi99CqbDmztnYSIdEYFgEgedgSmeCcRwSu9ExCRzqgAEMnDFt4JRDLNOwER6YwKAJE8TPJOIJK1vBMQkc6oABDJQ10+iz3eCYhIZ+rypSMiIiJdUAEgIiLSQCoAREREGkgFgIiISAOpABAREWkgFQAiIiINpO2ARerhTODXER5na+DoCI8jIplTASBSD7cDp0V4nDkRHkNEKkC3AERERBpIBYCIiEgDqQAQERFpIBUAIiIiDaQCQEREpIFUAIiIiDSQCgAREZEGUgEgIiLSQCoAREREGkgFgIiISAOpABAREWkgFQAiIiINpAJARESkgVQAiIiINJAKABERkQZSASAiItJAKgBEREQaSAWAiIhIA6kAEBERaSAVACIiIg2kAkBERKSBVACIiIg0kAoAERGRBlIBICIi0kAqAERERBpIBYCIiEgDqQAQERFpIBUAIiIiDaQCQEREpIFUAIiIiDSQCgAREZEGUgEgIiLSQCoAREREGkgFgIiISAOpABAREWkgFQAiIiINpAJARESkgVQAiIiINJAKABERkQbq8U5Aau0Q4NSAvz8NODRSLjnoBV4JTAc2BdbmmSJ8AjAp4LGfBB4Lys6MBSYH/P3TwEMF/m4jwr6P7gaWB/x9y3rASgF//wCwqMu/Wa0/iprTH6HGY+/JouYDs1b4vx8D7gX+gX0PPBnw2E0V+p7WOV7cHIK9gYtGSPGQm72BWwk7HgpFVeNR4J1It0KPe1u6BSCS3huBc4DNvRMRcTIJ+ClwvHci8gwVACJp7Qb8HBjlnYhIBj4MvN87CTEqAETS6QG+B4z2TkQkI18hbK6BRKICQCSdPYAdvJMQycwqwJu9kxAVACIpHeCdgEimDvROQFQAiKS0sXcCIpnSZyMDKgBE0tG9f5HBhfRakEhUAIik84B3AiKZ0mcjAyoARNK52DsBkUxd6J2AqAAQSeksYLZ3EiKZ6QNO9k5CVACIpDQfONo7CZHM/Aq4wTsJUQEgktpPgF96JyGSiWuBD3onIUYFgEh678C6ny3zTkTE0V+AfbArY5IBFQAi6fUBnwa2BU7CdkYTaYKngTOAlwGvBp7yTUdW1OudgEiD3AK8vf+/rw5MdMxFJLWngYfpYFta8aECQMTH4/0hIuJCtwBEREQaSAWAiIhIA6kAEBERaSAVACIiIg2kAkBERKSBVACIiIg0kAoAERGRBlIBICIi0kAqAERERBpIBYCIiEgDqQAQERFpIBUAIiIiDaQCQEREpIFUAIiIiDSQCgAREZEGUgEgIiLSQCoAREREGkgFgIiISAOpABAREWkgFQAiIiINpAJARESkgVQAiIiINJAKABERkQZSASAiItJAKgBEREQaSAWAiIhIA6kAEBERaSAVACIiIg2kAkBERKSBVACIiIg0kAoAERGRBlIBICIi0kAqAERERBpIBYCIiEgDqQAQERFpIBUAMtAYYLR3EiIikpYKAAHYE/g98ADwdH/cC/wM2MExLxEREUlgC+BsYPkwcS6wZYHHP6SDx24XpxYblohILYR8fy53yFcqYHXgu8BSOn8jLe7/mwldPI8KABGR4lQASDSjgHcBj1D8DfUocAQwsoPnUwEgIlKcCgCJYj/gZsLfUK24BnjRMM+pAkBEpDgVABJkM2AG8U78A2MGsOEQz60CQESkuKQFQG+SlCUHE4HPAR/ALv2n8nJgX+DrwDeABQmfq+p6gVcC04FNgbXRShyREAuBh4CrsB8M1/mmI+JrJHaffzbpfvUPFfcChwM9/bnoCsAz9gZupfzXRKFoSvQBfwTWoD5Cj4k0yF5YBez9QbwE6x+gAsC8EVtF4f26KBRNiLsY+rZk1YQeC2mADYHT8P/grRjLsImCIY9RhwJgN2AR/q+HQtGkuAHralp1ocehLd1/rLZxwDHAf4DX+qbyHCOA7b2TcNYDfA+1VhYp2zbAB72TyJ0KgGrqwS4r3w58Hhjrm44MYQ/USlnEy4d4Zj6SDEIFQPXsDPwbOBlYzzkXae8A7wREGmwKsLV3EjlTAVAdk4EfA5cBuzrnIp3Z2DsBkYbTZ7AN9QHI3xjgI8CngZWdc5Hu6N6/iK86TARMRgVA3l4NfBNVsVX1gHcCIg13v3cCOdMtgDxNA84C/oRO/lV2sXcCIg02D7jaO4mcqQDIyyTgRGzTnpc5PP+jwPuATwFzHZ6/bs7COjKKSPn+gLUKFsnaKGzJyuP4NM1YDHwXWG2FnCYDJ2ENfbyaeZxD9YvUd+HfFEWhaFo8ia0CqLrQ4yCZeynWyMfrg3I2sEWb/HbClh165Xcl1k2vyk7C/wtRoWhKLAEOoh5Cj4VkKvU2vcPF7dhOfp3oAd4A3OeUax/wG6rb92AE8GVgKf5fjgpFneNhbHfSugg9HpKZCdi2uV794Z8APk6xJWrjgWOxLX89cp8HfJbqdj7cCvgF8Aj+X5QKRZ3iJuy7YRXqJfS4tKU2ieUZAbwd+BK2D3zZ+rCTz2eBWYGPtQFWxBwSmlRBM4FPYBsgVdXqwETvJEQqrg/7PnvaO5FEhj2JD0Pn+AzsjHXw86qOryBN98BdgMsdx3V5fw4iInWU9AqApLUe8GusSvU4Qd4PvJm0VeCI/ud42GmMy7Bj7HFVRUQkJRUAFTQOOApbS+9xUpwPfJVyWwevjG1NvDDSGLqNuf3Pv1LaYYqIlEYFQMVMB+7G5yS4HFtZsGHqQbaxGXAqfuO/Hb+5CSIiMakAqIjtgX/id+K7BnhR8lF2bj9sZq7X8TgXeH7yUYqIpKMCIHNrYF30vNZ4PwocAYxMPdACerFOeF7L3pZgWyivkXqgIiIJqADI1CjsxPskPie3VvveCakHGsHq+BZJj5FvkSQiMhQVABnaD9/2vefSvn1vrrbAWg97Hbf/YK2XRUSqQAVARrbCNqjxOoHdDrwk+SjTey1wF37H8TR8J0qKiHRCBUAGVsOW1Xm1723FAspf3pfKaHxvoSzCbkvUrXWoiNSHCgBHrUlss/E98Q+MMhr8lGVdbKKe17bDD2CvcdW3HRaR+lEB4GRf4Ab8T/btIlWLXw87ApfidyyvAnZPPkoRkc6pACjZpvg2suk2+rBWuOukOBgl68Ga+NyD37E8FXhe6oGKiHRABUBJxmOtZJ/G/6ReJOZRn1a44/B9Leb3P/+YtMMUEWlLBUBiPdj99IfwP4nHiDuoTyvc9bGrG17H8l7svSEi4kEFQEI7Af/G/6SdIs4Hto53qFztDVyP37G8ENg29SBFRAZQAZCA9za9ZUWrFe6acQ6bq9a2w7PwOZatbYfXSj1QEZF+KgAiGott0/sU/ifnMqPVCrc3/BC6m4hvT4Y52HtodOqBikjjqQCI5FBgJj4njT7gFKyF8HlOOSwHbsSWN9aB2gqLSN2pAAj0AuBi/E4U1wJ7DshpOnCnY04zgE0KHMsc7QfcjN+xPBdrES0iEpsKgIImkfc2vbnsJrhqx0c0X61j+QS+x7IKOzOKSHWoAOhS1U4Gk7GJel6FyoPUpxVu7kWfiEg3VAB0IYfLwVsWzH174BLH3K8G9iiYe25yvO0jItItFQAdmAqcid8X/m3AQZHGMh3fyYqnAhtEGou36fhuOzwD2Cj5KEWkrlQAtFHXJWHj+h93rtO4Wq1wx0YelwfvpZ+tLZy17bCIdEsFwCCa0hRmCr4Ni+6jXtsOex7LOm3hLCLlUAEwwN74toW9ANgm9SAH2AW4PELuReMiYLvUgyyJd/vnK4Hdko9SROpABUC/pm8M07rq8TA+429d9Vg79UBL4L0BVJ22cBaRdBpfAKwMfBnfbXr/Rz494CcA38KWG3ociznAR7DlllW3CnZ/fiE+x/IpbH5CHbZwFpH4GlsA9GDb2t6D34l/xchtjfdm2Ix9r+NxO/XZdngTfI/lndTnWIpIPI0sAHYELsX/pD9Y5LbG+8XATfgdj3OB5ycfZTn2BW7A71ieT/nzS0QkX40qANbFuuItw/9EP1zktMa7F+vm9wg+x2Ix9rqtkXqgJWjNtZiNz7FszbWowxbOIhKmEQXAaOzyetW26c1tjffq+LbCbW07nMttkhCr4dtj4nG07bBI09W+AJiOTbLzPpmHRG5rvLcAzsLveNRpq9zNgb/hdyxvBQ5MPkoRyVFtCwDv/dxTRG5rvL2LqxnAxslHWY79sMLG61iei31mRKQ5alcAeF+mTh25rfFu3V7x2nZ4EfZ653KbJETVdpoUkWqrTQEwCt+JamXHPKyf/pgIxy4G7wmWD6Bth2NFbktSRSSN0O+Ktsq6Z30A8G1gWknPN9Bt2L1cD3cCHwP+6vT8A+2Cnbx2cXr+y7GT15VOzx/TjsB3gBc6Pf/VwB+dnlskF4uxHxgXYj8w62TYk/gwXOel5TSB6iXAzY65nANsFXAsY2q1wn0An2PRB/wSuypRdT3A67BW0V7vLYVCYVfk/ozfD80UQo+Ji4nk2a62F/ggtlzNI68lwPeweRA5WBk4Dr82y3OBT5HPbZIQ44AvYEtDPY6lQqGwmE99OmuGHotSVWXDmtWwy+BLnPJ8HLsM3jvsES1H0zdaimk9fLcdVigUdjWgDstnQ49DafYCrouQcNG4iO63rN0c+Ltjzrmt8d4b362WLwS2TT3IkuwMXIbfsVQomh6zqP7qo9BjkNyG+G6kcjfhl3tehU3W8xrDn7ENaXIwEngPfqs1lgInUp+2wu/Evoi83lsKRZPjY1Rb6PiTGQ8ci989z3nAZ4GxkcazEtZ61asd8ULyaiu8GjbD3Wsex+PAh6jHtsMTgG/g11ZYoWhqXEa1hY4/utY2vTMjJFck+rArDhukGBz2y9Nzjfcj5LXGeyrW0c/rA3wbcFDyUZZjU3yvlikUTYsFVFvo+KOaBvw7QlJFo8xWuzvhuyXxVcDuyUfZuYOwk7HX8ZgBbJZ8lOV4Kb5thRWKJsV4qit07NEcgi3b8ngBHwTeQvld5HqA1wP3BeQeEn3Ab4EpqQfaodHYPTWvVriLsEvpdWiF22or/Dg+x1KhaELoCkAEe+BzL3gh8BX874uPB76I73yHo4k33yHUWsBP8Gsr/DA2ua4ObYXXwCY91nVvDIXCMy6n2kLHH2wMtt1t2S/cn8hvJ7kNgD/g92aeCRyaepBdeAFwMX7H4xrgRclHWY5tgPPxO5YKRR3jSKotdPzB3hohiW7iv9jeATnbBd813pcDuyYfZeemA3fhdzxmABslH2U5vLdwVijqEuoDEME5EZLoJB4F3kc+3fGGMwL4P/zWeC/DLsOvlXqgHRqL3aaYj8/xWIC14h2XeqAlGIO1SPaac6NQVD2WYpNtqy70OASbGSGJdrEEOIF8+uN3awLwTfzWeD+BTcwbnXqgHZqCTVz0aoV7L7Y5j+suWJGsC/wKtRVWKLqJBcBh1EPosQiWenLSh2MkmYGpwJn4velzWy+/O7aU0et4/AvbrrcOvobfcVQoqhLLsNuBW1AfocekrU5+JQ37IBHMwH7F3lHCc6X2MuB4/LakPBv4KDaXwtsIbPnml4F1HJ6/te3wZ7CVA1WzHdaNca/EzzMP+EHi5xBJZQ62VPsCqvk5byf0/Bt8JbSs6m0x1oGvDmu8e4F34ddPfwnwY/Lppz8eOAa/bYfn9T9/VbYdXp1yu1E+UM6wRKRLoZ9t9wS6jUfJqxVuiNYXude2w4+hbYdXjDvIe5/wVnOgOZR7XFQAiOQp9LPtnkDRuJb6rPGeBpyF37H8L3ZrIhf7ADfgdzzOx9bd52Q/4GZ8jocKAJE8hX623RMIjRnYlsN14L3Gewb5NFcaAbwZmI3PsWjdJlkz9UCH4b3Z0nJUAIjkKvSz7Z5AjFiAbZW7cowBORuNXeZ9Ep9juQi7LbFq6oF2aDXstfVaRvk4tg102csoJ2LjXhiQe6xQASCSp9DPtnsCMeN+7FdjHdZ4T8Z+gXr1038Qm6iYSz/9zYG/4ffeuhU4MPkon7ny8XDJ42sXKgBE8hT62XZPIEVcQXnbAqe2A7Zm3etYXg28MPkoO7cfcAt+x+Nc0q0j3gu43nFsQ4UKAJE8hX623RNIFX3YjHKP9eWx9WCz0+/B71ieim12lIPWbHivbYdbS1Jj3SaZgr1Xc+3opwJAJE+hn233BFJH1dZ4tzMO3/Xy88nrWE6i3PXwA+MRwpaktl5Pr22kOw0VACJ5Cv1suydQVuS+xrsb3r8Y7yOvuRbbA//E773V7bbDrSs6Mx1z7iZUAIjkKfSz7Z5A2XE+sHWMgWdgb3zvGV8EbJt4jN2YDtyN3/HoZEmq95yOIqECQCRPoZ9t9wQ8Ipc13jG0Zo17bjv8a/Ladvgo/LbKnc/gS1K9V3WEhAoAkTyFfrbdE/g+fq1wHwXeRz6tcENMxDYZWozPsZyD7dw4KvVAO/Q84BT8bpPMBA7F5kt8Cr+C5GngR4GPoQJAJE+h3w9ZJPB84LwIj1U0bgJeHONgZEBthZ/tRdg9eq/j8ZTjc5+OdXacHPg4KgBE8hT6HZFVAtOBOyM8ZtGYAWwS46BkwLN3/HJsvfxWyUfZmR7sNslD+B2PMmNgEaYCQKSeQr8rskugtcbbqxVu7DXenrx2jxt4LCemHmiHWtsO59BeN0UMtbujCgCRegr9zsg2gdakKa813q1WuHXadtjrWLZOTLkcy02xxkYexyJFtCa1rjHEeFUAiNRT6HdH9gnsBFwa4XmKxpXUp63wC4CL8TuW1wF7Jh9l514K/Ae/4xEjzmb41sQqACQn47BNvlaMlVwzqq7Q74+2Omn0MuyDRHiOHuD12PKqKYHPV8Ry4HfAJ7ENh6ruEOAb+LX2PQ04Emtt7G0U8F7s1sBqvql05Q7go8CZHfzbydgVraIeBNYL+Hupv4nY1tWbYu+VVkzu//+1Yvwwj7MQW7myGNsK/AFsifND2AZZD2LzxG7t/3dNV8b5d9gEklUgA4wHvohf69R5wNHYWvOqG4uNZR4+x3IB9loO94VQlknAifjdJuk0ngA+TnfbE+sKgMQyGmtm9Q5sCfc/8elBsgz4H1YAfx14G7Al+XQnLUvocaxkAhvgew93JvVqK/wbfNsKv4F8PrhbY90ivd5b7b7wfgqsXWBMKgCkqNWAlwNfw27FLsL/s9AuHse2Df8ssC/PbchVN6HHq9IJ7AJcHiGHonF5fw51kMNci92Tj7Jz3ktSV4wrgF0DxqICQDo1AvuFfxS2lNersVisWIq13j6qf1x1E3p8Kp/ACOD/8G2F+xPyaYUbYgTwVuw+m9exPAk7YeVgKnYf0uvL6x7gMMKvjqgAkHZ6sb4hP8Lve7SsuAP4DjYZOZerjiFCj0f1E+g3AfgWfhXrE9ikrG7uzeZqFeAr+K2XfwqbcOk1M3gc8AX85prMBz5HvLkmKgBkMLsCP8Baonu8z71jJnAcw6+iyVnoMah+AgNMxSaGeL2pbgMOSjAuD5sAf8bvWN4JvCr5KJ/RWm1yX+RxdBp92GqT9SOPSwWAtKyFFdf/xe9znWNcBXwI+yFZJaHjrn4CQ3gx1uPf6w11HrbHQR3sA9yA37G8ANgm8Ri3By5xHOM12L4FKagAkB2wZlFeV7WqEnP7j9OWxQ5z6ULHW/0E2hiF7VDn2Qr3ePJphRuiF9s50ety4RLscuWkyONaB/gFftv0PgS8HZt/kYoKgGYaAbwa34nSVY1l2GqC/cl7rkDoOKufQAfWAH6I3xrvR4D3kE8r3BCrAyfgt4XzY8AHCd/CeSVsZrDnbn3LsZN/aioAmqUXWxevy/xx4hpsKWSOQsdW/QS6sAXaKjeWzbEK2etY3gocWDD3/cinBbAKAIllBNaf5Db839d1jOvJr/9L6Jiqn0ABBwN3dZFj7PgjsFHyUZbjFcDt+B3LM4DNOsx1K2xts/cXyYqhAkBiOBC4Ef/3cxPiX6Sbr9Ot0LFUP4GCRuO77fAi6rft8BP4HMvWtsNDzeBdrf//73Xbol2oAJAQm+O76qnJMQO//VRaQsdQ/QQCrQv8Gr9WuA8AbyLviSadWhv4GX4T6h7GepS3JtT1Ah/A5g14f1kMFSoApIgJwPfIs6htUszFt2dJaP7VTyAStRWOZwd8l9RdjXWHvNkxh05DBYB062DsNfF+7yqeiTuwFQNlC827+glE1AO8Gb8PVx92NWLd1AMtQQ9wOHAv/h/OnEMFgHRqMvBX/N+zodGHbdozMLzzijGuH2OdVMsSmnNbnVyWHvZBIjxH2VYGPoW19h3j8PzzsFa838ba8VbZOOATwJH9/12e7R1YH4KUJmP7OxT1ILa3u/g5HNt+N3YfjJgWYCud7sba7M7E9rN4rD8exU707fRgy7YnrRAb9sdG/f+5BX6X3DsxE/tcX1DCc7mff5NWIM42wmbse1WUd2GX++pgfeD3+M21yDV0BUAjgFSPAAAgAElEQVTaWQ34A/7v04ExF1tRcyzwWmwlTspmVivqxVb0HI5tU/xP8utw2IcVbKl/9ITmWf0EStCEVrhl2QO7R+/9AY0R/8K+fEIeQwWADGUX7Ne09/t8OXaCPQtb7bM9+TU1Gw3shjX3uoB8tjG+EVupkUpofm019RbAYEZiE8uOxS5RlW0Z8FPgaOxSWpWNwDqVHYetHKia+7AvmlOwVQ8hJ/Eq3AKYjX25Snlejd0GHOWYw2zgdGy520XA0465dGsVrOHXK7ANxTzbsc8F3gmcmuCx3c+/SSuQDK2G7SftVWHOwfY38PxiiGVV4OtYTwTvSr2TWAAcw7Mv6/088DGrcAVA0ZyYA/wE20wtt1/5Ra0ETAdOxrba9jq2JxB/u/jQnKqfgBO1FY5nM/Ke3dyH/dp/3iC5qwBQ1CH+BbyF+k/UnYBtanYdPsf5MuJe9QzNp/oJODsI397bZwJTk4+yHPsDt+D/ZbhiDLdNrwoARVVjIfb+rcu25d3aBbssX/YmcXdhPyBjCM2l+glkYDTwMfxa4S4CvsnQrXCrpBfb7c+7e9/D2H274WY2qwBQVC3mYPNv1kEANsYuz5e5kuBxbHJ5qNA8qp9ARiZhPee9th1+FJulW+V7d7nvKzCQCgBFVWIe8FVsHpM815rY8Xmacl6PRVjjuRChOQRzTyBDLwAuxu+Dfi2wZ/JRxvdyfG+nzKDznQVbVAAoco/WFUKP1UtVtD7l7WnShzWcKyr0+YO5J5Cx6fhuOzyDamw7PBXfHc1uw+ZyFKECQJFznAtsiRRR5g+5owvmGPq8wdwTyNxY7MWdh88XwALgi8D41AMtwHtJ5ePAhwhbUqkCQJFj3AG8BInhMKyPRurX7HMFcgt9zmDuCVTEFOC3+LXCvQ94PXk0XhoJvBd4BL8vyL8R55KoCgBFTrEEa487FolpItaILfX393Fd5hX6fMHcE6iY3YGr8PuCuBTYKfkoh7Yv1h7T+4vyk5HGowJAkUvciF22lnT2IX175s93kU/ocwVzT6CCeoBD8Nsqtw9b/7p+6oGuYH1sq2PvL8lWqABQ1CVa29DWvYlPLlbFjnfK1/RDHeYS+jzB3BOosFWwZScL8fnieArraZ9ya82VgS9T3tKaTkMFgKIO8RDwUsTD64EnSfO6LsV2WRxO6PMEc0+gBrx/Hd9L+HrUgVpXOe5xHFe7UAGgqHpcxeDtqaU8mwE3keb1XYR1R20n9DmCuSdQI/uR7s3USZxHnLaguwJXOI6jk1ABoKhynEj8jWWkmFWAP5LmdX6S9t/JoY8fzD2BmukF3o919fP4YlkC/ADratit9bAdt7xWOnQTKgAUVYwlwHuQ3PRgO4Wm+O67g6G7N4Y+dlu9HQ5e4lmKnYB/D3wB+7CX+Tr0YrtlHY69oX/Yn1M7Y7G9ED5Jnv0GJMwy7FaOdGYMsG6Cx52HrUn/e4LHljDLse/Lu7HtlGNendkUOx8chH0Ws5K0AhG2As7B7xfHLbRvKPJa0i+LSRG6AtB5PFBCjnVyCvHfrw+hJX5VsS9pJgd+fZDnCn3MYO4JNMQrsEtBZZ0gB8YZPLtP/nbARY75hHYPVAHQeagA6Nz7if9ev5f6bPndFDuRZkfT1w14ntDHC+aeQIOMBj5BuqUnw8UirAr9MX47Hs4G3t2fR8jjqADoPFQAdGZH4i/pvRPYsMQxSDzbYNuKx3w/zMVuCbSEPl4w9wQaaB3sxFPGblW5xGLg21hLToCvBD6eCoDOQwXA8FYj/sZfd2ITa6W6pgGziPu+uIJn9i8Jfay2RhQftyT0MPAOYGestW/dnYVV0x8FnnDORWQwJxJ35837sGXBKr6q7VZsLf/jER9zZ7prF1yYCoC8XQPsgc0PmOmbShJ3AIcCB2IfJJEcvRJbNRPLbOykMTPiY4qfG4ADsMv3sXwK2Dvi4w1KBUA1zMBWC3wBa7lbdU9gv/a3Ak5zzkWknTWxXeJimQe8DBW8dXMlcDDWxyGGEcAvIz1W2yeRaliArUPdDGvGM+z9nQz1YblPA44n3odFJJUTsSIghmXAG4DrIj2e5OVc4jZx2iDiYw1KBUD1PID19d8LuNY5l25cDOyA5T7LOReRThxCZxu2dOoDwF8jPp7k5xfAcd5JdEoFQHVdgi1Legs2aTBX92M57gNc75yLSKfGAd+M+HgnAj+K+HiSr6OB072T6IQKgGpbju0yuCk2P2CRbzrPsgDLaSrP7IQoUhWfJ95OfJdjc16kGZYDbwP+653IcFQA1MN8bH7A1tiEQU/Lgd9iJ/5jqMekRWmWzYEPR3qsh7HbCDkV55LeXGyF03zvRNrRZkD1cge2ZHB/4DvAFiU//1XAEcBlJT+vSEwnEGezl+XAW9Fa/1yMwuYhbQlsjE3uHI9drVyAtWS+HZvRPzvC892MfR/+LMJjuUnaiUiSGQV8CGtQEbNL1WDxIHafP+YVJXUC7Jw6AcZzIPE+F98pOXd5rvHAG7EdFufR2evWh528v4hdDQr1xw6fN0UEc09AgkzCJiCl6O2/EDtRr5wgbxUAnVMBEEcP1nwrxmfjRmzbYPGxOjYHKfQHUB/wN2D3wFzuD8zD7fzrnoBEsTVwPvHeWH/CLqOlogKgcyoA4ngtcT4bS4DtS85dTA/WRv0R4p5I+7C5TZML5hXzylKp51/3BCSqwwh7PRdh+2GnpgKgcyoAwo0E/kOcL92vlpy7mNWxSdApT6izsba/Rfw2cW5Jzr/uCUhUqxD2ej5VUp7eBcDKwJexVQwheagAqIY3E+cL9w5gbMm5i3VIjb1b41DRB3ysQI5rAY+WlGMr2tIyQJFn68EmNN6Gbcih+7j110O8K0bvQ0tfy7Yt1hgt5m6N7fRgTaK+3OXfzQaOip9OcSoARJ6xI/AvbBOOdX1TkRJNJ86S2TOwfvBSnm2A84C1HZ77U8DHu/ybk7Dl0llQASBiJ/sfA1cQNttXqqnI5dyBFgOfiPA40rlpwD+ANRxz+DpWQHaqD+sNMOzl+TKoAJAmGwN8Bmv+8S7SfB6WJXhMiWcnYM8Ij/N97H0k5dgK22BsHec8erCJwt2sDriMTLZBVwEgTfVarFf3l7BmIancl/CxJVyMHv1zsUmrUo4tsCXNa3kn0m9Nut846nNk8ONABYA0zbbAhVgFvmEJz6dfhflaE3hNhMf5Lja7W9KbBlyAzz3/dl5Hd7cPbwNOTpRLx1QASFOsjn1RXwPsXdJzXox1AJM8vYnwnv9PAsdHyEWGtxn2y9/7sv9geoBPd/k3X8DmjrhRASB1Nwr4CPA/bG+EkSU+t3rB5+1tER7jB1i7WUlrM+Ai8l6dcyDd7R0wEzglTSqdUQEgdbYfcB3wbWBiyc/9E+AvJT+ndG5n4PmBj7EIm/wnaW2ALa/M+eQPdhXg9V3+zTfIZEXAUJJ2IpLSNaUT4OzAvw+J31JuAyF1AuzeDwl/nX9eetbNszG2Ta/XZ7nbuKnAGM9OmE8w9wQkqqYUAB4xB3hPioMxDBUA3RlJnAIx9AqCtLcRcA9pPqt3Acdht4E+jG0X3BfhcfuwyaXd2D/RGJd3mceg3BOQqFQAxI+lWCOhbj/4sagA6M7ehL/m/yo76YbZELtHnuLzegKDT/7ciziF4cu7HOsIbI5SirEO+8QiUtzFWAvhd2NbkEr+Yiz9+2mEx5DBPQ9b6rdBgsf+CjYZeLDZ9xcDB9PBiXMYU7v8931kfDspaQUipdMVgDhxN9ZMKAe6AtC5Hqw5U8jxmgOMKzvxhlifdL+Gv9ZhDmcEPs93C4x7XWBJgjG3pSsAIt2ZDxwNbAn80TkX6d5OwJTAxzgNWBAhF3m2KViTro0TPPY36XwnvnMCn2vVAn/zYITn7ZoKAJHOLAd+g63z/RLa8rWqDojwGH+I8BjybOthl/03SfDYxwNHdvHvnwh8vlEF/+7UwOftWm/ZTyhSQVdiM4Uv805Egu0b+PezsYY0Es+62Ml/swSP/V263+8hNI/5Bf/uL1hviZUCn79jugIgMrSHgLcCu6GTfx2MA3YJfIzT8d/EZST2i3kzbCnixlR3TsJk7OTf7cS5TnwP6wLajV6sr3+Ixwr+3ZPY9sal0RUAkedahF02PA6Y55yLxPNCwn9dzYiRSJfWwvac3wvrYLgRgy9jmwXciC1RPBu7cpWztbHe/t20z+3UicARdDARboBjCC9G7gr42xnAKwKfP6qksxCldFoF0D7+RJpJSClpFUBnQt9TC4CxJea7P9agpujs8DuBT1J+G+xOrA3cQprP8A+x1R7d+mik59+twHO3TCFOQ6JWtKUrACLmJuw+/wXeiThYE7jaO4kShE4wu4hyJn/ugW0ktUPg42yCFT2fBr4KfAu7uuVtTeA8bCVNbD8B3kcHJ78BjsCOT6gF2I6jRd2PfRdtEyGXKJJWIFI6XQF4djyKfWFUuRgOvQKg6CyO6PQFKWg88DPi/gJcMe7AbiF4WgO7TZFifD+l2Ly2DxDvmJ9Z4PkH+nqkXJZHyMU/AYlKBYDFEmyG8GoljSclFQDlxPadviAFTAX+U8IYFgMfTDiOdiYB13eQY5H4BcVO/u8lbsH15gI5DDQ9Yj7B3BOQqKpSAHw2MM928Q/SXH70ogIgfTxFuqtEO1H+7pXfoNh98qJWx7bmTjGWX1Ls5P8u4p78HwdWLpDHQJMi5hXMPQGJqioFwBsC8xws7gAOKSn/MqkASB/ndvxqdGdr7MThMaail8y7NRFbkZBiDKdgyyK79TZsOWfMXL5UII+hxLoaFMw9AYmqKgXAVOJVwU9incAGWzpVByoA0sexHb8anZuCtYD1HFfRGfOdmohNME2R+28odvJ/K/FP/o9iv9xj+XmkvIK5JyBRVaUAAJspHJLrMmxS1dol5uxBBUD6iL3xUy/wzwzGtZx0RUDKX/6/o9jJ/03EP/kvxyYSx/ShSHkFc09AoqpSAbArNmmpSJ6XkHbSVk5UAKSP2J3qPpnBmFaM2EXABODyRLmeQrH5GK8HlibI52zi30rZJ1JuwdwTkKiqVACAzVjuJr97gMMod4KTNxUAaWM+cb/gp2AdJr3HNTBiFQGrYq2zU+R4GsVO/oeT5uR/L2muME6KlF8w9wQkqqoVAGC9uecOk9d84PNUtyd6CBUAaSN2k6QfZTCmoSK0CFgFuDRRbqdTbKe9QyjeTbFdzMH2Ykjl4Qg5BnNPQKKqYgEAsD42y/aeFXLpw9qdHo2dBJtKBUDaOK3zl2JYa2HdBL3H1C6KFgErY7feUuT0Z4qd/F9D8duI7eIpYPcC+XTj3xHyDOaegERV1QJgRWOxDVHGeCeSCRUAaeMbnb8Uw/pYBuPpJLotAsaTblLjGRRbwfMq0pz852LtmlP7bYRcg7knIFHVoQCQZ1MBkDZizvBOtSQuRXRaBIzH9klIkcMMip38p2P7HsTOZx6wZ4F8ijguQr7B3BOQqFQA1I8KgLQxvfOXoq01iNt57h5sR70FCcc+XBEwDttAK8Vz/41i2zcfBCxMkM98bHZ+Wd4dIedg7glIVCoA6kcFQNoI2d51Ra+OlM/JPHtnw7HAO0nXUXCoImAs4b06hoq/U+zk/zLSnPwXAC8ukE+IgyPkHcw9AYlKBUD9qABIG5t1/lK0dXSEXL7Y5vGnYtvJpjgGJ/LsImAscE6i5zqbYvN79ifNBMungZcUyCfUXgXzXTHaqvIWqCISxyPAAd5JJPQvwiaMPhYpj00D//5abKnrUG4H9sbux68X+FwDvbf/P9+P/TL/C2lOiudiV0oWdvl3+2E5xZ4YvLA/n1R7QbQT630XJGkFIqXTFYD6Cb0C8ED5KZcqZA14H/GaAJ0ZkMdyOp+MuCnprgT8CDgr0WOfh11Z6NY+2P352PksBA4skE8s6w2RVzcRzD0BiUoFQP2oABjaSMKOzaKIuVwYmEs3E9BSFgEp4gKKNfHaizRdFRcRb/JnUTG6AbZVxlaQIiJeikwkW9HiKFmYpYF/P76Lf3sndjugCsXdxdjJdkGXf/cibKVAN8elE0uAQ7EliJ5ivvcGpQJAROospwJgbuDfd7sErQpFwCXYsr35Xf7dHthKgRQn/8Ox5kPeYl59KizpJQgpnW4B1I9uAQxtLcKOzayIuZwQmMuT2EZC3cr1dsAlWPvgbu2OfQ/FzmcJ8bd9DjGCsPH0xUgi9KBKXlQA1I8KgKGtTtixiTkTu9udLQeL64DVCjx3bkXApdh3Ubd2wwqh2PksxXYRzclKhI2p25UUgwo9sJIXFQD1owJgaCsTdmxCL9uvaJfAXFpxHTZBrFsbAndHyiEkLsO2DO7W9qRpdrQUeGOBfFJblbBxPRkjidCDK3lRAVA/KgCGNpqwYxNzDkAv8S5dX001rwRcDkwokPdOwBMJ8sn15A/WOjpkbI/ESCL0AEteVADUjwqAofUQ3n9/ZMR8Yuzw1oqqFQFXAhML5LsjMCdBPsuAtxTIpyxTCBvf/TGSCD3IkhcVAPWjAqC90HXia0TM5aDAXAZGVYqAqyl28k912X8Z8PYC+ZRpG8LGeHuMJEIPtORFBUD9qABo717Cjs/mEXMZAfwnMJ+BkfucgKL5bQs8miCfPp5pbZyzfQkb52XDPYH6AIhI3YXO5I95BaAP+GbExwPYDvgH3V8JmIn1809ZAF6P7aLX7WuwLXA+xQqHdpZjJ/8fRn7cFELH/vhw/0AFgIjUXU4FAMCvsI19YtoB27Cm2yIgZbOgG7BNeoY9EQ2wDbYvQIqT/weAH0d+3FRC33ePDvcPVACISN2FFgAbRMniGcuwX6FLIj9uTkXATdjJv9tj/3zs5B+76FoOHIFta1wVoe+7YY+9CgARqbvQE9uGMZIY4Erg6ASPm0MRcDN22X/YX6ADbIVd9l8zQg4rWg58BPhe5MdNbaPAv384RhKhEy4kL5oEWD+aBNjeEYQdnz8lyquHuMsCVwyv1QG3YO2Xu7UldsJKcSw+UiCfHFxJ2LgPjZFE6MGXvKgAqB8VAO29irDjc33C3EYDZwfmN1SUXQT8B1i7wPNNAx4q8HydxMcK5JOL0BUQO8VIIvQFkLyoAKgfFQDtvYCw47MQ6+KXyljgnMAch4qQIuC+Lp7nv9j7sFubAw8GjK9dfKJAPrlYh/DxR5lHEZqE5EUFQP2oAGhvAuHfY1slzjHHImBd4N8dPP7fCz7+VOy9l2LMnyyQT072J5Pv6dAXImXlLN1TAVA/66MCYDjd/JodLA4vIcex2Hr+nIqAEcAbgAuxVQutx1sInAVML/CYkLYT4acL5pSTjxF2DK6KlUjoi3ELVs1IHlQA1MtrCe/m1oQC4CzCjtFXS8ozxyKgZQw2M/152NyFojYhvCAbKlKsrPDwa8KOw89jJRLrhTkXm+kpvlQA1MMWxJs81oQC4JuEHaN/lpjrSsCZgfkOFdcSv8FONzYgXfvhz5c4jtT+R9ixOCJWIjFfoEXA1ym2F7TEoQKg2tbEOpktJd7nsgkFwFsJO0ZPE/art1s5XwkoakOs/XCKMX2xtFGkF2MC4ItjJZPixXoYeAdqRORBBUA1jcLWM6fYFrUJBcDzCT9Ou5acc52KgA1I98v/SyWOowwHE35MojVTWhwhmXZvwj1iJSodUQFQPQcCt5LucziztJH4GQE8SdhxOqr0rOtRBDwPuCvRGL5cQv5lO4GwY3JHzGRC70V0EjNI025TnksFQHVMxT4bqT9/Zd7f9nQuYcfpgvJTBqo9J2AK1mY4Re7fSpi3p9sJOy4nxUwm1RtvYMwHjgHGxUxenkMFQP4mAt8m7dW3FaMqu6OFOpaw47QYv/lLVbwSMAX7NZoi528kyDcHmxB+bP4vZkKHRkiom7gXW3PbE3MQ8v+pAMjXSODdwGzK/cztXsbgMvBSwo/Vq0vP+hlVKgLWI/yX7FBR11/+YNsVhx6fqKvtRgG3RUiq27gE29lK4lIBkKe9sZ7zHp+zphiHzeYPOV4nlZ71s1WhCFiXdOeM4yPkl7PQbpCzSPDjeWvsEn3ZX059WEOEdWIPqMFUAORlCvYe76P8z9djNG/uzfmEHbM52D15TznPCVgLa/6WIrcfU+8rw2vy7G6LReLXqZLbF6suyv6SWo7N3j2Sctfh1pUKgDyMx5Yvhf4iLRp3AdsnH2V+jiL82BVtfxtTjlcC1sZ2BEyR0/ep98kf4D2EH6fXp0xwPeCMCEkWjduBV6QcYAOoAPDVA7yRdH3Qh4vWVbXVUw80U9sRfgxPLj3rweVUBKxNul/+J1L/kz/Yfgshx2kpkXYAHM5LSPdidxLnoLbCRakA8LMzcBl+n5srKL+ZTY7uJuw4zsd2GMxBDkXAmsBNiXL4Ec04+W8MLCPsWF1WZsK9wLsof8ZyK5Zg94SidTxqCBUA5ZuMvVdDP+BF40Hss6rOm+ZbhB/T95ae9dBWIl2/iOHmBKwJ3JjouX9Oc96zxxF+vI4sPWvszfF9wicvFI1HgfehbYc7pQKgPGOATwFz8flsPI11Sls59UAr5oWEH9vrSs+6vZRXAm4Epg3ynFsD/030nD+jOSf/Xqwdd8jx6sN5Qu/zgfOI8+IXiZuIuAFCjakAKMdrKKeL5lBxOnZZUZ5rBHZVJPQY53Y7JWURsAS7yvB5rGHb34m7IdWKcRLNOfmDfVeEHrPLS896CNNJ1/qxk5iBdVOSwakASGsa4XvPh8R/gZclH2X1hW4PvBw4tfSsh5fydkAZ8XusIVaTXEr4cftw6Vm3sRK23OYpfN5EC4GvYCc7eTYVAGmsgc1WTvWraLh4BLsv3bQvz6Ji7A64lDyvsqS8EpAyTqZ579/dCT9uS7AVetmZjF3O8Zz89FaadTlpOCoA4hoFfAh4HJ/3+GLgu/js7151VxF+/E8oPevOVK0I+C3NO/kD/InwY/fXok9e1vKKnYDv4Ndz/CrgCEpeJpGpVQg7ic/Fb0OU3LwUa026hdPzXwF8FLvsL917D+HbyT6N3XJ8KDyd6MYCfwH2905kGKdgvTGWeSdSsq2x9t+hP1BfSUARUKbp2N7jXlXmDGCD1IPMnK4AhNsMu//r/atJkUfkehUA8p8TcBrNXcH1Z8KP34NU7PiNB74ILMDnDTcPOBqrjptIBUBxE7BtSBfh/8WpyCcWAuuTr1xvBzT55L8Dcfb/+GLZiceyAfAH/N58M4FDUg8yQyoAujcCeCfwMP5fmoo84+fkLbci4HRs/kxTxXgtFlKDjfJ2wdYwer0RL+/PoSlUAHTHu32vohqxDNiRvOVyO+Bv+O+o6Gk6cY7jT8tOPJURwJvx+4W1DNsgZe3UA82ACoDOeG7Tq6hmXEr+feu9i4C/0+yT/2jgNsKPYx813A9nAtagw+se6xPYrOo6X5pSAdDeOOAL+M1RUVQ7DiN/Y4AzKf/YnI62dP84cY7ljLITL9NUfN6grbgVOCj5KH2oABhcD/A64F78TyKK6saDwETy14v1aCnruPyAZq7zX9GG2CT0GMdz53JT9/Fi0m0z2Umch3UMqxMVAM+1PfBP/E8einrET6iON2PbG6c6FguwnSgl3q2XM8pO3NMorM+xZ6e146lGVd8JFQDPWAf4BX6dKhX1jD5gH6pjc9KsEPgrebZK9vBG4r23tis59yysAfwQ317r76b6l7FUANgkpE/gt1eFov5xNzanqUr2By4ifOznAHuXmnne1ifeD9jTSs49O9sAF+D3wb6ear+5m14AvBK4A/8ThKL+8RuqaQvgWOAaOrs6thS4EtsqeDOHfHM2AriQOO+nRdj8uGhyX7LSzsFYV7aNnJ7/dOBIrNKvkqbuBbAVth/Fft6JSKO8AfiddxIBJmI/ujbDrsK2Np2ag10VvR24ker/MEjlk9jOtDF8C1tFIP1GY5v8PIlPhb8I24mtSifEpl0BWA34Kmrfq/CJudRwvbZ0ZDfife/Monq3lEqzLr5NWx4A3kQ1rqg0pQDoBT4APIb/SUDR7PgP9rmT5piMLQmN9R56Z7npV9OOwL/w+6BfBbww+SjDNKEA2Be4Af8vfoWiFX+hGj8QJNwo4i4rvpxEk8/r+IbswZZcfBW7MlC25cDJwKewCjA3dZ4DsCnWSfKVTs8/H1s2KvWx2vD/pGNfAI6J+HiSp58B74j0WIuxPiW3RHq8xhiHfdiexqfin9///GPSDrNrdbwCMB7f13pe//M3ucd5Xf2ceO+TPuAt5aYvJfsMcb9bjik1+xraCPgjPieG5cBd2IqFXNSpABgBvA14CJ/Xdhl2gmjCJlJNtSq2dXis98wi7BaV1M/riDsP7Rb0oyKavbE1/F6FwIXAtqkH2YG6FAA7Af/G7/W8Atg1+SglB3sQt1vkk9j7V+rjJcBC4r1HFtOQfv9lam07PAufk0Zr2+G1Ug+0jaoXAOvhu+Ljfuw9VMf5MzK044n7PpqD3duV6nsh8Tb5acWRpY6gYSZiH+jF+JxEHsf6F3hsO1zVAmAs8DnSblzSLlpzOsYlHqfkaSy2nC/me+phYFqZg5DodiV+S/HzsB+rktg04Cx8TijLsS+UlyUf5bNVrQDoAQ4F7gnMu2j0AacAz0s9UMneVtgqmJjvr1nkcWtQurc38U/+j2BXOaVE+wE341cInIt9uZShSgXAC4CLA/MNiWuAFyUfpVTJYcR/n83BusZJdRyAbXUc832wDHhpmYOQZ4wGPgY8gc/JZhG2hj11u8cqFABrAT/Fb5veh7F1vLoMJ4OJPR+g9bl6SZmDkMJeT5rW4keVOQgZ3CSsv7/XtsOPYvMDUm07nHMBMAobu1cRthh77dVzW9rpJc2VqSXAe0och3TvCNL8MFGnyMx4X36+FtgzwbhyLQBeDtwWmFtI/BVtZSqdmwzcS5r34pfQySA3o7AOfyle7+vRXhHZmo418/E6Mc0g7pbHuRUAU4EzA3MKiVuBAyOPSZphS2xFT4r35ZnEbUMsxUcSkrsAAAZsSURBVK0FXECa1/kBNME4e2Ox+zOxZ3x2GguwvQ1iVIm5FAAT8d2m93HsNR0daTzSTHsStwHMinEHsHV5Q5FB7EHcXf0GfpduV95QJNQU4Df4NaG5D5uAEnJ50LsAGAm8F1vu4nEMlwA/wOZ6iMRwOOkmrM4j3sYy0rkRwCdJ1ytmMbaSQCpod+BKfE5gy4FLsa2Pi/AsALy36T0P/aKSND5O2vfuH4HVSxtNs62PtW5P9VouxYpGqbARwFtJd3louFgG/AJYp8u8PQqAjYHTA583JP4HvLpA3iLd+Bxp38f3o/kqqb2RdPM6lmNXj3VFp0Zy2Yq2022HyywAvLdk7vbYiIQ6ivTv61Px3U+kjjYEzib9a/fxksYjJdsE+DM+J7rlwJ3AKzvIs4wCoAfbMOcBp2OxDPgltlRLpGyfJ/17/FHUrCqG0dhJOfZmPgOjD/hwSWMSR/vge5/7AmCbNvmlLgB2xOYoeI3/SmyOhoinMq4ELEftqkPsB9xC+tdoKfDOksYkGegF3odV6R4nwSXA9xl80lCqAmA94GR8t+l9A2qgIvn4MOW0s+4D/gBsXs6wKm8H4B+U8720GE34a6zVgROwE7LHSfEx4ANYQdISuwAYA3yG9JfQhooFwLHYXAyR3BxCeXNglmK3vmI2DquTrbHbtGX9SHkKLfUTrGPYOficIJdjOx22NhqJWQC8FrjbcVynYpN3RHK2J2lnlg+MxVghoCWvZnfgT5S7udj9qMmPDPAKrLuX1wnzL9geB6EFwLakXSc7XFwH7NXlsRfxtCVwD+V+Tvqwme3707zJgr3Aa/CZj3QD1jRO5DlGA0cCT+Jz8gztbLUMv50SZwPvIt1OiSIprQmcj89n53/Ap4F1k4/S18bAcfitQDodbewjHVgb213Ka8/7KsVi4FvY/gEiVTYS+Bp+k2WXAH8D3kJ9tr1eE9tG+UL8vk+XYis/NAlZurIDcAn+J9lc429odrPUz2vwuwrYioXAGdgStapdst4EeD82t8rrimQrHsGWFIoU0oMtFUm1v3gV479oBq3U2zRsL3jvz1orbgC+jm2BnttmWesAB2Orqm7H/1i14nxsCbRIsFbr3Pn4v7G9Yg7wEWBU2KEUqYTRwJfx/xU7MPqwJjk/Bz6ENTgrqyhYB1u19DHg11iXU+/jMTAWYXO5Kj25Uvcr8rQ+VokfRnNeo2XYnIijsUtqIk2yO/ArYFPvRIYxC7gLW/57N7bcbTbWc+QxrIBf0P9vn8I+1708MzFuZWwuzxr9sRb2fbdRf2xMflcfBvoP8CbgWu9EpN72AK7Gv9pNHRdiSwtFmmw8cCJ+EwQV7WMRdoV2pSFeP5HoWhvrPIT/ByB23Nc/tqZc5RDpxI7AFfh/PhXPxL+Brdq9aCIprYrdFliE/4chNOZh7YO1Ta/I4EYCH8QuqXt/Xpscs4D/o+L3+qU+NgP+iv8Ho0j0YRsGadasSGfWxuYG6LZAubEI+Ab16ZUgNbM/5WxlGSuuAHZNciRE6m87YAb+n+O6Rx9wGjC1s5dFxE8v1hp3Nv4fnKHiwf4cdQlNJNwuqBBIFedijdlEKmUS8AP8th0eLJ7G1jevnHDcIk21L3AR/p/zqkcfVlDt3NXRF8nQNODv+H+oZmDreUUkre2AH2MFt/fnvkqxCGsypJn9Ujuvxqd71g3YLxMRKdd6wFewZjzeJ9ec4wHgWKzboEhtjQKOoJwNRx7rf67eUkYmIkMZAxyCXYXL6ZagZyzD7u8fglqMS8NMBk4izTaZi4HvAKuVNhoR6dS6WL/6m/A/CZcdfcDl2L4iWnYsjbcT1s0q1gfsbGCLUkcgIkVtA3wauIw0PwZyiKXYSf9IYMMoR02kRnqAN2AteIt+yG4DXl524iISzVrA24DTqX6nwVnYZL7XYZsLicgwxgFHAXPp/IM2F22EIVJHG2N7cvwYay6Wc9fBB4FTsTlHO6D+IkG0CUuzbYC1u3wtQ78XlmFzCD6DNRwSkXpbB1te+HxsafFW2O2+MtvizgNuBW7E5jDchK0yerTEHGpPBYCAfcjfA+yF7cm9DNvz+1zsV8E9fqmJSCbWw74fJq8Q62IFwyTsyuJKK/znWGxVwhLshA52JXExdiJ/bIWYBdzdHzOBR0oYj4iIiIiIiIiIiIiIiIiIiIiIiIiIiIiIiIiIiIiIiIhINv4fBT4zA6Fg3wcAAAAASUVORK5CYII=;strokeColor=none;" parent="1" vertex="1">
          <mxGeometry x="904" y="-374.5" width="39.5" height="39.5" as="geometry" />
        </mxCell>
        <mxCell id="Mpb16fFOWcYmd3spKum3-260" value="&lt;b&gt;&lt;font style=&quot;font-size: 20px;&quot;&gt;a&lt;/font&gt;&lt;/b&gt;" style="rounded=0;whiteSpace=wrap;html=1;fillColor=#d5e8d4;strokeColor=#82b366;" parent="1" vertex="1">
          <mxGeometry x="1171" y="-251" width="66" height="60" as="geometry" />
        </mxCell>
        <mxCell id="Mpb16fFOWcYmd3spKum3-261" value="&lt;b&gt;&lt;font style=&quot;font-size: 20px;&quot;&gt;b&lt;/font&gt;&lt;/b&gt;" style="rounded=0;whiteSpace=wrap;html=1;fillColor=#e1d5e7;strokeColor=#9673a6;" parent="1" vertex="1">
          <mxGeometry x="713" y="-251" width="66" height="60" as="geometry" />
        </mxCell>
        <mxCell id="Mpb16fFOWcYmd3spKum3-262" value="&lt;b&gt;&lt;font style=&quot;font-size: 20px;&quot;&gt;c&lt;/font&gt;&lt;/b&gt;" style="rounded=0;whiteSpace=wrap;html=1;fillColor=#ffe6cc;strokeColor=#d79b00;" parent="1" vertex="1">
          <mxGeometry x="239.5" y="-16" width="66" height="60" as="geometry" />
        </mxCell>
        <mxCell id="Mpb16fFOWcYmd3spKum3-263" value="&lt;b&gt;&lt;font style=&quot;font-size: 20px;&quot;&gt;d&lt;/font&gt;&lt;/b&gt;" style="rounded=0;whiteSpace=wrap;html=1;" parent="1" vertex="1">
          <mxGeometry x="1004" y="503" width="66" height="60" as="geometry" />
        </mxCell>
        <mxCell id="Mpb16fFOWcYmd3spKum3-264" value="&lt;b&gt;&lt;font style=&quot;font-size: 20px;&quot;&gt;Backorder Data&lt;/font&gt;&lt;/b&gt;" style="rounded=0;whiteSpace=wrap;html=1;strokeColor=#9673a6;fillColor=#e1d5e7;" parent="1" vertex="1">
          <mxGeometry x="503" y="-765" width="161" height="60" as="geometry" />
        </mxCell>
        <mxCell id="Mpb16fFOWcYmd3spKum3-265" value="&lt;b&gt;&lt;font style=&quot;font-size: 20px;&quot;&gt;Data Sources&lt;br&gt;&lt;/font&gt;&lt;/b&gt;" style="rounded=0;whiteSpace=wrap;html=1;strokeColor=#82b366;fillColor=#d5e8d4;" parent="1" vertex="1">
          <mxGeometry x="972.5" y="-765" width="161" height="60" as="geometry" />
        </mxCell>
        <mxCell id="Mpb16fFOWcYmd3spKum3-266" value="&lt;span style=&quot;font-size: 14px;&quot;&gt;&lt;b&gt;Classification Reports and ROC score&lt;/b&gt;&lt;/span&gt;" style="rounded=0;whiteSpace=wrap;html=1;fillColor=#FFD966;strokeColor=#B85450;strokeWidth=3;resizeHeight=0;resizeWidth=0;" parent="1" vertex="1">
          <mxGeometry x="1105" y="55" width="165" height="90" as="geometry" />
        </mxCell>
        <mxCell id="Ir4o4bUdJE17BIB9KvHG-5" style="edgeStyle=orthogonalEdgeStyle;rounded=0;orthogonalLoop=1;jettySize=auto;html=1;exitX=0.5;exitY=1;exitDx=0;exitDy=0;entryX=0.5;entryY=0;entryDx=0;entryDy=0;strokeWidth=3;" parent="1" source="Ir4o4bUdJE17BIB9KvHG-1" target="Mpb16fFOWcYmd3spKum3-100" edge="1">
          <mxGeometry relative="1" as="geometry">
            <Array as="points">
              <mxPoint x="-139" y="97" />
              <mxPoint x="-206" y="97" />
            </Array>
          </mxGeometry>
        </mxCell>
        <mxCell id="Ir4o4bUdJE17BIB9KvHG-1" value="&lt;b style=&quot;background-color: initial; font-size: 14px;&quot;&gt;Training PCs&lt;/b&gt;" style="rounded=0;whiteSpace=wrap;html=1;fontSize=14;fillColor=#ffe6cc;strokeColor=#d79b00;" parent="1" vertex="1">
          <mxGeometry x="-276.25" y="-71" width="275" height="45" as="geometry" />
        </mxCell>
        <mxCell id="Ir4o4bUdJE17BIB9KvHG-11" style="edgeStyle=orthogonalEdgeStyle;rounded=0;orthogonalLoop=1;jettySize=auto;html=1;exitX=1;exitY=0.5;exitDx=0;exitDy=0;entryX=0.5;entryY=0;entryDx=0;entryDy=0;strokeWidth=3;" parent="1" source="Ir4o4bUdJE17BIB9KvHG-2" target="Mpb16fFOWcYmd3spKum3-250" edge="1">
          <mxGeometry relative="1" as="geometry" />
        </mxCell>
        <mxCell id="Ir4o4bUdJE17BIB9KvHG-2" value="&lt;b style=&quot;background-color: initial; font-size: 14px;&quot;&gt;Testing PCs&lt;/b&gt;" style="rounded=0;whiteSpace=wrap;html=1;fontSize=14;fillColor=#ffe6cc;strokeColor=#d79b00;" parent="1" vertex="1">
          <mxGeometry x="29.24" y="-71" width="275" height="45" as="geometry" />
        </mxCell>
        <mxCell id="Ir4o4bUdJE17BIB9KvHG-8" value="&lt;b style=&quot;border-color: var(--border-color); background-color: initial;&quot;&gt;&lt;font style=&quot;font-size: 16px;&quot;&gt;Passing input data for training&lt;/font&gt;&lt;/b&gt;" style="rounded=0;whiteSpace=wrap;html=1;fontSize=14;flipV=0;flipH=1;rotation=-90;strokeColor=none;" parent="1" vertex="1">
          <mxGeometry x="-302.38" y="165.62" width="132.75" height="45" as="geometry" />
        </mxCell>
        <mxCell id="TEra2ui4IZ6zSK96XgUc-21" style="edgeStyle=none;rounded=0;orthogonalLoop=1;jettySize=auto;html=1;exitX=1;exitY=0.5;exitDx=0;exitDy=0;entryX=0;entryY=0.5;entryDx=0;entryDy=0;strokeWidth=3;" parent="1" source="TEra2ui4IZ6zSK96XgUc-1" target="Mpb16fFOWcYmd3spKum3-85" edge="1">
          <mxGeometry relative="1" as="geometry" />
        </mxCell>
        <mxCell id="TEra2ui4IZ6zSK96XgUc-1" value="" style="rounded=0;whiteSpace=wrap;html=1;gradientColor=none;fillColor=none;strokeWidth=3;" parent="1" vertex="1">
          <mxGeometry x="149.75" y="222" width="58.5" height="209" as="geometry" />
        </mxCell>
        <mxCell id="TEra2ui4IZ6zSK96XgUc-2" value="" style="ellipse;whiteSpace=wrap;html=1;aspect=fixed;fillColor=#FF6666;strokeColor=#b85450;" parent="1" vertex="1">
          <mxGeometry x="164" y="233.25" width="30" height="30" as="geometry" />
        </mxCell>
        <mxCell id="TEra2ui4IZ6zSK96XgUc-3" value="" style="ellipse;whiteSpace=wrap;html=1;aspect=fixed;fillColor=#FF6666;strokeColor=#b85450;" parent="1" vertex="1">
          <mxGeometry x="164" y="283.25" width="30" height="30" as="geometry" />
        </mxCell>
        <mxCell id="TEra2ui4IZ6zSK96XgUc-4" value="" style="ellipse;whiteSpace=wrap;html=1;aspect=fixed;fillColor=#FF6666;strokeColor=#b85450;" parent="1" vertex="1">
          <mxGeometry x="164" y="384.25" width="30" height="30" as="geometry" />
        </mxCell>
        <mxCell id="TEra2ui4IZ6zSK96XgUc-5" value="" style="ellipse;whiteSpace=wrap;html=1;aspect=fixed;fillColor=#FF6666;strokeColor=#b85450;" parent="1" vertex="1">
          <mxGeometry x="164" y="335.25" width="30" height="30" as="geometry" />
        </mxCell>
        <mxCell id="TEra2ui4IZ6zSK96XgUc-6" value="&lt;b style=&quot;&quot;&gt;&lt;font style=&quot;font-size: 15px;&quot;&gt;4-Neurons Classical Hidden Layer3&lt;/font&gt;&lt;/b&gt;" style="rounded=0;whiteSpace=wrap;html=1;fillColor=none;strokeColor=none;" parent="1" vertex="1">
          <mxGeometry x="128.29" y="153.75" width="101.41" height="44" as="geometry" />
        </mxCell>
        <mxCell id="TEra2ui4IZ6zSK96XgUc-7" value="&lt;b style=&quot;border-color: var(--border-color); color: rgb(0, 0, 0); font-family: Helvetica; font-size: 14px; font-style: normal; font-variant-ligatures: normal; font-variant-caps: normal; letter-spacing: normal; orphans: 2; text-align: center; text-indent: 0px; text-transform: none; widows: 2; word-spacing: 0px; -webkit-text-stroke-width: 0px; background-color: rgb(255, 255, 255); text-decoration-thickness: initial; text-decoration-style: initial; text-decoration-color: initial;&quot;&gt;Activation = &#39;relu&#39;&lt;/b&gt;" style="text;whiteSpace=wrap;html=1;" parent="1" vertex="1">
          <mxGeometry x="126" y="435.5" width="123.24" height="39" as="geometry" />
        </mxCell>
      </root>
    </mxGraphModel>
  </diagram>
</mxfile>
